{"glyphs":{"0":{"ha":1421,"x_min":0,"x_max":0,"o":"m 342 -6 l 1079 -6 b 1338 249 1251 -6 1338 90 l 1338 724 b 1079 978 1338 882 1251 978 l 342 978 b 83 724 169 978 83 882 l 83 249 b 342 -6 83 90 169 -6 z m 393 188 b 304 264 342 188 304 207 l 304 708 b 393 785 304 765 342 785 l 1028 785 b 1117 708 1079 785 1117 765 l 1117 264 b 1028 188 1117 207 1079 188 z "},"1":{"ha":579,"x_min":0,"x_max":0,"o":"m 465 972 l 67 972 b 42 947 50 972 42 964 l 42 811 b 67 785 42 794 50 785 l 278 785 l 278 24 b 300 0 278 8 286 0 l 465 0 b 489 24 481 0 489 8 l 489 949 b 465 972 489 964 481 972 z "},"2":{"ha":1338,"x_min":0,"x_max":0,"o":"m 83 0 l 1240 0 b 1265 25 1258 0 1265 8 l 1265 161 b 1240 188 1265 178 1258 188 l 281 188 l 281 229 b 404 328 281 282 318 321 l 1069 386 b 1275 708 1260 404 1275 496 b 996 979 1275 847 1211 979 l 379 979 b 76 715 160 979 76 890 l 76 686 b 99 663 76 671 85 663 l 264 663 b 288 686 279 663 288 671 b 381 792 288 768 324 792 l 985 792 b 1064 708 1035 792 1064 760 b 978 558 1064 638 1078 568 l 311 500 b 63 178 107 483 63 336 l 63 21 b 83 0 63 7 69 0 z "},"3":{"ha":1329,"x_min":0,"x_max":0,"o":"m 1104 488 l 1104 504 b 1254 708 1201 525 1254 565 b 969 979 1254 847 1185 979 l 378 979 b 74 715 158 979 74 890 l 74 686 b 97 663 74 671 82 663 l 263 663 b 285 686 276 663 285 671 b 378 792 285 768 321 792 l 958 792 b 1043 708 1008 792 1043 760 b 939 589 1043 653 1060 589 l 369 589 b 343 564 351 589 343 581 l 343 428 b 369 401 343 411 351 401 l 939 401 b 1056 264 1060 401 1056 346 b 974 181 1056 214 1024 181 l 367 181 b 274 286 310 181 274 204 b 251 310 274 301 265 310 l 86 310 b 63 286 71 310 63 301 l 63 257 b 367 -7 63 82 147 -7 l 985 -7 b 1267 264 1201 -7 1267 125 b 1104 488 1267 435 1201 468 z "},"4":{"ha":1351,"x_min":0,"x_max":0,"o":"m 1267 374 l 1169 374 l 1169 567 b 1149 589 1169 581 1163 589 l 975 589 b 953 567 961 589 953 581 l 953 374 l 343 374 l 346 381 l 910 943 b 897 972 924 957 917 972 l 692 972 b 654 957 675 972 665 968 l 78 382 b 63 336 63 367 61 354 l 85 200 b 107 186 86 188 99 186 l 953 186 l 953 22 b 975 0 953 8 961 0 l 1149 0 b 1169 22 1163 0 1169 8 l 1169 186 l 1267 186 b 1289 208 1281 186 1289 194 l 1289 353 b 1267 374 1289 367 1281 374 z "},"5":{"ha":1328,"x_min":0,"x_max":0,"o":"m 374 -7 l 974 -7 b 1258 281 1189 -7 1258 110 l 1258 357 b 990 653 1258 504 1218 653 l 457 653 b 300 594 388 653 321 625 l 290 594 l 313 785 l 1172 785 b 1197 811 1190 785 1197 794 l 1197 947 b 1172 972 1197 964 1190 972 l 150 972 b 129 951 136 972 131 965 l 79 429 b 100 404 78 413 85 404 l 286 404 b 378 464 300 433 319 464 l 956 464 b 1047 363 1004 464 1047 444 l 1047 281 b 961 181 1047 197 1011 181 l 374 181 b 281 286 318 181 281 204 b 258 310 281 301 272 310 l 93 310 b 69 286 78 310 69 301 l 69 257 b 374 -7 69 82 154 -7 z "},"6":{"ha":1390,"x_min":0,"x_max":0,"o":"m 371 -7 l 1033 -7 b 1321 281 1238 -7 1321 110 l 1321 318 b 1053 613 1321 465 1281 613 l 454 613 b 308 558 397 613 329 586 l 293 558 l 294 708 b 372 790 296 760 321 790 l 992 790 b 1089 722 1050 790 1089 782 b 1113 699 1089 706 1097 699 l 1276 699 b 1300 722 1292 699 1300 706 l 1300 751 b 994 979 1300 903 1215 979 l 363 979 b 83 708 147 979 83 847 l 83 281 b 371 -7 83 110 167 -7 z m 386 182 b 294 281 338 182 294 197 l 294 322 b 386 424 294 406 338 424 l 1018 424 b 1110 322 1067 424 1110 406 l 1110 281 b 1018 182 1110 197 1067 182 z "},"7":{"ha":1282,"x_min":0,"x_max":0,"o":"m 1213 799 l 1213 950 b 1190 972 1213 964 1204 972 l 92 972 b 69 950 78 972 69 964 l 69 796 b 92 774 69 782 78 774 l 915 774 l 915 753 l 96 38 b 106 0 81 24 83 0 l 338 0 b 388 24 358 0 372 7 l 1190 743 b 1213 799 1208 760 1213 774 z "},"8":{"ha":1486,"x_min":0,"x_max":0,"o":"m 1267 532 b 1371 713 1340 565 1371 619 b 1093 979 1371 888 1290 979 l 393 979 b 115 713 196 979 115 888 b 219 532 115 618 146 565 b 83 321 119 494 83 426 l 83 269 b 371 -7 83 110 167 -7 l 1115 -7 b 1403 269 1319 -7 1403 110 l 1403 322 b 1267 532 1403 428 1367 494 z m 408 800 l 1078 800 b 1171 713 1165 800 1171 756 b 1078 624 1171 669 1165 624 l 407 624 b 315 713 321 624 315 669 b 408 800 315 756 321 800 z m 1192 269 b 1100 182 1192 197 1149 182 l 386 182 b 294 269 338 182 294 197 l 294 322 b 386 421 294 404 338 421 l 1100 421 b 1192 322 1149 421 1192 404 z "},"9":{"ha":1390,"x_min":0,"x_max":0,"o":"m 1033 979 l 371 979 b 83 692 167 979 83 863 l 83 654 b 351 360 83 507 124 360 l 950 360 b 1096 414 1007 360 1075 386 l 1111 414 l 1110 264 b 1032 182 1108 213 1083 182 l 413 182 b 315 250 354 182 315 190 b 292 274 315 267 307 274 l 128 274 b 104 250 113 274 104 267 l 104 221 b 410 -7 104 69 189 -7 l 1042 -7 b 1321 264 1257 -7 1321 125 l 1321 692 b 1033 979 1321 863 1238 979 z m 1018 790 b 1110 692 1067 790 1110 775 l 1110 650 b 1018 549 1110 567 1067 549 l 386 549 b 294 650 338 549 294 567 l 294 692 b 386 790 294 775 338 790 z "},"A":{"ha":1556,"x_min":0,"x_max":0,"o":"m 1496 29 l 903 950 b 871 972 894 964 886 972 l 685 972 b 654 950 669 972 663 964 l 60 29 b 71 0 47 11 57 0 l 279 0 b 311 25 294 0 301 10 l 394 154 l 1161 154 l 1244 25 b 1278 0 1254 10 1261 0 l 1485 0 b 1496 29 1499 0 1508 11 z m 515 343 l 769 738 l 788 738 l 1040 343 z "},"Á":{"ha":1556,"x_min":0,"x_max":0,"o":"m 718 1040 l 858 1040 b 894 1065 872 1040 886 1053 l 1017 1225 b 1010 1250 1029 1240 1022 1250 l 789 1250 b 763 1225 775 1250 769 1242 l 703 1065 b 718 1040 696 1047 701 1040 z m 1496 29 l 903 950 b 871 972 894 964 886 972 l 685 972 b 654 950 669 972 663 964 l 60 29 b 71 0 47 11 57 0 l 279 0 b 311 25 294 0 301 10 l 394 154 l 1161 154 l 1244 25 b 1278 0 1254 10 1261 0 l 1485 0 b 1496 29 1499 0 1508 11 z m 515 343 l 769 738 l 788 738 l 1040 343 z "},"Ă":{"ha":1556,"x_min":0,"x_max":0,"o":"m 728 1015 l 826 1015 b 1032 1226 968 1015 1032 1083 b 1010 1250 1032 1242 1024 1250 l 882 1250 b 860 1226 868 1250 863 1242 b 794 1157 854 1192 849 1157 l 761 1157 b 696 1226 707 1157 701 1192 b 672 1250 693 1242 686 1250 l 546 1250 b 524 1226 532 1250 524 1242 b 728 1015 524 1083 586 1015 z m 1496 29 l 903 950 b 871 972 894 964 886 972 l 685 972 b 654 950 669 972 663 964 l 60 29 b 71 0 47 11 57 0 l 279 0 b 311 25 294 0 301 10 l 394 154 l 1161 154 l 1244 25 b 1278 0 1254 10 1261 0 l 1485 0 b 1496 29 1499 0 1508 11 z m 515 343 l 769 738 l 788 738 l 1040 343 z "},"Ǎ":{"ha":1556,"x_min":0,"x_max":0,"o":"m 650 1058 b 689 1039 660 1044 674 1039 l 868 1039 b 907 1058 883 1039 897 1049 l 1049 1221 b 1036 1250 1060 1235 1050 1250 l 876 1250 b 829 1221 854 1250 843 1236 l 785 1167 l 771 1167 l 726 1221 b 679 1250 714 1236 703 1250 l 521 1250 b 508 1221 507 1250 496 1235 z m 1496 29 l 903 950 b 871 972 894 964 886 972 l 685 972 b 654 950 669 972 663 964 l 60 29 b 71 0 47 11 57 0 l 279 0 b 311 25 294 0 301 10 l 394 154 l 1161 154 l 1244 25 b 1278 0 1254 10 1261 0 l 1485 0 b 1496 29 1499 0 1508 11 z m 515 343 l 769 738 l 788 738 l 1040 343 z "},"Â":{"ha":1556,"x_min":0,"x_max":0,"o":"m 521 1039 l 679 1039 b 726 1068 703 1039 714 1053 l 771 1122 l 785 1122 l 829 1068 b 876 1039 843 1053 854 1039 l 1036 1039 b 1049 1068 1050 1039 1060 1054 l 907 1229 b 868 1250 897 1240 883 1250 l 689 1250 b 650 1229 674 1250 660 1243 l 508 1068 b 521 1039 496 1054 507 1039 z m 1496 29 l 903 950 b 871 972 894 964 886 972 l 685 972 b 654 950 669 972 663 964 l 60 29 b 71 0 47 11 57 0 l 279 0 b 311 25 294 0 301 10 l 394 154 l 1161 154 l 1244 25 b 1278 0 1254 10 1261 0 l 1485 0 b 1496 29 1499 0 1508 11 z m 515 343 l 769 738 l 788 738 l 1040 343 z "},"Ä":{"ha":1556,"x_min":0,"x_max":0,"o":"m 504 1035 l 674 1035 b 697 1058 688 1035 697 1044 l 697 1228 b 674 1250 697 1242 688 1250 l 504 1250 b 482 1228 490 1250 482 1242 l 482 1058 b 504 1035 482 1044 490 1035 z m 863 1035 l 1032 1035 b 1054 1058 1046 1035 1054 1044 l 1054 1228 b 1032 1250 1054 1242 1046 1250 l 863 1250 b 839 1228 849 1250 839 1242 l 839 1058 b 863 1035 839 1044 849 1035 z m 1496 29 l 903 950 b 871 972 894 964 886 972 l 685 972 b 654 950 669 972 663 964 l 60 29 b 71 0 47 11 57 0 l 279 0 b 311 25 294 0 301 10 l 394 154 l 1161 154 l 1244 25 b 1278 0 1254 10 1261 0 l 1485 0 b 1496 29 1499 0 1508 11 z m 515 343 l 769 738 l 788 738 l 1040 343 z "},"À":{"ha":1556,"x_min":0,"x_max":0,"o":"m 665 1067 b 700 1040 674 1054 686 1040 l 842 1040 b 857 1065 857 1040 864 1047 l 796 1225 b 767 1250 789 1242 781 1250 l 557 1250 b 543 1225 542 1250 531 1240 z m 1496 29 l 903 950 b 871 972 894 964 886 972 l 685 972 b 654 950 669 972 663 964 l 60 29 b 71 0 47 11 57 0 l 279 0 b 311 25 294 0 301 10 l 394 154 l 1161 154 l 1244 25 b 1278 0 1254 10 1261 0 l 1485 0 b 1496 29 1499 0 1508 11 z m 515 343 l 769 738 l 788 738 l 1040 343 z "},"Ā":{"ha":1556,"x_min":0,"x_max":0,"o":"m 553 1061 l 1003 1061 b 1024 1082 1015 1061 1024 1068 l 1024 1229 b 1003 1250 1024 1243 1015 1250 l 553 1250 b 532 1229 539 1250 532 1243 l 532 1082 b 553 1061 532 1068 539 1061 z m 1496 29 l 903 950 b 871 972 894 964 886 972 l 685 972 b 654 950 669 972 663 964 l 60 29 b 71 0 47 11 57 0 l 279 0 b 311 25 294 0 301 10 l 394 154 l 1161 154 l 1244 25 b 1278 0 1254 10 1261 0 l 1485 0 b 1496 29 1499 0 1508 11 z m 515 343 l 769 738 l 788 738 l 1040 343 z "},"Ą":{"ha":1603,"x_min":0,"x_max":0,"o":"m 1538 -39 l 1499 25 l 1496 29 l 903 950 b 871 972 894 964 886 972 l 685 972 b 654 950 669 972 663 964 l 60 29 b 71 0 47 11 57 0 l 279 0 b 311 25 294 0 301 10 l 394 154 l 1161 154 l 1244 25 b 1268 1 1251 14 1258 4 b 1211 -28 1279 -21 1238 -24 l 1167 -32 b 1072 -157 1093 -39 1072 -62 b 1224 -289 1072 -272 1106 -289 l 1438 -289 b 1451 -275 1447 -289 1451 -283 l 1451 -172 b 1438 -154 1451 -162 1446 -154 l 1263 -154 b 1261 -154 1264 -154 1261 -151 b 1271 -147 1261 -151 1264 -147 l 1496 -124 b 1538 -39 1524 -121 1568 -90 z m 515 343 l 769 738 l 788 738 l 1040 343 z "},"Å":{"ha":1556,"x_min":0,"x_max":0,"o":"m 768 1025 l 786 1025 b 903 1140 854 1025 903 1075 l 903 1156 b 786 1272 903 1221 854 1272 l 768 1272 b 651 1156 700 1272 651 1221 l 651 1140 b 768 1025 651 1075 700 1025 z m 758 1154 b 771 1167 758 1158 765 1167 l 783 1167 b 799 1154 792 1167 799 1158 l 799 1146 b 783 1131 799 1139 792 1131 l 771 1131 b 758 1146 765 1131 758 1139 z m 1496 29 l 903 950 b 871 972 894 964 886 972 l 685 972 b 654 950 669 972 663 964 l 60 29 b 71 0 47 11 57 0 l 279 0 b 311 25 294 0 301 10 l 394 154 l 1161 154 l 1244 25 b 1278 0 1254 10 1261 0 l 1485 0 b 1496 29 1499 0 1508 11 z m 515 343 l 769 738 l 788 738 l 1040 343 z "},"Ã":{"ha":1556,"x_min":0,"x_max":0,"o":"m 572 1053 b 601 1047 576 1046 586 1038 b 686 1074 633 1067 649 1074 b 864 1022 751 1074 765 1022 b 1014 1074 914 1022 958 1031 b 1028 1110 1025 1083 1033 1093 l 982 1226 b 954 1235 978 1235 968 1242 b 867 1206 918 1215 904 1206 b 690 1257 803 1206 789 1257 b 540 1206 640 1257 596 1249 b 526 1169 529 1196 519 1188 z m 1496 29 l 903 950 b 871 972 894 964 886 972 l 685 972 b 654 950 669 972 663 964 l 60 29 b 71 0 47 11 57 0 l 279 0 b 311 25 294 0 301 10 l 394 154 l 1161 154 l 1244 25 b 1278 0 1254 10 1261 0 l 1485 0 b 1496 29 1499 0 1508 11 z m 515 343 l 769 738 l 788 738 l 1040 343 z "},"Æ":{"ha":2232,"x_min":0,"x_max":0,"o":"m 2135 193 l 1236 193 l 1236 389 l 2114 389 b 2135 410 2128 389 2135 396 l 2135 563 b 2114 583 2135 576 2128 583 l 1236 583 l 1236 779 l 2128 779 b 2149 800 2142 779 2149 786 l 2149 951 b 2128 972 2149 965 2142 972 l 1021 972 b 983 951 1004 972 996 965 l 61 28 b 71 0 49 14 57 0 l 296 0 b 338 28 311 0 325 14 l 463 154 l 1015 154 l 1015 22 b 1038 0 1015 8 1024 0 l 2135 0 b 2156 21 2149 0 2156 7 l 2156 172 b 2135 193 2156 186 2149 193 z m 647 342 l 1015 714 l 1015 342 z "},"B":{"ha":1393,"x_min":0,"x_max":0,"o":"m 1190 494 l 1190 513 b 1283 697 1258 546 1283 608 l 1283 722 b 1014 972 1283 894 1199 972 l 111 972 b 90 951 97 972 90 965 l 90 21 b 111 0 90 7 97 0 l 1022 0 b 1317 268 1229 0 1317 100 l 1317 326 b 1190 494 1317 403 1278 460 z m 1067 697 l 1067 667 b 985 583 1067 589 1029 583 l 311 583 l 311 779 l 985 779 b 1067 697 1029 779 1067 779 z m 1100 274 b 1007 193 1100 213 1069 193 l 311 193 l 311 408 l 1007 408 b 1100 326 1069 408 1100 385 z "},"C":{"ha":1414,"x_min":0,"x_max":0,"o":"m 1140 619 l 1313 619 b 1338 643 1328 619 1338 628 l 1338 724 b 1092 978 1338 882 1264 978 l 342 978 b 83 724 169 978 83 882 l 83 249 b 342 -6 83 90 169 -6 l 1092 -6 b 1338 254 1264 -6 1338 90 l 1338 294 b 1313 318 1338 310 1328 318 l 1140 318 b 1117 294 1125 318 1117 310 l 1117 269 b 1044 188 1117 206 1096 188 l 393 188 b 304 264 342 188 304 207 l 304 708 b 393 785 304 765 342 785 l 1046 785 b 1117 708 1096 785 1117 765 l 1117 643 b 1140 619 1117 628 1125 619 z "},"Ć":{"ha":1383,"x_min":0,"x_max":0,"o":"m 682 1225 l 624 1065 b 638 1040 615 1047 621 1040 l 778 1040 b 814 1065 792 1040 806 1053 l 936 1225 b 929 1250 949 1240 942 1250 l 710 1250 b 682 1225 696 1250 689 1242 z m 1140 619 l 1313 619 b 1338 643 1328 619 1338 628 l 1338 724 b 1092 978 1338 882 1264 978 l 342 978 b 83 724 169 978 83 882 l 83 249 b 342 -6 83 90 169 -6 l 1092 -6 b 1338 254 1264 -6 1338 90 l 1338 294 b 1313 318 1338 310 1328 318 l 1140 318 b 1117 294 1125 318 1117 310 l 1117 269 b 1044 188 1117 206 1096 188 l 393 188 b 304 264 342 188 304 207 l 304 708 b 393 785 304 765 342 785 l 1046 785 b 1117 708 1096 785 1117 765 l 1117 643 b 1140 619 1117 628 1125 619 z "},"Č":{"ha":1383,"x_min":0,"x_max":0,"o":"m 610 1039 l 789 1039 b 828 1058 804 1039 818 1049 l 969 1221 b 957 1250 982 1235 971 1250 l 799 1250 b 751 1221 775 1250 764 1236 l 707 1167 l 693 1167 l 649 1221 b 601 1250 635 1236 624 1250 l 442 1250 b 429 1221 428 1250 418 1235 l 571 1058 b 610 1039 581 1044 594 1039 z m 1140 619 l 1313 619 b 1338 643 1328 619 1338 628 l 1338 724 b 1092 978 1338 882 1264 978 l 342 978 b 83 724 169 978 83 882 l 83 249 b 342 -6 83 90 169 -6 l 1092 -6 b 1338 254 1264 -6 1338 90 l 1338 294 b 1313 318 1338 310 1328 318 l 1140 318 b 1117 294 1125 318 1117 310 l 1117 269 b 1044 188 1117 206 1096 188 l 393 188 b 304 264 342 188 304 207 l 304 708 b 393 785 304 765 342 785 l 1046 785 b 1117 708 1096 785 1117 765 l 1117 643 b 1140 619 1117 628 1125 619 z "},"Ç":{"ha":1383,"x_min":0,"x_max":0,"o":"m 1140 619 l 1313 619 b 1338 643 1328 619 1338 628 l 1338 724 b 1092 978 1338 882 1264 978 l 342 978 b 83 724 169 978 83 882 l 83 249 b 342 -6 83 90 169 -6 l 649 -6 b 589 -82 608 -43 589 -54 b 646 -132 589 -117 614 -129 b 788 -161 771 -143 788 -146 b 758 -172 788 -171 772 -172 l 731 -172 b 706 -169 722 -172 713 -167 b 690 -153 704 -160 699 -153 l 561 -153 b 547 -174 550 -153 547 -161 b 671 -289 547 -242 578 -289 l 804 -289 b 946 -158 896 -289 946 -239 b 831 -29 946 -74 932 -39 b 819 -6 807 -26 775 -22 l 1092 -6 b 1338 254 1264 -6 1338 90 l 1338 294 b 1313 318 1338 310 1328 318 l 1140 318 b 1117 294 1125 318 1117 310 l 1117 269 b 1044 188 1117 206 1096 188 l 393 188 b 304 264 342 188 304 207 l 304 708 b 393 785 304 765 342 785 l 1046 785 b 1117 708 1096 785 1117 765 l 1117 643 b 1140 619 1117 628 1125 619 z "},"Ċ":{"ha":1383,"x_min":0,"x_max":0,"o":"m 613 1035 l 782 1035 b 804 1058 796 1035 804 1044 l 804 1228 b 782 1250 804 1242 796 1250 l 613 1250 b 590 1228 599 1250 590 1242 l 590 1058 b 613 1035 590 1044 599 1035 z m 1140 619 l 1313 619 b 1338 643 1328 619 1338 628 l 1338 724 b 1092 978 1338 882 1264 978 l 342 978 b 83 724 169 978 83 882 l 83 249 b 342 -6 83 90 169 -6 l 1092 -6 b 1338 254 1264 -6 1338 90 l 1338 294 b 1313 318 1338 310 1328 318 l 1140 318 b 1117 294 1125 318 1117 310 l 1117 269 b 1044 188 1117 206 1096 188 l 393 188 b 304 264 342 188 304 207 l 304 708 b 393 785 304 765 342 785 l 1046 785 b 1117 708 1096 785 1117 765 l 1117 643 b 1140 619 1117 628 1125 619 z "},"D":{"ha":1465,"x_min":0,"x_max":0,"o":"m 1135 972 l 113 972 b 90 950 99 972 90 964 l 90 22 b 113 0 90 8 99 0 l 1135 0 b 1382 254 1307 0 1382 96 l 1382 718 b 1135 972 1382 876 1307 972 z m 1163 269 b 1086 193 1163 213 1138 193 l 311 193 l 311 779 l 1086 779 b 1163 703 1138 779 1163 760 z "},"Ð":{"ha":1497,"x_min":0,"x_max":0,"o":"m 1168 972 l 144 972 b 122 950 131 972 122 964 l 122 608 l 32 608 b 7 582 15 608 7 600 l 7 447 b 32 421 7 429 15 421 l 122 421 l 122 22 b 144 0 122 8 131 0 l 1168 0 b 1414 254 1340 0 1414 96 l 1414 718 b 1168 972 1414 876 1340 972 z m 1196 269 b 1118 193 1196 213 1169 193 l 344 193 l 344 421 l 432 421 b 457 447 449 421 457 429 l 457 582 b 432 608 457 600 449 608 l 344 608 l 344 779 l 1118 779 b 1196 703 1169 779 1196 760 z "},"Ď":{"ha":1465,"x_min":0,"x_max":0,"o":"m 604 1058 b 643 1039 614 1044 628 1039 l 822 1039 b 861 1058 838 1039 851 1049 l 1003 1221 b 990 1250 1014 1235 1004 1250 l 831 1250 b 783 1221 808 1250 797 1236 l 739 1167 l 725 1167 l 681 1221 b 633 1250 668 1236 657 1250 l 475 1250 b 463 1221 461 1250 450 1235 z m 1135 972 l 113 972 b 90 950 99 972 90 964 l 90 22 b 113 0 90 8 99 0 l 1135 0 b 1382 254 1307 0 1382 96 l 1382 718 b 1135 972 1382 876 1307 972 z m 1163 269 b 1086 193 1163 213 1138 193 l 311 193 l 311 779 l 1086 779 b 1163 703 1138 779 1163 760 z "},"Đ":{"ha":1497,"x_min":0,"x_max":0,"o":"m 1168 972 l 144 972 b 122 950 131 972 122 964 l 122 608 l 32 608 b 7 582 15 608 7 600 l 7 447 b 32 421 7 429 15 421 l 122 421 l 122 22 b 144 0 122 8 131 0 l 1168 0 b 1414 254 1340 0 1414 96 l 1414 718 b 1168 972 1414 876 1340 972 z m 1196 269 b 1118 193 1196 213 1169 193 l 344 193 l 344 421 l 432 421 b 457 447 449 421 457 429 l 457 582 b 432 608 457 600 449 608 l 344 608 l 344 779 l 1118 779 b 1196 703 1169 779 1196 760 z "},"E":{"ha":1307,"x_min":0,"x_max":0,"o":"m 1210 193 l 311 193 l 311 389 l 1189 389 b 1210 410 1203 389 1210 396 l 1210 563 b 1189 583 1210 576 1203 583 l 311 583 l 311 779 l 1203 779 b 1224 800 1217 779 1224 786 l 1224 951 b 1203 972 1224 965 1217 972 l 113 972 b 90 950 99 972 90 964 l 90 22 b 113 0 90 8 99 0 l 1210 0 b 1231 21 1224 0 1231 7 l 1231 172 b 1210 193 1231 186 1224 193 z "},"É":{"ha":1307,"x_min":0,"x_max":0,"o":"m 608 1040 l 749 1040 b 785 1065 763 1040 776 1053 l 907 1225 b 900 1250 919 1240 913 1250 l 679 1250 b 653 1225 665 1250 660 1242 l 593 1065 b 608 1040 586 1047 592 1040 z m 1210 193 l 311 193 l 311 389 l 1189 389 b 1210 410 1203 389 1210 396 l 1210 563 b 1189 583 1210 576 1203 583 l 311 583 l 311 779 l 1203 779 b 1224 800 1217 779 1224 786 l 1224 951 b 1203 972 1224 965 1217 972 l 113 972 b 90 950 99 972 90 964 l 90 22 b 113 0 90 8 99 0 l 1210 0 b 1231 21 1224 0 1231 7 l 1231 172 b 1210 193 1231 186 1224 193 z "},"Ě":{"ha":1307,"x_min":0,"x_max":0,"o":"m 540 1058 b 579 1039 550 1044 564 1039 l 758 1039 b 797 1058 774 1039 788 1049 l 939 1221 b 926 1250 950 1235 940 1250 l 767 1250 b 719 1221 744 1250 733 1236 l 675 1167 l 661 1167 l 617 1221 b 569 1250 604 1236 593 1250 l 411 1250 b 399 1221 397 1250 386 1235 z m 1210 193 l 311 193 l 311 389 l 1189 389 b 1210 410 1203 389 1210 396 l 1210 563 b 1189 583 1210 576 1203 583 l 311 583 l 311 779 l 1203 779 b 1224 800 1217 779 1224 786 l 1224 951 b 1203 972 1224 965 1217 972 l 113 972 b 90 950 99 972 90 964 l 90 22 b 113 0 90 8 99 0 l 1210 0 b 1231 21 1224 0 1231 7 l 1231 172 b 1210 193 1231 186 1224 193 z "},"Ȩ":{"ha":1307,"x_min":0,"x_max":0,"o":"m 1210 193 l 311 193 l 311 389 l 1189 389 b 1210 410 1203 389 1210 396 l 1210 563 b 1189 583 1210 576 1203 583 l 311 583 l 311 779 l 1203 779 b 1224 800 1217 779 1224 786 l 1224 951 b 1203 972 1224 965 1217 972 l 113 972 b 90 950 99 972 90 964 l 90 22 b 113 0 90 8 99 0 l 622 0 b 557 -82 576 -42 557 -53 b 613 -132 557 -117 582 -129 b 756 -161 739 -143 756 -146 b 725 -172 756 -171 739 -172 l 699 -172 b 674 -169 690 -172 679 -167 b 657 -153 671 -160 667 -153 l 529 -153 b 514 -174 517 -153 514 -161 b 638 -289 514 -242 546 -289 l 771 -289 b 914 -158 863 -289 914 -239 b 799 -29 914 -74 899 -39 b 803 0 771 -26 735 -21 l 1210 0 b 1231 21 1224 0 1231 7 l 1231 172 b 1210 193 1231 186 1224 193 z "},"Ê":{"ha":1307,"x_min":0,"x_max":0,"o":"m 411 1039 l 569 1039 b 617 1068 593 1039 604 1053 l 661 1122 l 675 1122 l 719 1068 b 767 1039 733 1053 744 1039 l 926 1039 b 939 1068 940 1039 950 1054 l 797 1229 b 758 1250 788 1240 774 1250 l 579 1250 b 540 1229 564 1250 550 1243 l 399 1068 b 411 1039 386 1054 397 1039 z m 1210 193 l 311 193 l 311 389 l 1189 389 b 1210 410 1203 389 1210 396 l 1210 563 b 1189 583 1210 576 1203 583 l 311 583 l 311 779 l 1203 779 b 1224 800 1217 779 1224 786 l 1224 951 b 1203 972 1224 965 1217 972 l 113 972 b 90 950 99 972 90 964 l 90 22 b 113 0 90 8 99 0 l 1210 0 b 1231 21 1224 0 1231 7 l 1231 172 b 1210 193 1231 186 1224 193 z "},"Ë":{"ha":1307,"x_min":0,"x_max":0,"o":"m 394 1035 l 564 1035 b 588 1058 578 1035 588 1044 l 588 1228 b 564 1250 588 1242 578 1250 l 394 1250 b 372 1228 381 1250 372 1242 l 372 1058 b 394 1035 372 1044 381 1035 z m 753 1035 l 922 1035 b 944 1058 936 1035 944 1044 l 944 1228 b 922 1250 944 1242 936 1250 l 753 1250 b 729 1228 739 1250 729 1242 l 729 1058 b 753 1035 729 1044 739 1035 z m 1210 193 l 311 193 l 311 389 l 1189 389 b 1210 410 1203 389 1210 396 l 1210 563 b 1189 583 1210 576 1203 583 l 311 583 l 311 779 l 1203 779 b 1224 800 1217 779 1224 786 l 1224 951 b 1203 972 1224 965 1217 972 l 113 972 b 90 950 99 972 90 964 l 90 22 b 113 0 90 8 99 0 l 1210 0 b 1231 21 1224 0 1231 7 l 1231 172 b 1210 193 1231 186 1224 193 z "},"Ė":{"ha":1307,"x_min":0,"x_max":0,"o":"m 582 1035 l 751 1035 b 775 1058 765 1035 775 1044 l 775 1228 b 751 1250 775 1242 765 1250 l 582 1250 b 560 1228 568 1250 560 1242 l 560 1058 b 582 1035 560 1044 568 1035 z m 1210 193 l 311 193 l 311 389 l 1189 389 b 1210 410 1203 389 1210 396 l 1210 563 b 1189 583 1210 576 1203 583 l 311 583 l 311 779 l 1203 779 b 1224 800 1217 779 1224 786 l 1224 951 b 1203 972 1224 965 1217 972 l 113 972 b 90 950 99 972 90 964 l 90 22 b 113 0 90 8 99 0 l 1210 0 b 1231 21 1224 0 1231 7 l 1231 172 b 1210 193 1231 186 1224 193 z "},"È":{"ha":1307,"x_min":0,"x_max":0,"o":"m 556 1067 b 590 1040 564 1054 576 1040 l 732 1040 b 747 1065 747 1040 754 1047 l 686 1225 b 657 1250 679 1242 671 1250 l 447 1250 b 433 1225 432 1250 421 1240 z m 1210 193 l 311 193 l 311 389 l 1189 389 b 1210 410 1203 389 1210 396 l 1210 563 b 1189 583 1210 576 1203 583 l 311 583 l 311 779 l 1203 779 b 1224 800 1217 779 1224 786 l 1224 951 b 1203 972 1224 965 1217 972 l 113 972 b 90 950 99 972 90 964 l 90 22 b 113 0 90 8 99 0 l 1210 0 b 1231 21 1224 0 1231 7 l 1231 172 b 1210 193 1231 186 1224 193 z "},"Ē":{"ha":1307,"x_min":0,"x_max":0,"o":"m 443 1061 l 893 1061 b 914 1082 906 1061 914 1068 l 914 1229 b 893 1250 914 1243 906 1250 l 443 1250 b 422 1229 429 1250 422 1243 l 422 1082 b 443 1061 422 1068 429 1061 z m 1210 193 l 311 193 l 311 389 l 1189 389 b 1210 410 1203 389 1210 396 l 1210 563 b 1189 583 1210 576 1203 583 l 311 583 l 311 779 l 1203 779 b 1224 800 1217 779 1224 786 l 1224 951 b 1203 972 1224 965 1217 972 l 113 972 b 90 950 99 972 90 964 l 90 22 b 113 0 90 8 99 0 l 1210 0 b 1231 21 1224 0 1231 7 l 1231 172 b 1210 193 1231 186 1224 193 z "},"Ę":{"ha":1307,"x_min":0,"x_max":0,"o":"m 1210 193 l 311 193 l 311 389 l 1189 389 b 1210 410 1203 389 1210 396 l 1210 563 b 1189 583 1210 576 1203 583 l 311 583 l 311 779 l 1203 779 b 1224 800 1217 779 1224 786 l 1224 951 b 1203 972 1224 965 1217 972 l 113 972 b 90 950 99 972 90 964 l 90 22 b 113 0 90 8 99 0 l 1011 0 b 969 -8 1003 -7 988 -7 l 921 -12 b 828 -137 847 -19 828 -43 b 978 -269 828 -253 861 -269 l 1193 -269 b 1207 -256 1203 -269 1207 -264 l 1207 -153 b 1193 -135 1207 -143 1201 -135 l 1017 -135 b 1015 -135 1018 -135 1015 -132 b 1026 -128 1015 -132 1018 -128 l 1118 -117 b 1231 -35 1190 -107 1231 -106 l 1231 172 b 1210 193 1231 186 1224 193 z "},"F":{"ha":1300,"x_min":0,"x_max":0,"o":"m 1203 972 l 113 972 b 90 950 99 972 90 964 l 90 22 b 113 0 90 8 99 0 l 290 0 b 311 22 304 0 311 8 l 311 418 l 1189 418 b 1210 439 1203 418 1210 425 l 1210 590 b 1189 611 1210 604 1203 611 l 311 611 l 311 779 l 1203 779 b 1224 800 1217 779 1224 786 l 1224 951 b 1203 972 1224 965 1217 972 z "},"G":{"ha":1414,"x_min":0,"x_max":0,"o":"m 342 -6 l 1090 -6 b 1338 249 1263 -6 1338 90 l 1338 489 b 1306 521 1338 510 1326 521 l 743 521 b 710 489 722 521 710 510 l 710 360 b 743 328 710 339 722 328 l 1117 328 l 1117 264 b 1039 188 1117 207 1090 188 l 393 188 b 304 264 342 188 304 207 l 304 708 b 393 785 304 765 342 785 l 1043 785 b 1114 708 1093 785 1114 765 l 1114 643 b 1138 619 1114 628 1122 619 l 1310 619 b 1335 643 1325 619 1335 628 l 1335 724 b 1089 978 1335 882 1261 978 l 342 978 b 83 724 169 978 83 882 l 83 249 b 342 -6 83 90 169 -6 z "},"Ğ":{"ha":1414,"x_min":0,"x_max":0,"o":"m 657 1015 l 756 1015 b 961 1226 897 1015 961 1083 b 939 1250 961 1242 953 1250 l 811 1250 b 789 1226 797 1250 792 1242 b 724 1157 783 1192 778 1157 l 690 1157 b 625 1226 636 1157 631 1192 b 601 1250 622 1242 615 1250 l 475 1250 b 453 1226 461 1250 453 1242 b 657 1015 453 1083 515 1015 z m 342 -6 l 1090 -6 b 1338 249 1263 -6 1338 90 l 1338 489 b 1306 521 1338 510 1326 521 l 743 521 b 710 489 722 521 710 510 l 710 360 b 743 328 710 339 722 328 l 1117 328 l 1117 264 b 1039 188 1117 207 1090 188 l 393 188 b 304 264 342 188 304 207 l 304 708 b 393 785 304 765 342 785 l 1043 785 b 1114 708 1093 785 1114 765 l 1114 643 b 1138 619 1114 628 1122 619 l 1310 619 b 1335 643 1325 619 1335 628 l 1335 724 b 1089 978 1335 882 1261 978 l 342 978 b 83 724 169 978 83 882 l 83 249 b 342 -6 83 90 169 -6 z "},"Ǧ":{"ha":1414,"x_min":0,"x_max":0,"o":"m 618 1039 l 797 1039 b 836 1058 813 1039 826 1049 l 978 1221 b 965 1250 989 1235 979 1250 l 806 1250 b 758 1221 783 1250 772 1236 l 714 1167 l 700 1167 l 656 1221 b 608 1250 643 1236 632 1250 l 450 1250 b 438 1221 436 1250 425 1235 l 579 1058 b 618 1039 589 1044 603 1039 z m 342 -6 l 1090 -6 b 1338 249 1263 -6 1338 90 l 1338 489 b 1306 521 1338 510 1326 521 l 743 521 b 710 489 722 521 710 510 l 710 360 b 743 328 710 339 722 328 l 1117 328 l 1117 264 b 1039 188 1117 207 1090 188 l 393 188 b 304 264 342 188 304 207 l 304 708 b 393 785 304 765 342 785 l 1043 785 b 1114 708 1093 785 1114 765 l 1114 643 b 1138 619 1114 628 1122 619 l 1310 619 b 1335 643 1325 619 1335 628 l 1335 724 b 1089 978 1335 882 1261 978 l 342 978 b 83 724 169 978 83 882 l 83 249 b 342 -6 83 90 169 -6 z "},"Ģ":{"ha":1414,"x_min":0,"x_max":0,"o":"m 342 -6 l 1090 -6 b 1338 249 1263 -6 1338 90 l 1338 489 b 1306 521 1338 510 1326 521 l 743 521 b 710 489 722 521 710 510 l 710 360 b 743 328 710 339 722 328 l 1117 328 l 1117 264 b 1039 188 1117 207 1090 188 l 393 188 b 304 264 342 188 304 207 l 304 708 b 393 785 304 765 342 785 l 1043 785 b 1114 708 1093 785 1114 765 l 1114 643 b 1138 619 1114 628 1122 619 l 1310 619 b 1335 643 1325 619 1335 628 l 1335 724 b 1089 978 1335 882 1261 978 l 342 978 b 83 724 169 978 83 882 l 83 249 b 342 -6 83 90 169 -6 z m 781 -83 l 640 -83 b 618 -106 626 -83 618 -92 l 618 -364 l 549 -364 b 526 -386 535 -364 526 -372 l 526 -518 b 549 -540 526 -532 535 -540 l 744 -540 b 803 -482 782 -540 803 -519 l 803 -106 b 781 -83 803 -92 794 -83 z "},"Ġ":{"ha":1414,"x_min":0,"x_max":0,"o":"m 622 1035 l 792 1035 b 815 1058 806 1035 815 1044 l 815 1228 b 792 1250 815 1242 806 1250 l 622 1250 b 600 1228 608 1250 600 1242 l 600 1058 b 622 1035 600 1044 608 1035 z m 342 -6 l 1090 -6 b 1338 249 1263 -6 1338 90 l 1338 489 b 1306 521 1338 510 1326 521 l 743 521 b 710 489 722 521 710 510 l 710 360 b 743 328 710 339 722 328 l 1117 328 l 1117 264 b 1039 188 1117 207 1090 188 l 393 188 b 304 264 342 188 304 207 l 304 708 b 393 785 304 765 342 785 l 1043 785 b 1114 708 1093 785 1114 765 l 1114 643 b 1138 619 1114 628 1122 619 l 1310 619 b 1335 643 1325 619 1335 628 l 1335 724 b 1089 978 1335 882 1261 978 l 342 978 b 83 724 169 978 83 882 l 83 249 b 342 -6 83 90 169 -6 z "},"H":{"ha":1400,"x_min":0,"x_max":0,"o":"m 1288 972 l 1110 972 b 1089 950 1096 972 1089 964 l 1089 583 l 311 583 l 311 950 b 290 972 311 964 304 972 l 113 972 b 90 950 99 972 90 964 l 90 22 b 113 0 90 8 99 0 l 290 0 b 311 22 304 0 311 8 l 311 389 l 1089 389 l 1089 22 b 1110 0 1089 8 1096 0 l 1288 0 b 1310 22 1301 0 1310 8 l 1310 950 b 1288 972 1310 964 1301 972 z "},"Ħ":{"ha":1400,"x_min":0,"x_max":0,"o":"m 1288 972 l 1110 972 b 1089 950 1096 972 1089 964 l 1089 849 l 311 849 l 311 950 b 290 972 311 964 304 972 l 113 972 b 90 950 99 972 90 964 l 90 22 b 113 0 90 8 99 0 l 290 0 b 311 22 304 0 311 8 l 311 389 l 1089 389 l 1089 22 b 1110 0 1089 8 1096 0 l 1288 0 b 1310 22 1301 0 1310 8 l 1310 950 b 1288 972 1310 964 1301 972 z m 311 583 l 311 656 l 1089 656 l 1089 583 z "},"I":{"ha":401,"x_min":0,"x_max":0,"o":"m 90 950 l 90 22 b 113 0 90 8 99 0 l 290 0 b 311 22 304 0 311 8 l 311 950 b 290 972 311 964 304 972 l 113 972 b 90 950 99 972 90 964 z "},"Ĳ":{"ha":1764,"x_min":0,"x_max":0,"o":"m 90 950 l 90 22 b 113 0 90 8 99 0 l 290 0 b 311 22 304 0 311 8 l 311 950 b 290 972 311 964 304 972 l 113 972 b 90 950 99 972 90 964 z m 500 0 l 1425 0 b 1674 254 1597 0 1674 96 l 1674 950 b 1651 972 1674 964 1665 972 l 1474 972 b 1453 950 1460 972 1453 964 l 1453 269 b 1375 193 1453 213 1426 193 l 500 193 b 478 172 486 193 478 186 l 478 22 b 500 0 478 8 486 0 z "},"Í":{"ha":401,"x_min":0,"x_max":0,"o":"m 185 1225 l 125 1065 b 140 1040 118 1047 124 1040 l 281 1040 b 317 1065 294 1040 308 1053 l 439 1225 b 432 1250 451 1240 444 1250 l 211 1250 b 185 1225 197 1250 192 1242 z m 90 950 l 90 22 b 113 0 90 8 99 0 l 290 0 b 311 22 304 0 311 8 l 311 950 b 290 972 311 964 304 972 l 113 972 b 90 950 99 972 90 964 z "},"Ǐ":{"ha":401,"x_min":0,"x_max":0,"o":"m 111 1039 l 290 1039 b 329 1058 306 1039 319 1049 l 471 1221 b 458 1250 482 1235 472 1250 l 299 1250 b 251 1221 276 1250 265 1236 l 207 1167 l 193 1167 l 149 1221 b 101 1250 136 1236 125 1250 l -57 1250 b -69 1221 -71 1250 -82 1235 l 72 1058 b 111 1039 82 1044 96 1039 z m 90 950 l 90 22 b 113 0 90 8 99 0 l 290 0 b 311 22 304 0 311 8 l 311 950 b 290 972 311 964 304 972 l 113 972 b 90 950 99 972 90 964 z "},"Î":{"ha":401,"x_min":0,"x_max":0,"o":"m 111 1250 b 72 1229 96 1250 82 1243 l -69 1068 b -57 1039 -82 1054 -71 1039 l 101 1039 b 149 1068 125 1039 136 1053 l 193 1122 l 207 1122 l 251 1068 b 299 1039 265 1053 276 1039 l 458 1039 b 471 1068 472 1039 482 1054 l 329 1229 b 290 1250 319 1240 306 1250 z m 90 950 l 90 22 b 113 0 90 8 99 0 l 290 0 b 311 22 304 0 311 8 l 311 950 b 290 972 311 964 304 972 l 113 972 b 90 950 99 972 90 964 z "},"Ï":{"ha":401,"x_min":0,"x_max":0,"o":"m -74 1035 l 96 1035 b 119 1058 110 1035 119 1044 l 119 1228 b 96 1250 119 1242 110 1250 l -74 1250 b -96 1228 -87 1250 -96 1242 l -96 1058 b -74 1035 -96 1044 -87 1035 z m 285 1035 l 454 1035 b 476 1058 468 1035 476 1044 l 476 1228 b 454 1250 476 1242 468 1250 l 285 1250 b 261 1228 271 1250 261 1242 l 261 1058 b 285 1035 261 1044 271 1035 z m 90 950 l 90 22 b 113 0 90 8 99 0 l 290 0 b 311 22 304 0 311 8 l 311 950 b 290 972 311 964 304 972 l 113 972 b 90 950 99 972 90 964 z "},"İ":{"ha":401,"x_min":0,"x_max":0,"o":"m 115 1035 l 285 1035 b 308 1058 299 1035 308 1044 l 308 1228 b 285 1250 308 1242 299 1250 l 115 1250 b 93 1228 101 1250 93 1242 l 93 1058 b 115 1035 93 1044 101 1035 z m 90 950 l 90 22 b 113 0 90 8 99 0 l 290 0 b 311 22 304 0 311 8 l 311 950 b 290 972 311 964 304 972 l 113 972 b 90 950 99 972 90 964 z "},"Ì":{"ha":401,"x_min":0,"x_max":0,"o":"m 218 1225 b 189 1250 211 1242 203 1250 l -21 1250 b -35 1225 -36 1250 -47 1240 l 88 1067 b 122 1040 96 1054 108 1040 l 264 1040 b 279 1065 279 1040 286 1047 z m 90 950 l 90 22 b 113 0 90 8 99 0 l 290 0 b 311 22 304 0 311 8 l 311 950 b 290 972 311 964 304 972 l 113 972 b 90 950 99 972 90 964 z "},"Ī":{"ha":401,"x_min":0,"x_max":0,"o":"m -24 1061 l 426 1061 b 447 1082 439 1061 447 1068 l 447 1229 b 426 1250 447 1243 439 1250 l -24 1250 b -44 1229 -37 1250 -44 1243 l -44 1082 b -24 1061 -44 1068 -37 1061 z m 90 950 l 90 22 b 113 0 90 8 99 0 l 290 0 b 311 22 304 0 311 8 l 311 950 b 290 972 311 964 304 972 l 113 972 b 90 950 99 972 90 964 z "},"Į":{"ha":406,"x_min":0,"x_max":0,"o":"m 293 972 l 115 972 b 94 950 101 972 94 964 l 94 6 b 51 -28 94 -29 79 -25 l 3 -32 b -92 -157 -71 -39 -92 -62 b 58 -289 -92 -272 -58 -289 l 274 -289 b 288 -275 283 -289 288 -283 l 288 -172 b 274 -154 288 -162 282 -154 l 97 -154 b 107 -147 97 -153 97 -147 l 203 -136 b 315 -54 275 -128 315 -125 l 315 950 b 293 972 315 964 307 972 z "},"J":{"ha":1363,"x_min":0,"x_max":0,"o":"m 99 0 l 1024 0 b 1272 254 1196 0 1272 96 l 1272 950 b 1250 972 1272 964 1264 972 l 1072 972 b 1051 950 1058 972 1051 964 l 1051 269 b 974 193 1051 213 1025 193 l 99 193 b 76 172 85 193 76 186 l 76 22 b 99 0 76 8 85 0 z "},"K":{"ha":1419,"x_min":0,"x_max":0,"o":"m 1365 38 l 753 575 l 1319 932 b 1314 972 1342 947 1332 972 l 1071 972 b 1000 944 1044 972 1022 958 l 311 514 l 311 950 b 290 972 311 964 304 972 l 113 972 b 90 950 99 972 90 964 l 90 22 b 113 0 90 8 99 0 l 290 0 b 311 22 304 0 311 8 l 311 296 l 582 467 l 1085 24 b 1135 0 1103 8 1113 0 l 1351 0 b 1365 38 1375 0 1376 25 z "},"Ķ":{"ha":1419,"x_min":0,"x_max":0,"o":"m 1365 38 l 753 575 l 1319 932 b 1314 972 1342 947 1332 972 l 1071 972 b 1000 944 1044 972 1022 958 l 311 514 l 311 950 b 290 972 311 964 304 972 l 113 972 b 90 950 99 972 90 964 l 90 22 b 113 0 90 8 99 0 l 290 0 b 311 22 304 0 311 8 l 311 296 l 582 467 l 1085 24 b 1135 0 1103 8 1113 0 l 1351 0 b 1365 38 1375 0 1376 25 z m 776 -83 l 636 -83 b 614 -106 622 -83 614 -92 l 614 -364 l 544 -364 b 522 -386 531 -364 522 -372 l 522 -518 b 544 -540 522 -532 531 -540 l 740 -540 b 799 -482 778 -540 799 -519 l 799 -106 b 776 -83 799 -92 790 -83 z "},"L":{"ha":1308,"x_min":0,"x_max":0,"o":"m 1217 193 l 311 193 l 311 950 b 290 972 311 964 304 972 l 113 972 b 90 950 99 972 90 964 l 90 22 b 113 0 90 8 99 0 l 1217 0 b 1239 22 1231 0 1239 8 l 1239 172 b 1217 193 1239 186 1231 193 z "},"Ĺ":{"ha":1308,"x_min":0,"x_max":0,"o":"m 129 1040 l 269 1040 b 306 1065 283 1040 297 1053 l 428 1225 b 421 1250 440 1240 433 1250 l 200 1250 b 174 1225 186 1250 181 1242 l 114 1065 b 129 1040 107 1047 113 1040 z m 1217 193 l 311 193 l 311 950 b 290 972 311 964 304 972 l 113 972 b 90 950 99 972 90 964 l 90 22 b 113 0 90 8 99 0 l 1217 0 b 1239 22 1231 0 1239 8 l 1239 172 b 1217 193 1239 186 1231 193 z "},"Ľ":{"ha":1308,"x_min":0,"x_max":0,"o":"m 1217 193 l 311 193 l 311 950 b 290 972 311 964 304 972 l 113 972 b 90 950 99 972 90 964 l 90 22 b 113 0 90 8 99 0 l 1217 0 b 1239 22 1231 0 1239 8 l 1239 172 b 1217 193 1239 186 1231 193 z m 467 515 l 663 515 b 719 574 699 515 719 536 l 719 950 b 697 972 719 964 711 972 l 558 972 b 535 950 544 972 535 964 l 535 692 l 467 692 b 443 669 453 692 443 683 l 443 538 b 467 515 443 524 453 515 z "},"Ļ":{"ha":1308,"x_min":0,"x_max":0,"o":"m 1217 193 l 311 193 l 311 950 b 290 972 311 964 304 972 l 113 972 b 90 950 99 972 90 964 l 90 22 b 113 0 90 8 99 0 l 1217 0 b 1239 22 1231 0 1239 8 l 1239 172 b 1217 193 1239 186 1231 193 z m 726 -83 l 586 -83 b 564 -106 572 -83 564 -92 l 564 -364 l 494 -364 b 472 -386 481 -364 472 -372 l 472 -518 b 494 -540 472 -532 481 -540 l 690 -540 b 749 -482 728 -540 749 -519 l 749 -106 b 726 -83 749 -92 740 -83 z "},"Ŀ":{"ha":1308,"x_min":0,"x_max":0,"o":"m 1217 193 l 311 193 l 311 950 b 290 972 311 964 304 972 l 113 972 b 90 950 99 972 90 964 l 90 22 b 113 0 90 8 99 0 l 1217 0 b 1239 22 1231 0 1239 8 l 1239 172 b 1217 193 1239 186 1231 193 z m 535 410 l 706 410 b 728 432 719 410 728 418 l 728 601 b 706 625 728 615 719 625 l 535 625 b 513 601 521 625 513 615 l 513 432 b 535 410 513 418 521 410 z "},"Ł":{"ha":1464,"x_min":0,"x_max":0,"o":"m 1372 193 l 467 193 l 467 449 l 632 626 b 619 653 646 640 636 653 l 467 653 l 467 950 b 446 972 467 964 460 972 l 268 972 b 246 950 254 972 246 964 l 246 471 l 24 232 b 38 206 10 218 21 206 l 233 206 b 246 210 239 206 242 207 l 246 22 b 268 0 246 8 254 0 l 1372 0 b 1394 22 1386 0 1394 8 l 1394 172 b 1372 193 1394 186 1386 193 z "},"M":{"ha":1671,"x_min":0,"x_max":0,"o":"m 113 0 l 290 0 b 311 22 304 0 311 8 l 311 676 l 326 676 l 726 22 b 760 0 735 8 744 0 l 911 0 b 944 22 926 0 936 8 l 1344 676 l 1360 676 l 1360 22 b 1381 0 1360 8 1367 0 l 1558 0 b 1581 22 1572 0 1581 8 l 1581 950 b 1558 972 1581 964 1572 972 l 1301 972 b 1271 951 1288 972 1279 965 l 844 256 l 826 256 l 400 951 b 369 972 392 965 383 972 l 113 972 b 90 950 99 972 90 964 l 90 22 b 113 0 90 8 99 0 z "},"Ḿ":{"ha":1671,"x_min":0,"x_max":0,"o":"m 826 1225 l 767 1065 b 782 1040 760 1047 765 1040 l 922 1040 b 958 1065 936 1040 950 1053 l 1081 1225 b 1074 1250 1093 1240 1086 1250 l 853 1250 b 826 1225 839 1250 833 1242 z m 113 0 l 290 0 b 311 22 304 0 311 8 l 311 676 l 326 676 l 726 22 b 760 0 735 8 744 0 l 911 0 b 944 22 926 0 936 8 l 1344 676 l 1360 676 l 1360 22 b 1381 0 1360 8 1367 0 l 1558 0 b 1581 22 1572 0 1581 8 l 1581 950 b 1558 972 1581 964 1572 972 l 1301 972 b 1271 951 1288 972 1279 965 l 844 256 l 826 256 l 400 951 b 369 972 392 965 383 972 l 113 972 b 90 950 99 972 90 964 l 90 22 b 113 0 90 8 99 0 z "},"N":{"ha":1414,"x_min":0,"x_max":0,"o":"m 113 0 l 290 0 b 311 22 304 0 311 8 l 311 711 l 331 711 l 1064 17 b 1094 0 1076 6 1082 0 l 1301 0 b 1324 22 1315 0 1324 8 l 1324 950 b 1301 972 1324 964 1315 972 l 1124 972 b 1103 950 1110 972 1103 964 l 1103 261 l 1083 261 l 350 956 b 319 972 338 967 332 972 l 113 972 b 90 950 99 972 90 964 l 90 22 b 113 0 90 8 99 0 z "},"Ń":{"ha":1414,"x_min":0,"x_max":0,"o":"m 693 1225 l 633 1065 b 649 1040 626 1047 632 1040 l 789 1040 b 825 1065 803 1040 817 1053 l 947 1225 b 940 1250 960 1240 953 1250 l 719 1250 b 693 1225 706 1250 700 1242 z m 113 0 l 290 0 b 311 22 304 0 311 8 l 311 711 l 331 711 l 1064 17 b 1094 0 1076 6 1082 0 l 1301 0 b 1324 22 1315 0 1324 8 l 1324 950 b 1301 972 1324 964 1315 972 l 1124 972 b 1103 950 1110 972 1103 964 l 1103 261 l 1083 261 l 350 956 b 319 972 338 967 332 972 l 113 972 b 90 950 99 972 90 964 l 90 22 b 113 0 90 8 99 0 z "},"Ň":{"ha":1414,"x_min":0,"x_max":0,"o":"m 619 1039 l 799 1039 b 838 1058 814 1039 828 1049 l 979 1221 b 967 1250 990 1235 981 1250 l 807 1250 b 760 1221 785 1250 774 1236 l 715 1167 l 701 1167 l 657 1221 b 610 1250 644 1236 633 1250 l 451 1250 b 439 1221 438 1250 426 1235 l 581 1058 b 619 1039 590 1044 604 1039 z m 113 0 l 290 0 b 311 22 304 0 311 8 l 311 711 l 331 711 l 1064 17 b 1094 0 1076 6 1082 0 l 1301 0 b 1324 22 1315 0 1324 8 l 1324 950 b 1301 972 1324 964 1315 972 l 1124 972 b 1103 950 1110 972 1103 964 l 1103 261 l 1083 261 l 350 956 b 319 972 338 967 332 972 l 113 972 b 90 950 99 972 90 964 l 90 22 b 113 0 90 8 99 0 z "},"Ņ":{"ha":1414,"x_min":0,"x_max":0,"o":"m 113 0 l 290 0 b 311 22 304 0 311 8 l 311 711 l 331 711 l 1064 17 b 1094 0 1076 6 1082 0 l 1301 0 b 1324 22 1315 0 1324 8 l 1324 950 b 1301 972 1324 964 1315 972 l 1124 972 b 1103 950 1110 972 1103 964 l 1103 261 l 1083 261 l 350 956 b 319 972 338 967 332 972 l 113 972 b 90 950 99 972 90 964 l 90 22 b 113 0 90 8 99 0 z m 782 -83 l 642 -83 b 619 -106 628 -83 619 -92 l 619 -364 l 550 -364 b 528 -386 536 -364 528 -372 l 528 -518 b 550 -540 528 -532 536 -540 l 746 -540 b 804 -482 783 -540 804 -519 l 804 -106 b 782 -83 804 -92 796 -83 z "},"Ŋ":{"ha":1414,"x_min":0,"x_max":0,"o":"m 1301 972 l 1124 972 b 1103 950 1110 972 1103 964 l 1103 261 l 1083 261 l 350 956 b 319 972 338 967 332 972 l 113 972 b 90 950 99 972 90 964 l 90 22 b 113 0 90 8 99 0 l 290 0 b 311 22 304 0 311 8 l 311 711 l 331 711 l 1064 17 b 1094 0 1076 6 1082 0 l 1103 0 l 1103 -8 b 1025 -85 1103 -65 1076 -85 l 113 -85 b 90 -106 99 -85 90 -92 l 90 -256 b 113 -278 90 -269 99 -278 l 1075 -278 b 1324 -24 1247 -278 1324 -182 l 1324 950 b 1301 972 1324 964 1315 972 z "},"Ñ":{"ha":1414,"x_min":0,"x_max":0,"o":"m 794 1022 b 944 1074 844 1022 889 1031 b 958 1110 956 1083 964 1093 l 913 1226 b 885 1235 908 1235 899 1242 b 797 1206 849 1215 835 1206 b 621 1257 733 1206 719 1257 b 471 1206 571 1257 526 1249 b 457 1169 460 1196 450 1188 l 503 1053 b 532 1047 507 1046 517 1038 b 617 1074 564 1067 579 1074 b 794 1022 682 1074 696 1022 z m 113 0 l 290 0 b 311 22 304 0 311 8 l 311 711 l 331 711 l 1064 17 b 1094 0 1076 6 1082 0 l 1301 0 b 1324 22 1315 0 1324 8 l 1324 950 b 1301 972 1324 964 1315 972 l 1124 972 b 1103 950 1110 972 1103 964 l 1103 261 l 1083 261 l 350 956 b 319 972 338 967 332 972 l 113 972 b 90 950 99 972 90 964 l 90 22 b 113 0 90 8 99 0 z "},"O":{"ha":1421,"x_min":0,"x_max":0,"o":"m 342 -6 l 1079 -6 b 1338 249 1251 -6 1338 90 l 1338 724 b 1079 978 1338 882 1251 978 l 342 978 b 83 724 169 978 83 882 l 83 249 b 342 -6 83 90 169 -6 z m 393 188 b 304 264 342 188 304 207 l 304 708 b 393 785 304 765 342 785 l 1028 785 b 1117 708 1079 785 1117 765 l 1117 264 b 1028 188 1117 207 1079 188 z "},"Ó":{"ha":1421,"x_min":0,"x_max":0,"o":"m 694 1225 l 635 1065 b 650 1040 628 1047 633 1040 l 790 1040 b 826 1065 804 1040 818 1053 l 949 1225 b 942 1250 961 1240 954 1250 l 721 1250 b 694 1225 707 1250 701 1242 z m 342 -6 l 1079 -6 b 1338 249 1251 -6 1338 90 l 1338 724 b 1079 978 1338 882 1251 978 l 342 978 b 83 724 169 978 83 882 l 83 249 b 342 -6 83 90 169 -6 z m 393 188 b 304 264 342 188 304 207 l 304 708 b 393 785 304 765 342 785 l 1028 785 b 1117 708 1079 785 1117 765 l 1117 264 b 1028 188 1117 207 1079 188 z "},"Ǒ":{"ha":1421,"x_min":0,"x_max":0,"o":"m 621 1039 l 800 1039 b 839 1058 815 1039 829 1049 l 981 1221 b 968 1250 992 1235 982 1250 l 808 1250 b 761 1221 786 1250 775 1236 l 717 1167 l 703 1167 l 658 1221 b 611 1250 646 1236 635 1250 l 453 1250 b 440 1221 439 1250 428 1235 l 582 1058 b 621 1039 592 1044 606 1039 z m 342 -6 l 1079 -6 b 1338 249 1251 -6 1338 90 l 1338 724 b 1079 978 1338 882 1251 978 l 342 978 b 83 724 169 978 83 882 l 83 249 b 342 -6 83 90 169 -6 z m 393 188 b 304 264 342 188 304 207 l 304 708 b 393 785 304 765 342 785 l 1028 785 b 1117 708 1079 785 1117 765 l 1117 264 b 1028 188 1117 207 1079 188 z "},"Ô":{"ha":1421,"x_min":0,"x_max":0,"o":"m 621 1250 b 582 1229 606 1250 592 1243 l 440 1068 b 453 1039 428 1054 439 1039 l 611 1039 b 658 1068 635 1039 646 1053 l 703 1122 l 717 1122 l 761 1068 b 808 1039 775 1053 786 1039 l 968 1039 b 981 1068 982 1039 992 1054 l 839 1229 b 800 1250 829 1240 815 1250 z m 342 -6 l 1079 -6 b 1338 249 1251 -6 1338 90 l 1338 724 b 1079 978 1338 882 1251 978 l 342 978 b 83 724 169 978 83 882 l 83 249 b 342 -6 83 90 169 -6 z m 393 188 b 304 264 342 188 304 207 l 304 708 b 393 785 304 765 342 785 l 1028 785 b 1117 708 1079 785 1117 765 l 1117 264 b 1028 188 1117 207 1079 188 z "},"Ö":{"ha":1421,"x_min":0,"x_max":0,"o":"m 436 1035 l 606 1035 b 629 1058 619 1035 629 1044 l 629 1228 b 606 1250 629 1242 619 1250 l 436 1250 b 414 1228 422 1250 414 1242 l 414 1058 b 436 1035 414 1044 422 1035 z m 794 1035 l 964 1035 b 986 1058 978 1035 986 1044 l 986 1228 b 964 1250 986 1242 978 1250 l 794 1250 b 771 1228 781 1250 771 1242 l 771 1058 b 794 1035 771 1044 781 1035 z m 342 -6 l 1079 -6 b 1338 249 1251 -6 1338 90 l 1338 724 b 1079 978 1338 882 1251 978 l 342 978 b 83 724 169 978 83 882 l 83 249 b 342 -6 83 90 169 -6 z m 393 188 b 304 264 342 188 304 207 l 304 708 b 393 785 304 765 342 785 l 1028 785 b 1117 708 1079 785 1117 765 l 1117 264 b 1028 188 1117 207 1079 188 z "},"Ò":{"ha":1421,"x_min":0,"x_max":0,"o":"m 728 1225 b 699 1250 721 1242 713 1250 l 489 1250 b 475 1225 474 1250 463 1240 l 597 1067 b 632 1040 606 1054 618 1040 l 774 1040 b 789 1065 789 1040 796 1047 z m 342 -6 l 1079 -6 b 1338 249 1251 -6 1338 90 l 1338 724 b 1079 978 1338 882 1251 978 l 342 978 b 83 724 169 978 83 882 l 83 249 b 342 -6 83 90 169 -6 z m 393 188 b 304 264 342 188 304 207 l 304 708 b 393 785 304 765 342 785 l 1028 785 b 1117 708 1079 785 1117 765 l 1117 264 b 1028 188 1117 207 1079 188 z "},"Ő":{"ha":1421,"x_min":0,"x_max":0,"o":"m 528 1225 l 468 1065 b 483 1040 461 1047 467 1040 l 624 1040 b 660 1065 638 1040 651 1053 l 782 1225 b 775 1250 794 1240 788 1250 l 554 1250 b 528 1225 540 1250 535 1242 z m 835 1225 l 776 1065 b 790 1040 769 1047 775 1040 l 932 1040 b 968 1065 946 1040 960 1053 l 1089 1225 b 1082 1250 1101 1240 1096 1250 l 863 1250 b 835 1225 849 1250 843 1242 z m 342 -6 l 1079 -6 b 1338 249 1251 -6 1338 90 l 1338 724 b 1079 978 1338 882 1251 978 l 342 978 b 83 724 169 978 83 882 l 83 249 b 342 -6 83 90 169 -6 z m 393 188 b 304 264 342 188 304 207 l 304 708 b 393 785 304 765 342 785 l 1028 785 b 1117 708 1079 785 1117 765 l 1117 264 b 1028 188 1117 207 1079 188 z "},"Ō":{"ha":1421,"x_min":0,"x_max":0,"o":"m 485 1061 l 935 1061 b 956 1082 947 1061 956 1068 l 956 1229 b 935 1250 956 1243 947 1250 l 485 1250 b 464 1229 471 1250 464 1243 l 464 1082 b 485 1061 464 1068 471 1061 z m 342 -6 l 1079 -6 b 1338 249 1251 -6 1338 90 l 1338 724 b 1079 978 1338 882 1251 978 l 342 978 b 83 724 169 978 83 882 l 83 249 b 342 -6 83 90 169 -6 z m 393 188 b 304 264 342 188 304 207 l 304 708 b 393 785 304 765 342 785 l 1028 785 b 1117 708 1079 785 1117 765 l 1117 264 b 1028 188 1117 207 1079 188 z "},"Ø":{"ha":1421,"x_min":0,"x_max":0,"o":"m 1079 978 l 1024 978 l 1031 996 b 1015 1019 1036 1010 1029 1019 l 846 1019 b 817 999 832 1019 822 1013 l 808 978 l 342 978 b 83 724 169 978 83 882 l 83 249 b 342 -6 83 90 169 -6 l 397 -6 l 390 -24 b 404 -46 385 -37 390 -46 l 574 -46 b 603 -25 588 -46 597 -39 l 611 -6 l 1079 -6 b 1338 249 1251 -6 1338 90 l 1338 724 b 1079 978 1338 882 1251 978 z m 393 188 b 304 264 342 188 304 207 l 304 708 b 393 785 304 765 342 785 l 728 785 l 478 188 z m 1117 264 b 1028 188 1117 207 1079 188 l 692 188 l 942 785 l 1028 785 b 1117 708 1079 785 1117 765 z "},"Õ":{"ha":1421,"x_min":0,"x_max":0,"o":"m 796 1022 b 946 1074 846 1022 890 1031 b 960 1110 957 1083 965 1093 l 914 1226 b 886 1235 910 1235 900 1242 b 799 1206 850 1215 836 1206 b 622 1257 735 1206 721 1257 b 472 1206 572 1257 528 1249 b 458 1169 461 1196 451 1188 l 504 1053 b 533 1047 508 1046 518 1038 b 618 1074 565 1067 581 1074 b 796 1022 683 1074 697 1022 z m 342 -6 l 1079 -6 b 1338 249 1251 -6 1338 90 l 1338 724 b 1079 978 1338 882 1251 978 l 342 978 b 83 724 169 978 83 882 l 83 249 b 342 -6 83 90 169 -6 z m 393 188 b 304 264 342 188 304 207 l 304 708 b 393 785 304 765 342 785 l 1028 785 b 1117 708 1079 785 1117 765 l 1117 264 b 1028 188 1117 207 1079 188 z "},"Œ":{"ha":2333,"x_min":0,"x_max":0,"o":"m 2236 193 l 1338 193 l 1338 389 l 2215 389 b 2236 410 2229 389 2236 396 l 2236 563 b 2215 583 2236 576 2229 583 l 1338 583 l 1338 779 l 2229 779 b 2250 800 2243 779 2250 786 l 2250 951 b 2229 972 2250 965 2243 972 l 1146 972 b 1079 978 1126 976 1103 978 l 342 978 b 83 724 169 978 83 882 l 83 249 b 342 -6 83 90 169 -6 l 1079 -6 b 1146 0 1103 -6 1126 -4 l 2236 0 b 2257 21 2250 0 2257 7 l 2257 172 b 2236 193 2257 186 2250 193 z m 1028 188 l 393 188 b 304 264 342 188 304 207 l 304 708 b 393 785 304 765 342 785 l 1028 785 b 1117 708 1079 785 1117 765 l 1117 264 b 1028 188 1117 207 1079 188 z "},"P":{"ha":1357,"x_min":0,"x_max":0,"o":"m 1026 972 l 113 972 b 90 950 99 972 90 964 l 90 22 b 113 0 90 8 99 0 l 290 0 b 311 22 304 0 311 8 l 311 189 l 1026 189 b 1274 442 1199 189 1274 285 l 1274 718 b 1026 972 1274 876 1199 972 z m 1053 458 b 976 382 1053 401 1028 382 l 311 382 l 311 779 l 976 779 b 1053 703 1028 779 1053 760 z "},"Þ":{"ha":1343,"x_min":0,"x_max":0,"o":"m 1013 788 l 311 788 l 311 950 b 290 972 311 964 304 972 l 113 972 b 90 950 99 972 90 964 l 90 22 b 113 0 90 8 99 0 l 290 0 b 311 22 304 0 311 8 l 311 185 l 1013 185 b 1260 439 1185 185 1260 281 l 1260 533 b 1013 788 1260 692 1185 788 z m 1039 454 b 963 378 1039 397 1014 378 l 311 378 l 311 594 l 963 594 b 1039 518 1014 594 1039 575 z "},"Q":{"ha":1421,"x_min":0,"x_max":0,"o":"m 1079 978 l 342 978 b 83 724 169 978 83 882 l 83 249 b 342 -6 83 90 169 -6 l 600 -6 l 600 -122 b 621 -144 600 -136 607 -144 l 799 -144 b 821 -122 813 -144 821 -136 l 821 -6 l 1079 -6 b 1338 249 1251 -6 1338 90 l 1338 724 b 1079 978 1338 882 1251 978 z m 1117 264 b 1028 188 1117 207 1079 188 l 393 188 b 304 264 342 188 304 207 l 304 708 b 393 785 304 765 342 785 l 1028 785 b 1117 708 1079 785 1117 765 z "},"R":{"ha":1375,"x_min":0,"x_max":0,"o":"m 1288 36 l 1133 269 b 1274 506 1231 303 1274 386 l 1274 718 b 1026 972 1274 876 1199 972 l 113 972 b 90 950 99 972 90 964 l 90 22 b 113 0 90 8 99 0 l 290 0 b 311 22 304 0 311 8 l 311 253 l 906 253 l 1061 24 b 1100 0 1072 8 1083 0 l 1261 0 b 1288 36 1285 0 1301 17 z m 311 779 l 975 779 b 1053 703 1026 779 1053 760 l 1053 522 b 975 446 1053 465 1026 446 l 311 446 z "},"Ŕ":{"ha":1375,"x_min":0,"x_max":0,"o":"m 621 1040 l 761 1040 b 797 1065 775 1040 789 1053 l 919 1225 b 913 1250 932 1240 925 1250 l 692 1250 b 665 1225 678 1250 672 1242 l 606 1065 b 621 1040 599 1047 604 1040 z m 1288 36 l 1133 269 b 1274 506 1231 303 1274 386 l 1274 718 b 1026 972 1274 876 1199 972 l 113 972 b 90 950 99 972 90 964 l 90 22 b 113 0 90 8 99 0 l 290 0 b 311 22 304 0 311 8 l 311 253 l 906 253 l 1061 24 b 1100 0 1072 8 1083 0 l 1261 0 b 1288 36 1285 0 1301 17 z m 311 779 l 975 779 b 1053 703 1026 779 1053 760 l 1053 522 b 975 446 1053 465 1026 446 l 311 446 z "},"Ř":{"ha":1375,"x_min":0,"x_max":0,"o":"m 553 1058 b 592 1039 563 1044 576 1039 l 771 1039 b 810 1058 786 1039 800 1049 l 951 1221 b 939 1250 963 1235 953 1250 l 779 1250 b 732 1221 757 1250 746 1236 l 688 1167 l 674 1167 l 629 1221 b 582 1250 617 1236 606 1250 l 424 1250 b 411 1221 410 1250 399 1235 z m 1288 36 l 1133 269 b 1274 506 1231 303 1274 386 l 1274 718 b 1026 972 1274 876 1199 972 l 113 972 b 90 950 99 972 90 964 l 90 22 b 113 0 90 8 99 0 l 290 0 b 311 22 304 0 311 8 l 311 253 l 906 253 l 1061 24 b 1100 0 1072 8 1083 0 l 1261 0 b 1288 36 1285 0 1301 17 z m 311 779 l 975 779 b 1053 703 1026 779 1053 760 l 1053 522 b 975 446 1053 465 1026 446 l 311 446 z "},"Ŗ":{"ha":1375,"x_min":0,"x_max":0,"o":"m 1288 36 l 1133 269 b 1274 506 1231 303 1274 386 l 1274 718 b 1026 972 1274 876 1199 972 l 113 972 b 90 950 99 972 90 964 l 90 22 b 113 0 90 8 99 0 l 290 0 b 311 22 304 0 311 8 l 311 253 l 906 253 l 1061 24 b 1100 0 1072 8 1083 0 l 1261 0 b 1288 36 1285 0 1301 17 z m 311 779 l 975 779 b 1053 703 1026 779 1053 760 l 1053 522 b 975 446 1053 465 1026 446 l 311 446 z m 754 -83 l 614 -83 b 592 -106 600 -83 592 -92 l 592 -364 l 522 -364 b 500 -386 508 -364 500 -372 l 500 -518 b 522 -540 500 -532 508 -540 l 718 -540 b 776 -482 756 -540 776 -519 l 776 -106 b 754 -83 776 -92 768 -83 z "},"S":{"ha":1406,"x_min":0,"x_max":0,"o":"m 1024 560 l 401 592 b 300 696 306 594 300 651 b 397 785 300 758 333 785 l 997 785 b 1083 728 1039 785 1074 767 b 1122 694 1086 707 1099 694 l 1265 694 b 1300 728 1289 694 1300 706 b 1021 978 1300 888 1221 978 l 388 978 b 83 703 183 978 83 900 b 382 413 83 532 168 424 l 1004 381 b 1106 276 1100 378 1106 321 b 1008 188 1106 214 1072 188 l 386 188 b 300 244 344 188 310 207 b 261 278 296 265 285 278 l 118 278 b 83 244 94 278 83 267 b 363 -6 83 85 163 -6 l 1018 -6 b 1322 269 1222 -6 1322 72 b 1024 560 1322 440 1238 549 z "},"Ś":{"ha":1406,"x_min":0,"x_max":0,"o":"m 674 1225 l 614 1065 b 629 1040 607 1047 613 1040 l 769 1040 b 806 1065 783 1040 797 1053 l 928 1225 b 921 1250 940 1240 933 1250 l 700 1250 b 674 1225 686 1250 681 1242 z m 1024 560 l 401 592 b 300 696 306 594 300 651 b 397 785 300 758 333 785 l 997 785 b 1083 728 1039 785 1074 767 b 1122 694 1086 707 1099 694 l 1265 694 b 1300 728 1289 694 1300 706 b 1021 978 1300 888 1221 978 l 388 978 b 83 703 183 978 83 900 b 382 413 83 532 168 424 l 1004 381 b 1106 276 1100 378 1106 321 b 1008 188 1106 214 1072 188 l 386 188 b 300 244 344 188 310 207 b 261 278 296 265 285 278 l 118 278 b 83 244 94 278 83 267 b 363 -6 83 85 163 -6 l 1018 -6 b 1322 269 1222 -6 1322 72 b 1024 560 1322 440 1238 549 z "},"Š":{"ha":1406,"x_min":0,"x_max":0,"o":"m 600 1039 l 779 1039 b 818 1058 794 1039 808 1049 l 960 1221 b 947 1250 971 1235 961 1250 l 788 1250 b 740 1221 765 1250 754 1236 l 696 1167 l 682 1167 l 638 1221 b 590 1250 625 1236 614 1250 l 432 1250 b 419 1221 418 1250 407 1235 l 561 1058 b 600 1039 571 1044 585 1039 z m 1024 560 l 401 592 b 300 696 306 594 300 651 b 397 785 300 758 333 785 l 997 785 b 1083 728 1039 785 1074 767 b 1122 694 1086 707 1099 694 l 1265 694 b 1300 728 1289 694 1300 706 b 1021 978 1300 888 1221 978 l 388 978 b 83 703 183 978 83 900 b 382 413 83 532 168 424 l 1004 381 b 1106 276 1100 378 1106 321 b 1008 188 1106 214 1072 188 l 386 188 b 300 244 344 188 310 207 b 261 278 296 265 285 278 l 118 278 b 83 244 94 278 83 267 b 363 -6 83 85 163 -6 l 1018 -6 b 1322 269 1222 -6 1322 72 b 1024 560 1322 440 1238 549 z "},"Ş":{"ha":1406,"x_min":0,"x_max":0,"o":"m 1024 560 l 401 592 b 300 696 306 594 300 651 b 397 785 300 758 333 785 l 997 785 b 1083 728 1039 785 1074 767 b 1122 694 1086 707 1099 694 l 1265 694 b 1300 728 1289 694 1300 706 b 1021 978 1300 888 1221 978 l 388 978 b 83 703 183 978 83 900 b 382 413 83 532 168 424 l 1004 381 b 1106 276 1100 378 1106 321 b 1008 188 1106 214 1072 188 l 386 188 b 300 244 344 188 310 207 b 261 278 296 265 285 278 l 118 278 b 83 244 94 278 83 267 b 363 -6 83 85 163 -6 l 639 -6 b 579 -82 597 -43 579 -54 b 635 -132 579 -117 604 -129 b 778 -161 761 -143 778 -146 b 747 -172 778 -171 761 -172 l 721 -172 b 696 -169 713 -172 701 -167 b 679 -153 693 -160 689 -153 l 551 -153 b 536 -174 539 -153 536 -161 b 660 -289 536 -242 568 -289 l 793 -289 b 936 -158 885 -289 936 -239 b 821 -29 936 -74 921 -39 b 808 -6 796 -26 764 -22 l 1018 -6 b 1322 269 1222 -6 1322 72 b 1024 560 1322 440 1238 549 z "},"Ș":{"ha":1406,"x_min":0,"x_max":0,"o":"m 1024 560 l 401 592 b 300 696 306 594 300 651 b 397 785 300 758 333 785 l 997 785 b 1083 728 1039 785 1074 767 b 1122 694 1086 707 1099 694 l 1265 694 b 1300 728 1289 694 1300 706 b 1021 978 1300 888 1221 978 l 388 978 b 83 703 183 978 83 900 b 382 413 83 532 168 424 l 1004 381 b 1106 276 1100 378 1106 321 b 1008 188 1106 214 1072 188 l 386 188 b 300 244 344 188 310 207 b 261 278 296 265 285 278 l 118 278 b 83 244 94 278 83 267 b 363 -6 83 85 163 -6 l 1018 -6 b 1322 269 1222 -6 1322 72 b 1024 560 1322 440 1238 549 z m 763 -83 l 622 -83 b 600 -106 608 -83 600 -92 l 600 -364 l 531 -364 b 508 -386 517 -364 508 -372 l 508 -518 b 531 -540 508 -532 517 -540 l 726 -540 b 785 -482 764 -540 785 -519 l 785 -106 b 763 -83 785 -92 776 -83 z "},"T":{"ha":1356,"x_min":0,"x_max":0,"o":"m 1271 972 l 85 972 b 63 950 71 972 63 964 l 63 800 b 85 779 63 786 71 779 l 569 779 l 569 22 b 592 0 569 8 578 0 l 764 0 b 786 22 778 0 786 8 l 786 779 l 1271 779 b 1293 800 1285 779 1293 786 l 1293 950 b 1271 972 1293 964 1285 972 z "},"Ŧ":{"ha":1432,"x_min":0,"x_max":0,"o":"m 1271 972 l 85 972 b 63 950 71 972 63 964 l 63 800 b 85 779 63 786 71 779 l 569 779 l 569 686 l 453 686 b 432 665 439 686 432 679 l 432 518 b 453 497 432 504 439 497 l 569 497 l 569 22 b 592 0 569 8 578 0 l 764 0 b 786 22 778 0 786 8 l 786 497 l 903 497 b 924 518 915 497 924 504 l 924 665 b 903 686 924 679 915 686 l 786 686 l 786 779 l 1271 779 b 1293 800 1285 779 1293 786 l 1293 950 b 1271 972 1293 964 1285 972 z "},"Ť":{"ha":1356,"x_min":0,"x_max":0,"o":"m 551 1058 b 590 1039 561 1044 575 1039 l 769 1039 b 808 1058 785 1039 799 1049 l 950 1221 b 938 1250 961 1235 951 1250 l 778 1250 b 731 1221 756 1250 744 1236 l 686 1167 l 672 1167 l 628 1221 b 581 1250 615 1236 604 1250 l 422 1250 b 410 1221 408 1250 397 1235 z m 1271 972 l 85 972 b 63 950 71 972 63 964 l 63 800 b 85 779 63 786 71 779 l 569 779 l 569 22 b 592 0 569 8 578 0 l 764 0 b 786 22 778 0 786 8 l 786 779 l 1271 779 b 1293 800 1285 779 1293 786 l 1293 950 b 1271 972 1293 964 1285 972 z "},"Ţ":{"ha":1356,"x_min":0,"x_max":0,"o":"m 1271 972 l 85 972 b 63 950 71 972 63 964 l 63 800 b 85 779 63 786 71 779 l 569 779 l 569 22 b 592 0 569 8 578 0 l 633 0 b 568 -82 588 -42 568 -53 b 624 -132 568 -117 593 -129 b 767 -161 750 -143 767 -146 b 736 -172 767 -171 750 -172 l 710 -172 b 685 -169 701 -172 690 -167 b 668 -153 682 -160 678 -153 l 540 -153 b 525 -174 528 -153 525 -161 b 649 -289 525 -242 557 -289 l 782 -289 b 925 -158 874 -289 925 -239 b 810 -29 925 -74 910 -39 b 814 0 782 -26 746 -21 l 764 0 b 786 22 778 0 786 8 l 786 779 l 1271 779 b 1293 800 1285 779 1293 786 l 1293 950 b 1271 972 1293 964 1285 972 z "},"Ț":{"ha":1356,"x_min":0,"x_max":0,"o":"m 1271 972 l 85 972 b 63 950 71 972 63 964 l 63 800 b 85 779 63 786 71 779 l 569 779 l 569 22 b 592 0 569 8 578 0 l 764 0 b 786 22 778 0 786 8 l 786 779 l 1271 779 b 1293 800 1285 779 1293 786 l 1293 950 b 1271 972 1293 964 1285 972 z m 751 -83 l 611 -83 b 589 -106 597 -83 589 -92 l 589 -364 l 519 -364 b 497 -386 506 -364 497 -372 l 497 -518 b 519 -540 497 -532 506 -540 l 715 -540 b 774 -482 753 -540 774 -519 l 774 -106 b 751 -83 774 -92 765 -83 z "},"U":{"ha":1435,"x_min":0,"x_max":0,"o":"m 338 0 l 1097 0 b 1344 254 1269 0 1344 96 l 1344 950 b 1322 972 1344 964 1336 972 l 1144 972 b 1124 950 1131 972 1124 964 l 1124 269 b 1046 193 1124 213 1097 193 l 389 193 b 311 269 338 193 311 213 l 311 950 b 290 972 311 964 304 972 l 113 972 b 90 950 99 972 90 964 l 90 254 b 338 0 90 96 165 0 z "},"Ú":{"ha":1435,"x_min":0,"x_max":0,"o":"m 701 1225 l 642 1065 b 657 1040 635 1047 640 1040 l 797 1040 b 833 1065 811 1040 825 1053 l 956 1225 b 949 1250 968 1240 961 1250 l 728 1250 b 701 1225 714 1250 708 1242 z m 338 0 l 1097 0 b 1344 254 1269 0 1344 96 l 1344 950 b 1322 972 1344 964 1336 972 l 1144 972 b 1124 950 1131 972 1124 964 l 1124 269 b 1046 193 1124 213 1097 193 l 389 193 b 311 269 338 193 311 213 l 311 950 b 290 972 311 964 304 972 l 113 972 b 90 950 99 972 90 964 l 90 254 b 338 0 90 96 165 0 z "},"Ŭ":{"ha":1435,"x_min":0,"x_max":0,"o":"m 667 1015 l 765 1015 b 971 1226 907 1015 971 1083 b 949 1250 971 1242 963 1250 l 821 1250 b 799 1226 807 1250 801 1242 b 733 1157 793 1192 788 1157 l 700 1157 b 635 1226 646 1157 640 1192 b 611 1250 632 1242 625 1250 l 485 1250 b 463 1226 471 1250 463 1242 b 667 1015 463 1083 525 1015 z m 338 0 l 1097 0 b 1344 254 1269 0 1344 96 l 1344 950 b 1322 972 1344 964 1336 972 l 1144 972 b 1124 950 1131 972 1124 964 l 1124 269 b 1046 193 1124 213 1097 193 l 389 193 b 311 269 338 193 311 213 l 311 950 b 290 972 311 964 304 972 l 113 972 b 90 950 99 972 90 964 l 90 254 b 338 0 90 96 165 0 z "},"Û":{"ha":1435,"x_min":0,"x_max":0,"o":"m 628 1250 b 589 1229 613 1250 599 1243 l 447 1068 b 460 1039 435 1054 446 1039 l 618 1039 b 665 1068 642 1039 653 1053 l 710 1122 l 724 1122 l 768 1068 b 815 1039 782 1053 793 1039 l 975 1039 b 988 1068 989 1039 999 1054 l 846 1229 b 807 1250 836 1240 822 1250 z m 338 0 l 1097 0 b 1344 254 1269 0 1344 96 l 1344 950 b 1322 972 1344 964 1336 972 l 1144 972 b 1124 950 1131 972 1124 964 l 1124 269 b 1046 193 1124 213 1097 193 l 389 193 b 311 269 338 193 311 213 l 311 950 b 290 972 311 964 304 972 l 113 972 b 90 950 99 972 90 964 l 90 254 b 338 0 90 96 165 0 z "},"Ü":{"ha":1435,"x_min":0,"x_max":0,"o":"m 443 1035 l 613 1035 b 636 1058 626 1035 636 1044 l 636 1228 b 613 1250 636 1242 626 1250 l 443 1250 b 421 1228 429 1250 421 1242 l 421 1058 b 443 1035 421 1044 429 1035 z m 801 1035 l 971 1035 b 993 1058 985 1035 993 1044 l 993 1228 b 971 1250 993 1242 985 1250 l 801 1250 b 778 1228 788 1250 778 1242 l 778 1058 b 801 1035 778 1044 788 1035 z m 338 0 l 1097 0 b 1344 254 1269 0 1344 96 l 1344 950 b 1322 972 1344 964 1336 972 l 1144 972 b 1124 950 1131 972 1124 964 l 1124 269 b 1046 193 1124 213 1097 193 l 389 193 b 311 269 338 193 311 213 l 311 950 b 290 972 311 964 304 972 l 113 972 b 90 950 99 972 90 964 l 90 254 b 338 0 90 96 165 0 z "},"Ù":{"ha":1435,"x_min":0,"x_max":0,"o":"m 735 1225 b 706 1250 728 1242 719 1250 l 496 1250 b 482 1225 481 1250 469 1240 l 604 1067 b 639 1040 613 1054 625 1040 l 781 1040 b 796 1065 796 1040 803 1047 z m 338 0 l 1097 0 b 1344 254 1269 0 1344 96 l 1344 950 b 1322 972 1344 964 1336 972 l 1144 972 b 1124 950 1131 972 1124 964 l 1124 269 b 1046 193 1124 213 1097 193 l 389 193 b 311 269 338 193 311 213 l 311 950 b 290 972 311 964 304 972 l 113 972 b 90 950 99 972 90 964 l 90 254 b 338 0 90 96 165 0 z "},"Ű":{"ha":1435,"x_min":0,"x_max":0,"o":"m 535 1225 l 475 1065 b 490 1040 468 1047 474 1040 l 631 1040 b 667 1065 644 1040 658 1053 l 789 1225 b 782 1250 801 1240 794 1250 l 561 1250 b 535 1225 547 1250 542 1242 z m 842 1225 l 783 1065 b 797 1040 776 1047 782 1040 l 939 1040 b 975 1065 953 1040 967 1053 l 1096 1225 b 1089 1250 1108 1240 1103 1250 l 869 1250 b 842 1225 856 1250 850 1242 z m 338 0 l 1097 0 b 1344 254 1269 0 1344 96 l 1344 950 b 1322 972 1344 964 1336 972 l 1144 972 b 1124 950 1131 972 1124 964 l 1124 269 b 1046 193 1124 213 1097 193 l 389 193 b 311 269 338 193 311 213 l 311 950 b 290 972 311 964 304 972 l 113 972 b 90 950 99 972 90 964 l 90 254 b 338 0 90 96 165 0 z "},"Ū":{"ha":1435,"x_min":0,"x_max":0,"o":"m 492 1061 l 942 1061 b 963 1082 954 1061 963 1068 l 963 1229 b 942 1250 963 1243 954 1250 l 492 1250 b 471 1229 478 1250 471 1243 l 471 1082 b 492 1061 471 1068 478 1061 z m 338 0 l 1097 0 b 1344 254 1269 0 1344 96 l 1344 950 b 1322 972 1344 964 1336 972 l 1144 972 b 1124 950 1131 972 1124 964 l 1124 269 b 1046 193 1124 213 1097 193 l 389 193 b 311 269 338 193 311 213 l 311 950 b 290 972 311 964 304 972 l 113 972 b 90 950 99 972 90 964 l 90 254 b 338 0 90 96 165 0 z "},"Ų":{"ha":1435,"x_min":0,"x_max":0,"o":"m 1322 972 l 1144 972 b 1124 950 1131 972 1124 964 l 1124 269 b 1046 193 1124 213 1097 193 l 389 193 b 311 269 338 193 311 213 l 311 950 b 290 972 311 964 304 972 l 113 972 b 90 950 99 972 90 964 l 90 254 b 338 0 90 96 165 0 l 699 0 b 658 -8 690 -7 676 -7 l 610 -12 b 515 -137 536 -19 515 -43 b 667 -269 515 -253 549 -269 l 881 -269 b 894 -256 890 -269 894 -264 l 894 -153 b 881 -135 894 -143 889 -135 l 706 -135 b 704 -135 707 -135 704 -132 b 714 -128 704 -132 707 -128 l 807 -117 b 919 -35 879 -107 919 -106 l 919 0 l 1097 0 b 1344 254 1269 0 1344 96 l 1344 950 b 1322 972 1344 964 1336 972 z "},"Ů":{"ha":1435,"x_min":0,"x_max":0,"o":"m 725 1272 l 707 1272 b 590 1156 639 1272 590 1221 l 590 1140 b 707 1025 590 1075 639 1025 l 725 1025 b 842 1140 793 1025 842 1075 l 842 1156 b 725 1272 842 1221 793 1272 z m 738 1154 l 738 1146 b 722 1131 738 1139 731 1131 l 710 1131 b 697 1146 704 1131 697 1139 l 697 1154 b 710 1167 697 1158 704 1167 l 722 1167 b 738 1154 731 1167 738 1158 z m 338 0 l 1097 0 b 1344 254 1269 0 1344 96 l 1344 950 b 1322 972 1344 964 1336 972 l 1144 972 b 1124 950 1131 972 1124 964 l 1124 269 b 1046 193 1124 213 1097 193 l 389 193 b 311 269 338 193 311 213 l 311 950 b 290 972 311 964 304 972 l 113 972 b 90 950 99 972 90 964 l 90 254 b 338 0 90 96 165 0 z "},"Ũ":{"ha":1435,"x_min":0,"x_max":0,"o":"m 803 1022 b 953 1074 853 1022 897 1031 b 967 1110 964 1083 972 1093 l 921 1226 b 893 1235 917 1235 907 1242 b 806 1206 857 1215 843 1206 b 629 1257 742 1206 728 1257 b 479 1206 579 1257 535 1249 b 465 1169 468 1196 458 1188 l 511 1053 b 540 1047 515 1046 525 1038 b 625 1074 572 1067 588 1074 b 803 1022 690 1074 704 1022 z m 338 0 l 1097 0 b 1344 254 1269 0 1344 96 l 1344 950 b 1322 972 1344 964 1336 972 l 1144 972 b 1124 950 1131 972 1124 964 l 1124 269 b 1046 193 1124 213 1097 193 l 389 193 b 311 269 338 193 311 213 l 311 950 b 290 972 311 964 304 972 l 113 972 b 90 950 99 972 90 964 l 90 254 b 338 0 90 96 165 0 z "},"V":{"ha":1556,"x_min":0,"x_max":0,"o":"m 685 0 l 871 0 b 903 22 886 0 894 8 l 1496 943 b 1485 972 1508 961 1499 972 l 1278 972 b 1244 947 1261 972 1254 963 l 788 235 l 769 235 l 311 947 b 279 972 301 963 294 972 l 71 972 b 60 943 57 972 47 961 l 654 22 b 685 0 663 8 669 0 z "},"W":{"ha":2564,"x_min":0,"x_max":0,"o":"m 617 0 l 799 0 b 829 22 813 0 821 8 l 1282 749 l 1735 22 b 1765 0 1743 8 1751 0 l 1947 0 b 1979 22 1963 0 1971 8 l 2504 943 b 2493 972 2514 961 2507 972 l 2288 972 b 2256 947 2271 972 2263 963 l 1863 256 l 1844 256 l 1410 947 b 1378 972 1400 963 1394 972 l 1186 972 b 1154 947 1169 972 1164 963 l 719 256 l 701 256 l 308 947 b 276 972 301 963 293 972 l 71 972 b 60 943 57 972 50 961 l 585 22 b 617 0 593 8 601 0 z "},"Ẃ":{"ha":2564,"x_min":0,"x_max":0,"o":"m 1267 1225 l 1207 1065 b 1222 1040 1200 1047 1206 1040 l 1363 1040 b 1399 1065 1376 1040 1390 1053 l 1521 1225 b 1514 1250 1533 1240 1526 1250 l 1293 1250 b 1267 1225 1279 1250 1274 1242 z m 617 0 l 799 0 b 829 22 813 0 821 8 l 1282 749 l 1735 22 b 1765 0 1743 8 1751 0 l 1947 0 b 1979 22 1963 0 1971 8 l 2504 943 b 2493 972 2514 961 2507 972 l 2288 972 b 2256 947 2271 972 2263 963 l 1863 256 l 1844 256 l 1410 947 b 1378 972 1400 963 1394 972 l 1186 972 b 1154 947 1169 972 1164 963 l 719 256 l 701 256 l 308 947 b 276 972 301 963 293 972 l 71 972 b 60 943 57 972 50 961 l 585 22 b 617 0 593 8 601 0 z "},"Ŵ":{"ha":2564,"x_min":0,"x_max":0,"o":"m 1193 1250 b 1154 1229 1178 1250 1164 1243 l 1013 1068 b 1025 1039 1000 1054 1011 1039 l 1183 1039 b 1231 1068 1207 1039 1218 1053 l 1275 1122 l 1289 1122 l 1333 1068 b 1381 1039 1347 1053 1358 1039 l 1540 1039 b 1553 1068 1554 1039 1564 1054 l 1411 1229 b 1372 1250 1401 1240 1388 1250 z m 617 0 l 799 0 b 829 22 813 0 821 8 l 1282 749 l 1735 22 b 1765 0 1743 8 1751 0 l 1947 0 b 1979 22 1963 0 1971 8 l 2504 943 b 2493 972 2514 961 2507 972 l 2288 972 b 2256 947 2271 972 2263 963 l 1863 256 l 1844 256 l 1410 947 b 1378 972 1400 963 1394 972 l 1186 972 b 1154 947 1169 972 1164 963 l 719 256 l 701 256 l 308 947 b 276 972 301 963 293 972 l 71 972 b 60 943 57 972 50 961 l 585 22 b 617 0 593 8 601 0 z "},"Ẅ":{"ha":2564,"x_min":0,"x_max":0,"o":"m 1008 1035 l 1178 1035 b 1201 1058 1192 1035 1201 1044 l 1201 1228 b 1178 1250 1201 1242 1192 1250 l 1008 1250 b 986 1228 994 1250 986 1242 l 986 1058 b 1008 1035 986 1044 994 1035 z m 1367 1035 l 1536 1035 b 1558 1058 1550 1035 1558 1044 l 1558 1228 b 1536 1250 1558 1242 1550 1250 l 1367 1250 b 1343 1228 1353 1250 1343 1242 l 1343 1058 b 1367 1035 1343 1044 1353 1035 z m 617 0 l 799 0 b 829 22 813 0 821 8 l 1282 749 l 1735 22 b 1765 0 1743 8 1751 0 l 1947 0 b 1979 22 1963 0 1971 8 l 2504 943 b 2493 972 2514 961 2507 972 l 2288 972 b 2256 947 2271 972 2263 963 l 1863 256 l 1844 256 l 1410 947 b 1378 972 1400 963 1394 972 l 1186 972 b 1154 947 1169 972 1164 963 l 719 256 l 701 256 l 308 947 b 276 972 301 963 293 972 l 71 972 b 60 943 57 972 50 961 l 585 22 b 617 0 593 8 601 0 z "},"Ẁ":{"ha":2564,"x_min":0,"x_max":0,"o":"m 1300 1225 b 1271 1250 1293 1242 1285 1250 l 1061 1250 b 1047 1225 1046 1250 1035 1240 l 1169 1067 b 1204 1040 1178 1054 1190 1040 l 1346 1040 b 1361 1065 1361 1040 1368 1047 z m 617 0 l 799 0 b 829 22 813 0 821 8 l 1282 749 l 1735 22 b 1765 0 1743 8 1751 0 l 1947 0 b 1979 22 1963 0 1971 8 l 2504 943 b 2493 972 2514 961 2507 972 l 2288 972 b 2256 947 2271 972 2263 963 l 1863 256 l 1844 256 l 1410 947 b 1378 972 1400 963 1394 972 l 1186 972 b 1154 947 1169 972 1164 963 l 719 256 l 701 256 l 308 947 b 276 972 301 963 293 972 l 71 972 b 60 943 57 972 50 961 l 585 22 b 617 0 593 8 601 0 z "},"X":{"ha":1414,"x_min":0,"x_max":0,"o":"m 1344 38 l 854 486 l 1344 935 b 1335 972 1374 961 1351 972 l 1107 972 b 1065 951 1093 972 1083 968 l 707 621 l 346 951 b 306 972 331 965 318 972 l 78 972 b 71 935 61 972 40 961 l 560 486 l 71 38 b 78 0 40 11 61 0 l 306 0 b 346 24 318 0 331 10 l 707 353 l 1065 24 b 1107 0 1083 7 1096 0 l 1336 0 b 1344 38 1353 0 1374 11 z "},"Y":{"ha":1381,"x_min":0,"x_max":0,"o":"m 1304 972 l 1107 972 b 1067 951 1089 972 1079 964 l 699 538 l 682 538 l 314 951 b 274 972 301 964 292 972 l 76 972 b 63 946 61 972 46 961 l 582 367 l 582 22 b 604 0 582 8 590 0 l 776 0 b 799 22 790 0 799 8 l 799 367 l 1318 946 b 1304 972 1335 961 1319 972 z "},"Ý":{"ha":1381,"x_min":0,"x_max":0,"o":"m 675 1225 l 615 1065 b 631 1040 608 1047 614 1040 l 771 1040 b 807 1065 785 1040 799 1053 l 929 1225 b 922 1250 942 1240 935 1250 l 701 1250 b 675 1225 688 1250 682 1242 z m 1304 972 l 1107 972 b 1067 951 1089 972 1079 964 l 699 538 l 682 538 l 314 951 b 274 972 301 964 292 972 l 76 972 b 63 946 61 972 46 961 l 582 367 l 582 22 b 604 0 582 8 590 0 l 776 0 b 799 22 790 0 799 8 l 799 367 l 1318 946 b 1304 972 1335 961 1319 972 z "},"Ŷ":{"ha":1381,"x_min":0,"x_max":0,"o":"m 601 1250 b 563 1229 586 1250 572 1243 l 421 1068 b 433 1039 408 1054 419 1039 l 592 1039 b 639 1068 615 1039 626 1053 l 683 1122 l 697 1122 l 742 1068 b 789 1039 756 1053 767 1039 l 949 1039 b 961 1068 963 1039 972 1054 l 819 1229 b 781 1250 810 1240 796 1250 z m 1304 972 l 1107 972 b 1067 951 1089 972 1079 964 l 699 538 l 682 538 l 314 951 b 274 972 301 964 292 972 l 76 972 b 63 946 61 972 46 961 l 582 367 l 582 22 b 604 0 582 8 590 0 l 776 0 b 799 22 790 0 799 8 l 799 367 l 1318 946 b 1304 972 1335 961 1319 972 z "},"Ÿ":{"ha":1381,"x_min":0,"x_max":0,"o":"m 417 1035 l 586 1035 b 610 1058 600 1035 610 1044 l 610 1228 b 586 1250 610 1242 600 1250 l 417 1250 b 394 1228 403 1250 394 1242 l 394 1058 b 417 1035 394 1044 403 1035 z m 775 1035 l 944 1035 b 967 1058 958 1035 967 1044 l 967 1228 b 944 1250 967 1242 958 1250 l 775 1250 b 751 1228 761 1250 751 1242 l 751 1058 b 775 1035 751 1044 761 1035 z m 1304 972 l 1107 972 b 1067 951 1089 972 1079 964 l 699 538 l 682 538 l 314 951 b 274 972 301 964 292 972 l 76 972 b 63 946 61 972 46 961 l 582 367 l 582 22 b 604 0 582 8 590 0 l 776 0 b 799 22 790 0 799 8 l 799 367 l 1318 946 b 1304 972 1335 961 1319 972 z "},"Ỳ":{"ha":1381,"x_min":0,"x_max":0,"o":"m 708 1225 b 679 1250 701 1242 693 1250 l 469 1250 b 456 1225 454 1250 443 1240 l 578 1067 b 613 1040 586 1054 599 1040 l 754 1040 b 769 1065 769 1040 776 1047 z m 1304 972 l 1107 972 b 1067 951 1089 972 1079 964 l 699 538 l 682 538 l 314 951 b 274 972 301 964 292 972 l 76 972 b 63 946 61 972 46 961 l 582 367 l 582 22 b 604 0 582 8 590 0 l 776 0 b 799 22 790 0 799 8 l 799 367 l 1318 946 b 1304 972 1335 961 1319 972 z "},"Z":{"ha":1264,"x_min":0,"x_max":0,"o":"m 92 0 l 1172 0 b 1194 22 1186 0 1194 8 l 1194 172 b 1172 193 1194 186 1186 193 l 389 193 l 389 208 l 1176 753 b 1193 790 1194 767 1193 782 l 1193 950 b 1171 972 1193 964 1185 972 l 90 972 b 68 950 76 972 68 964 l 68 800 b 90 779 68 786 76 779 l 874 779 l 874 764 l 86 219 b 69 182 68 206 69 190 l 69 22 b 92 0 69 8 78 0 z "},"Ź":{"ha":1264,"x_min":0,"x_max":0,"o":"m 618 1225 l 558 1065 b 574 1040 551 1047 557 1040 l 714 1040 b 750 1065 728 1040 742 1053 l 872 1225 b 865 1250 885 1240 878 1250 l 644 1250 b 618 1225 631 1250 625 1242 z m 92 0 l 1172 0 b 1194 22 1186 0 1194 8 l 1194 172 b 1172 193 1194 186 1186 193 l 389 193 l 389 208 l 1176 753 b 1193 790 1194 767 1193 782 l 1193 950 b 1171 972 1193 964 1185 972 l 90 972 b 68 950 76 972 68 964 l 68 800 b 90 779 68 786 76 779 l 874 779 l 874 764 l 86 219 b 69 182 68 206 69 190 l 69 22 b 92 0 69 8 78 0 z "},"Ž":{"ha":1264,"x_min":0,"x_max":0,"o":"m 544 1039 l 724 1039 b 763 1058 739 1039 753 1049 l 904 1221 b 892 1250 915 1235 906 1250 l 732 1250 b 685 1221 710 1250 699 1236 l 640 1167 l 626 1167 l 582 1221 b 535 1250 569 1236 558 1250 l 376 1250 b 364 1221 363 1250 351 1235 l 506 1058 b 544 1039 515 1044 529 1039 z m 92 0 l 1172 0 b 1194 22 1186 0 1194 8 l 1194 172 b 1172 193 1194 186 1186 193 l 389 193 l 389 208 l 1176 753 b 1193 790 1194 767 1193 782 l 1193 950 b 1171 972 1193 964 1185 972 l 90 972 b 68 950 76 972 68 964 l 68 800 b 90 779 68 786 76 779 l 874 779 l 874 764 l 86 219 b 69 182 68 206 69 190 l 69 22 b 92 0 69 8 78 0 z "},"Ż":{"ha":1264,"x_min":0,"x_max":0,"o":"m 549 1035 l 718 1035 b 742 1058 732 1035 742 1044 l 742 1228 b 718 1250 742 1242 732 1250 l 549 1250 b 526 1228 535 1250 526 1242 l 526 1058 b 549 1035 526 1044 535 1035 z m 92 0 l 1172 0 b 1194 22 1186 0 1194 8 l 1194 172 b 1172 193 1194 186 1186 193 l 389 193 l 389 208 l 1176 753 b 1193 790 1194 767 1193 782 l 1193 950 b 1171 972 1193 964 1185 972 l 90 972 b 68 950 76 972 68 964 l 68 800 b 90 779 68 786 76 779 l 874 779 l 874 764 l 86 219 b 69 182 68 206 69 190 l 69 22 b 92 0 69 8 78 0 z "},"a":{"ha":1044,"x_min":0,"x_max":0,"o":"m 276 -7 l 567 -7 b 750 90 667 -7 714 38 l 764 90 l 764 22 b 785 0 764 8 771 0 l 953 0 b 975 22 967 0 975 8 l 975 472 b 707 700 975 625 885 700 l 318 700 b 90 510 167 700 90 644 b 133 467 90 482 101 467 l 269 467 b 303 492 289 467 297 476 b 371 515 317 510 347 515 l 671 515 b 764 465 725 515 764 515 l 764 421 l 274 421 b 42 217 104 421 42 358 b 276 -7 42 74 135 -7 z m 282 181 b 251 219 268 181 251 189 b 282 261 251 254 268 261 l 764 261 l 764 232 b 708 181 764 217 790 181 z "},"á":{"ha":1044,"x_min":0,"x_max":0,"o":"m 499 947 l 439 788 b 454 763 432 769 438 763 l 594 763 b 631 788 608 763 622 775 l 753 947 b 746 972 765 963 758 972 l 525 972 b 499 947 511 972 506 964 z m 276 -7 l 567 -7 b 750 90 667 -7 714 38 l 764 90 l 764 22 b 785 0 764 8 771 0 l 953 0 b 975 22 967 0 975 8 l 975 472 b 707 700 975 625 885 700 l 318 700 b 90 510 167 700 90 644 b 133 467 90 482 101 467 l 269 467 b 303 492 289 467 297 476 b 371 515 317 510 347 515 l 671 515 b 764 465 725 515 764 515 l 764 421 l 274 421 b 42 217 104 421 42 358 b 276 -7 42 74 135 -7 z m 282 181 b 251 219 268 181 251 189 b 282 261 251 254 268 261 l 764 261 l 764 232 b 708 181 764 217 790 181 z "},"ă":{"ha":1044,"x_min":0,"x_max":0,"o":"m 464 738 l 563 738 b 768 949 704 738 768 806 b 746 972 768 964 760 972 l 618 972 b 596 949 604 972 599 964 b 531 879 590 914 585 879 l 497 879 b 432 949 443 879 438 914 b 408 972 429 964 422 972 l 282 972 b 260 949 268 972 260 964 b 464 738 260 806 322 738 z m 276 -7 l 567 -7 b 750 90 667 -7 714 38 l 764 90 l 764 22 b 785 0 764 8 771 0 l 953 0 b 975 22 967 0 975 8 l 975 472 b 707 700 975 625 885 700 l 318 700 b 90 510 167 700 90 644 b 133 467 90 482 101 467 l 269 467 b 303 492 289 467 297 476 b 371 515 317 510 347 515 l 671 515 b 764 465 725 515 764 515 l 764 421 l 274 421 b 42 217 104 421 42 358 b 276 -7 42 74 135 -7 z m 282 181 b 251 219 268 181 251 189 b 282 261 251 254 268 261 l 764 261 l 764 232 b 708 181 764 217 790 181 z "},"ǎ":{"ha":1044,"x_min":0,"x_max":0,"o":"m 425 761 l 604 761 b 643 781 619 761 633 771 l 785 943 b 772 972 796 957 786 972 l 613 972 b 565 943 590 972 579 958 l 521 889 l 507 889 l 463 943 b 415 972 450 958 439 972 l 257 972 b 244 943 243 972 232 957 l 386 781 b 425 761 396 767 410 761 z m 276 -7 l 567 -7 b 750 90 667 -7 714 38 l 764 90 l 764 22 b 785 0 764 8 771 0 l 953 0 b 975 22 967 0 975 8 l 975 472 b 707 700 975 625 885 700 l 318 700 b 90 510 167 700 90 644 b 133 467 90 482 101 467 l 269 467 b 303 492 289 467 297 476 b 371 515 317 510 347 515 l 671 515 b 764 465 725 515 764 515 l 764 421 l 274 421 b 42 217 104 421 42 358 b 276 -7 42 74 135 -7 z m 282 181 b 251 219 268 181 251 189 b 282 261 251 254 268 261 l 764 261 l 764 232 b 708 181 764 217 790 181 z "},"â":{"ha":1044,"x_min":0,"x_max":0,"o":"m 425 972 b 386 951 410 972 396 965 l 244 790 b 257 761 232 776 243 761 l 415 761 b 463 790 439 761 450 775 l 507 844 l 521 844 l 565 790 b 613 761 579 775 590 761 l 772 761 b 785 790 786 761 796 776 l 643 951 b 604 972 633 963 619 972 z m 276 -7 l 567 -7 b 750 90 667 -7 714 38 l 764 90 l 764 22 b 785 0 764 8 771 0 l 953 0 b 975 22 967 0 975 8 l 975 472 b 707 700 975 625 885 700 l 318 700 b 90 510 167 700 90 644 b 133 467 90 482 101 467 l 269 467 b 303 492 289 467 297 476 b 371 515 317 510 347 515 l 671 515 b 764 465 725 515 764 515 l 764 421 l 274 421 b 42 217 104 421 42 358 b 276 -7 42 74 135 -7 z m 282 181 b 251 219 268 181 251 189 b 282 261 251 254 268 261 l 764 261 l 764 232 b 708 181 764 217 790 181 z "},"ä":{"ha":1044,"x_min":0,"x_max":0,"o":"m 240 757 l 410 757 b 433 781 424 757 433 767 l 433 950 b 410 972 433 964 424 972 l 240 972 b 218 950 226 972 218 964 l 218 781 b 240 757 218 767 226 757 z m 599 757 l 768 757 b 790 781 782 757 790 767 l 790 950 b 768 972 790 964 782 972 l 599 972 b 575 950 585 972 575 964 l 575 781 b 599 757 575 767 585 757 z m 276 -7 l 567 -7 b 750 90 667 -7 714 38 l 764 90 l 764 22 b 785 0 764 8 771 0 l 953 0 b 975 22 967 0 975 8 l 975 472 b 707 700 975 625 885 700 l 318 700 b 90 510 167 700 90 644 b 133 467 90 482 101 467 l 269 467 b 303 492 289 467 297 476 b 371 515 317 510 347 515 l 671 515 b 764 465 725 515 764 515 l 764 421 l 274 421 b 42 217 104 421 42 358 b 276 -7 42 74 135 -7 z m 282 181 b 251 219 268 181 251 189 b 282 261 251 254 268 261 l 764 261 l 764 232 b 708 181 764 217 790 181 z "},"à":{"ha":1044,"x_min":0,"x_max":0,"o":"m 532 947 b 503 972 525 964 517 972 l 293 972 b 279 947 278 972 267 963 l 401 789 b 436 763 410 776 422 763 l 578 763 b 593 788 593 763 600 769 z m 276 -7 l 567 -7 b 750 90 667 -7 714 38 l 764 90 l 764 22 b 785 0 764 8 771 0 l 953 0 b 975 22 967 0 975 8 l 975 472 b 707 700 975 625 885 700 l 318 700 b 90 510 167 700 90 644 b 133 467 90 482 101 467 l 269 467 b 303 492 289 467 297 476 b 371 515 317 510 347 515 l 671 515 b 764 465 725 515 764 515 l 764 421 l 274 421 b 42 217 104 421 42 358 b 276 -7 42 74 135 -7 z m 282 181 b 251 219 268 181 251 189 b 282 261 251 254 268 261 l 764 261 l 764 232 b 708 181 764 217 790 181 z "},"ā":{"ha":1044,"x_min":0,"x_max":0,"o":"m 289 783 l 739 783 b 760 804 751 783 760 790 l 760 951 b 739 972 760 965 751 972 l 289 972 b 268 951 275 972 268 965 l 268 804 b 289 783 268 790 275 783 z m 276 -7 l 567 -7 b 750 90 667 -7 714 38 l 764 90 l 764 22 b 785 0 764 8 771 0 l 953 0 b 975 22 967 0 975 8 l 975 472 b 707 700 975 625 885 700 l 318 700 b 90 510 167 700 90 644 b 133 467 90 482 101 467 l 269 467 b 303 492 289 467 297 476 b 371 515 317 510 347 515 l 671 515 b 764 465 725 515 764 515 l 764 421 l 274 421 b 42 217 104 421 42 358 b 276 -7 42 74 135 -7 z m 282 181 b 251 219 268 181 251 189 b 282 261 251 254 268 261 l 764 261 l 764 232 b 708 181 764 217 790 181 z "},"ą":{"ha":1044,"x_min":0,"x_max":0,"o":"m 707 700 l 318 700 b 90 510 167 700 90 644 b 133 467 90 482 101 467 l 269 467 b 303 492 289 467 297 476 b 371 515 317 510 347 515 l 671 515 b 764 465 725 515 764 515 l 764 421 l 274 421 b 42 217 104 421 42 358 b 276 -7 42 74 135 -7 l 567 -7 b 750 90 667 -7 714 38 l 764 90 l 764 19 b 715 -14 764 -15 743 -11 l 667 -18 b 572 -143 593 -25 572 -49 b 722 -275 572 -258 606 -275 l 938 -275 b 951 -261 947 -275 951 -269 l 951 -158 b 938 -140 951 -149 946 -140 l 761 -140 b 771 -133 761 -139 761 -133 l 864 -122 b 975 -40 936 -112 975 -111 l 975 472 b 707 700 975 625 885 700 z m 708 181 l 282 181 b 251 219 268 181 251 189 b 282 261 251 254 268 261 l 764 261 l 764 232 b 708 181 764 217 790 181 z "},"å":{"ha":1044,"x_min":0,"x_max":0,"o":"m 522 994 l 504 994 b 388 878 436 994 388 943 l 388 863 b 504 747 388 797 436 747 l 522 747 b 639 863 590 747 639 797 l 639 878 b 522 994 639 943 590 994 z m 535 876 l 535 868 b 519 853 535 861 528 853 l 507 853 b 494 868 501 853 494 861 l 494 876 b 507 889 494 881 501 889 l 519 889 b 535 876 528 889 535 881 z m 276 -7 l 567 -7 b 750 90 667 -7 714 38 l 764 90 l 764 22 b 785 0 764 8 771 0 l 953 0 b 975 22 967 0 975 8 l 975 472 b 707 700 975 625 885 700 l 318 700 b 90 510 167 700 90 644 b 133 467 90 482 101 467 l 269 467 b 303 492 289 467 297 476 b 371 515 317 510 347 515 l 671 515 b 764 465 725 515 764 515 l 764 421 l 274 421 b 42 217 104 421 42 358 b 276 -7 42 74 135 -7 z m 282 181 b 251 219 268 181 251 189 b 282 261 251 254 268 261 l 764 261 l 764 232 b 708 181 764 217 790 181 z "},"ã":{"ha":1044,"x_min":0,"x_max":0,"o":"m 600 744 b 750 796 650 744 694 753 b 764 832 761 806 769 815 l 718 949 b 690 957 714 957 704 964 b 603 928 654 938 640 928 b 426 979 539 928 525 979 b 276 928 376 979 332 971 b 263 892 265 918 256 910 l 308 775 b 338 769 313 768 322 760 b 422 796 369 789 385 796 b 600 744 488 796 501 744 z m 276 -7 l 567 -7 b 750 90 667 -7 714 38 l 764 90 l 764 22 b 785 0 764 8 771 0 l 953 0 b 975 22 967 0 975 8 l 975 472 b 707 700 975 625 885 700 l 318 700 b 90 510 167 700 90 644 b 133 467 90 482 101 467 l 269 467 b 303 492 289 467 297 476 b 371 515 317 510 347 515 l 671 515 b 764 465 725 515 764 515 l 764 421 l 274 421 b 42 217 104 421 42 358 b 276 -7 42 74 135 -7 z m 282 181 b 251 219 268 181 251 189 b 282 261 251 254 268 261 l 764 261 l 764 232 b 708 181 764 217 790 181 z "},"æ":{"ha":1724,"x_min":0,"x_max":0,"o":"m 1561 272 b 1661 372 1625 272 1661 310 l 1661 468 b 1422 700 1661 610 1571 700 l 1001 700 b 864 665 947 700 900 688 b 707 700 828 689 776 700 l 317 700 b 90 514 165 700 90 647 b 133 471 90 486 101 471 l 269 471 b 303 496 289 471 297 481 b 371 517 317 513 347 517 l 671 515 b 764 465 725 515 764 515 l 764 421 l 274 421 b 42 217 104 421 42 358 b 276 -7 42 74 135 -7 l 622 -7 b 800 82 719 -7 764 33 l 807 82 b 1001 -7 847 26 914 -7 l 1368 -7 b 1649 128 1525 -7 1594 29 b 1635 167 1657 143 1657 157 l 1578 193 b 1521 201 1554 204 1538 206 b 1357 178 1446 179 1440 178 l 1035 178 b 975 226 1000 178 975 199 l 975 272 z m 1035 513 l 1389 513 b 1449 465 1425 513 1449 493 l 1449 418 l 975 418 l 975 465 b 1035 513 975 493 1000 513 z m 708 181 l 282 181 b 251 219 268 181 251 189 b 282 261 251 254 268 261 l 764 261 l 764 229 b 765 197 764 218 764 208 b 708 181 760 188 746 181 z "},"b":{"ha":1050,"x_min":0,"x_max":0,"o":"m 750 -7 b 988 228 899 -7 988 86 l 988 468 b 750 700 988 610 899 700 l 453 700 b 296 632 353 700 331 676 l 281 632 l 281 950 b 261 972 281 964 269 972 l 92 972 b 69 950 78 972 69 964 l 69 22 b 92 0 69 8 78 0 l 260 0 b 281 22 274 0 281 8 l 281 61 l 296 61 b 453 -7 331 17 353 -7 z m 724 181 l 315 181 b 281 229 301 181 281 200 l 281 465 b 315 513 281 493 301 513 l 724 513 b 775 465 751 513 775 493 l 775 229 b 724 181 775 200 751 181 z "},"c":{"ha":1015,"x_min":0,"x_max":0,"o":"m 300 -7 l 668 -7 b 947 128 825 -7 894 29 b 933 167 956 143 957 157 l 876 193 b 821 201 853 204 838 206 b 657 178 746 179 739 178 l 335 178 b 274 226 299 178 274 199 l 274 465 b 335 513 274 493 299 513 l 696 513 b 753 465 736 513 753 500 l 753 431 b 783 407 753 414 765 407 l 929 407 b 960 436 947 407 960 415 l 960 469 b 726 700 960 614 896 700 l 300 700 b 63 467 151 700 63 608 l 63 229 b 300 -7 63 88 151 -7 z "},"ć":{"ha":1015,"x_min":0,"x_max":0,"o":"m 493 947 l 433 788 b 449 763 426 769 432 763 l 589 763 b 625 788 603 763 617 775 l 747 947 b 740 972 760 963 753 972 l 519 972 b 493 947 506 972 500 964 z m 300 -7 l 668 -7 b 947 128 825 -7 894 29 b 933 167 956 143 957 157 l 876 193 b 821 201 853 204 838 206 b 657 178 746 179 739 178 l 335 178 b 274 226 299 178 274 199 l 274 465 b 335 513 274 493 299 513 l 696 513 b 753 465 736 513 753 500 l 753 431 b 783 407 753 414 765 407 l 929 407 b 960 436 947 407 960 415 l 960 469 b 726 700 960 614 896 700 l 300 700 b 63 467 151 700 63 608 l 63 229 b 300 -7 63 88 151 -7 z "},"č":{"ha":1015,"x_min":0,"x_max":0,"o":"m 419 761 l 599 761 b 638 781 614 761 628 771 l 779 943 b 767 972 790 957 781 972 l 607 972 b 560 943 585 972 574 958 l 515 889 l 501 889 l 457 943 b 410 972 444 958 433 972 l 251 972 b 239 943 238 972 226 957 l 381 781 b 419 761 390 767 404 761 z m 300 -7 l 668 -7 b 947 128 825 -7 894 29 b 933 167 956 143 957 157 l 876 193 b 821 201 853 204 838 206 b 657 178 746 179 739 178 l 335 178 b 274 226 299 178 274 199 l 274 465 b 335 513 274 493 299 513 l 696 513 b 753 465 736 513 753 500 l 753 431 b 783 407 753 414 765 407 l 929 407 b 960 436 947 407 960 415 l 960 469 b 726 700 960 614 896 700 l 300 700 b 63 467 151 700 63 608 l 63 229 b 300 -7 63 88 151 -7 z "},"ç":{"ha":1015,"x_min":0,"x_max":0,"o":"m 783 407 l 929 407 b 960 436 947 407 960 415 l 960 469 b 726 700 960 614 896 700 l 300 700 b 63 467 151 700 63 608 l 63 229 b 300 -7 63 88 151 -7 l 454 -7 b 397 -82 414 -43 397 -54 b 453 -132 397 -117 422 -129 b 596 -161 579 -143 596 -146 b 565 -172 596 -171 579 -172 l 539 -172 b 514 -169 531 -172 519 -167 b 497 -153 511 -160 507 -153 l 369 -153 b 354 -174 357 -153 354 -161 b 478 -289 354 -242 386 -289 l 611 -289 b 754 -158 703 -289 754 -239 b 639 -29 754 -74 739 -39 b 622 -7 614 -26 583 -22 l 668 -7 b 947 128 825 -7 894 29 b 933 167 956 143 957 157 l 876 193 b 821 201 853 204 838 206 b 657 178 746 179 739 178 l 335 178 b 274 226 299 178 274 199 l 274 465 b 335 513 274 493 299 513 l 696 513 b 753 465 736 513 753 500 l 753 431 b 783 407 753 414 765 407 z "},"ċ":{"ha":1015,"x_min":0,"x_max":0,"o":"m 422 757 l 592 757 b 615 781 606 757 615 767 l 615 950 b 592 972 615 964 606 972 l 422 972 b 400 950 408 972 400 964 l 400 781 b 422 757 400 767 408 757 z m 300 -7 l 668 -7 b 947 128 825 -7 894 29 b 933 167 956 143 957 157 l 876 193 b 821 201 853 204 838 206 b 657 178 746 179 739 178 l 335 178 b 274 226 299 178 274 199 l 274 465 b 335 513 274 493 299 513 l 696 513 b 753 465 736 513 753 500 l 753 431 b 783 407 753 414 765 407 l 929 407 b 960 436 947 407 960 415 l 960 469 b 726 700 960 614 896 700 l 300 700 b 63 467 151 700 63 608 l 63 229 b 300 -7 63 88 151 -7 z "},"d":{"ha":1050,"x_min":0,"x_max":0,"o":"m 300 -7 l 597 -7 b 754 61 697 -7 719 17 l 768 61 l 768 22 b 790 0 768 8 776 0 l 958 0 b 981 22 972 0 981 8 l 981 950 b 958 972 981 964 972 972 l 788 972 b 768 950 781 972 768 964 l 768 632 l 754 632 b 597 700 719 676 697 700 l 300 700 b 63 468 151 700 63 610 l 63 228 b 300 -7 63 86 151 -7 z m 325 181 b 274 229 299 181 274 200 l 274 465 b 325 513 274 493 299 513 l 735 513 b 768 465 749 513 768 493 l 768 229 b 735 181 768 200 749 181 z "},"ð":{"ha":1085,"x_min":0,"x_max":0,"o":"m 997 1007 l 876 1007 b 828 983 861 1007 846 1003 l 806 961 b 714 972 778 968 747 972 l 329 972 b 307 950 315 972 307 964 l 307 807 b 329 785 307 793 315 785 l 632 785 l 606 758 b 619 733 594 746 603 733 l 740 733 b 765 739 749 733 757 735 b 768 710 767 731 768 721 l 768 632 l 754 632 b 597 700 719 676 697 700 l 300 700 b 63 468 151 700 63 610 l 63 228 b 300 -7 63 86 151 -7 l 597 -7 b 754 61 697 -7 719 17 l 768 61 l 768 22 b 790 0 768 8 776 0 l 958 0 b 981 22 972 0 981 8 l 981 721 b 921 890 981 789 960 847 l 1011 982 b 997 1007 1024 997 1014 1007 z m 768 229 b 735 181 768 200 749 181 l 325 181 b 274 229 299 181 274 200 l 274 465 b 325 513 274 493 299 513 l 735 513 b 768 465 749 513 768 493 z "},"ď":{"ha":1275,"x_min":0,"x_max":0,"o":"m 300 -7 l 597 -7 b 754 61 697 -7 719 17 l 768 61 l 768 22 b 790 0 768 8 776 0 l 958 0 b 981 22 972 0 981 8 l 981 950 b 958 972 981 964 972 972 l 788 972 b 768 950 781 972 768 964 l 768 632 l 754 632 b 597 700 719 676 697 700 l 300 700 b 63 468 151 700 63 610 l 63 228 b 300 -7 63 86 151 -7 z m 1300 972 l 1161 972 b 1138 950 1147 972 1138 964 l 1138 692 l 1069 692 b 1046 669 1056 692 1046 683 l 1046 538 b 1069 515 1046 524 1056 515 l 1265 515 b 1322 574 1301 515 1322 536 l 1322 950 b 1300 972 1322 964 1314 972 z m 325 181 b 274 229 299 181 274 200 l 274 465 b 325 513 274 493 299 513 l 735 513 b 768 465 749 513 768 493 l 768 229 b 735 181 768 200 749 181 z "},"đ":{"ha":1068,"x_min":0,"x_max":0,"o":"m 1026 897 l 981 897 l 981 950 b 958 972 981 964 972 972 l 788 972 b 768 950 781 972 768 964 l 768 897 l 576 897 b 556 876 563 897 556 890 l 556 729 b 576 708 556 715 563 708 l 768 708 l 768 632 l 754 632 b 597 700 719 676 697 700 l 300 700 b 63 468 151 700 63 610 l 63 228 b 300 -7 63 86 151 -7 l 597 -7 b 754 61 697 -7 719 17 l 768 61 l 768 22 b 790 0 768 8 776 0 l 958 0 b 981 22 972 0 981 8 l 981 708 l 1026 708 b 1047 729 1039 708 1047 715 l 1047 876 b 1026 897 1047 890 1039 897 z m 768 229 b 735 181 768 200 749 181 l 325 181 b 274 229 299 181 274 200 l 274 465 b 325 513 274 493 299 513 l 735 513 b 768 465 749 513 768 493 z "},"e":{"ha":1022,"x_min":0,"x_max":0,"o":"m 860 272 b 960 372 924 272 960 310 l 960 468 b 722 700 960 610 871 700 l 300 700 b 63 467 151 700 63 608 l 63 229 b 300 -7 63 88 151 -7 l 668 -7 b 947 128 825 -7 894 29 b 933 167 956 143 957 157 l 876 193 b 821 201 853 204 838 206 b 657 178 746 179 739 178 l 335 178 b 274 226 299 178 274 199 l 274 272 z m 335 513 l 688 513 b 749 465 724 513 749 493 l 749 418 l 274 418 l 274 465 b 335 513 274 493 299 513 z "},"é":{"ha":1022,"x_min":0,"x_max":0,"o":"m 446 763 l 586 763 b 622 788 600 763 614 775 l 744 947 b 738 972 757 963 750 972 l 517 972 b 490 947 503 972 497 964 l 431 788 b 446 763 424 769 429 763 z m 860 272 b 960 372 924 272 960 310 l 960 468 b 722 700 960 610 871 700 l 300 700 b 63 467 151 700 63 608 l 63 229 b 300 -7 63 88 151 -7 l 668 -7 b 947 128 825 -7 894 29 b 933 167 956 143 957 157 l 876 193 b 821 201 853 204 838 206 b 657 178 746 179 739 178 l 335 178 b 274 226 299 178 274 199 l 274 272 z m 335 513 l 688 513 b 749 465 724 513 749 493 l 749 418 l 274 418 l 274 465 b 335 513 274 493 299 513 z "},"ě":{"ha":1022,"x_min":0,"x_max":0,"o":"m 378 781 b 417 761 388 767 401 761 l 596 761 b 635 781 611 761 625 771 l 776 943 b 764 972 788 957 778 972 l 604 972 b 557 943 582 972 571 958 l 513 889 l 499 889 l 454 943 b 407 972 442 958 431 972 l 249 972 b 236 943 235 972 224 957 z m 860 272 b 960 372 924 272 960 310 l 960 468 b 722 700 960 610 871 700 l 300 700 b 63 467 151 700 63 608 l 63 229 b 300 -7 63 88 151 -7 l 668 -7 b 947 128 825 -7 894 29 b 933 167 956 143 957 157 l 876 193 b 821 201 853 204 838 206 b 657 178 746 179 739 178 l 335 178 b 274 226 299 178 274 199 l 274 272 z m 335 513 l 688 513 b 749 465 724 513 749 493 l 749 418 l 274 418 l 274 465 b 335 513 274 493 299 513 z "},"ȩ":{"ha":1022,"x_min":0,"x_max":0,"o":"m 860 272 b 960 372 924 272 960 310 l 960 468 b 722 700 960 610 871 700 l 300 700 b 63 467 151 700 63 608 l 63 229 b 300 -7 63 88 151 -7 l 453 -7 b 396 -82 413 -43 396 -54 b 451 -132 396 -117 421 -129 b 594 -161 578 -143 594 -146 b 564 -172 594 -171 578 -172 l 538 -172 b 513 -169 529 -172 518 -167 b 496 -153 510 -160 506 -153 l 368 -153 b 353 -174 356 -153 353 -161 b 476 -289 353 -242 385 -289 l 610 -289 b 753 -158 701 -289 753 -239 b 638 -29 753 -74 738 -39 b 621 -7 613 -26 582 -22 l 668 -7 b 947 128 825 -7 894 29 b 933 167 956 143 957 157 l 876 193 b 821 201 853 204 838 206 b 657 178 746 179 739 178 l 335 178 b 274 226 299 178 274 199 l 274 272 z m 335 513 l 688 513 b 749 465 724 513 749 493 l 749 418 l 274 418 l 274 465 b 335 513 274 493 299 513 z "},"ê":{"ha":1022,"x_min":0,"x_max":0,"o":"m 249 761 l 407 761 b 454 790 431 761 442 775 l 499 844 l 513 844 l 557 790 b 604 761 571 775 582 761 l 764 761 b 776 790 778 761 788 776 l 635 951 b 596 972 625 963 611 972 l 417 972 b 378 951 401 972 388 965 l 236 790 b 249 761 224 776 235 761 z m 860 272 b 960 372 924 272 960 310 l 960 468 b 722 700 960 610 871 700 l 300 700 b 63 467 151 700 63 608 l 63 229 b 300 -7 63 88 151 -7 l 668 -7 b 947 128 825 -7 894 29 b 933 167 956 143 957 157 l 876 193 b 821 201 853 204 838 206 b 657 178 746 179 739 178 l 335 178 b 274 226 299 178 274 199 l 274 272 z m 335 513 l 688 513 b 749 465 724 513 749 493 l 749 418 l 274 418 l 274 465 b 335 513 274 493 299 513 z "},"ë":{"ha":1022,"x_min":0,"x_max":0,"o":"m 232 757 l 401 757 b 425 781 415 757 425 767 l 425 950 b 401 972 425 964 415 972 l 232 972 b 210 950 218 972 210 964 l 210 781 b 232 757 210 767 218 757 z m 590 757 l 760 757 b 782 781 774 757 782 767 l 782 950 b 760 972 782 964 774 972 l 590 972 b 567 950 576 972 567 964 l 567 781 b 590 757 567 767 576 757 z m 860 272 b 960 372 924 272 960 310 l 960 468 b 722 700 960 610 871 700 l 300 700 b 63 467 151 700 63 608 l 63 229 b 300 -7 63 88 151 -7 l 668 -7 b 947 128 825 -7 894 29 b 933 167 956 143 957 157 l 876 193 b 821 201 853 204 838 206 b 657 178 746 179 739 178 l 335 178 b 274 226 299 178 274 199 l 274 272 z m 335 513 l 688 513 b 749 465 724 513 749 493 l 749 418 l 274 418 l 274 465 b 335 513 274 493 299 513 z "},"ė":{"ha":1022,"x_min":0,"x_max":0,"o":"m 421 757 l 590 757 b 614 781 604 757 614 767 l 614 950 b 590 972 614 964 604 972 l 421 972 b 399 950 407 972 399 964 l 399 781 b 421 757 399 767 407 757 z m 860 272 b 960 372 924 272 960 310 l 960 468 b 722 700 960 610 871 700 l 300 700 b 63 467 151 700 63 608 l 63 229 b 300 -7 63 88 151 -7 l 668 -7 b 947 128 825 -7 894 29 b 933 167 956 143 957 157 l 876 193 b 821 201 853 204 838 206 b 657 178 746 179 739 178 l 335 178 b 274 226 299 178 274 199 l 274 272 z m 335 513 l 688 513 b 749 465 724 513 749 493 l 749 418 l 274 418 l 274 465 b 335 513 274 493 299 513 z "},"è":{"ha":1022,"x_min":0,"x_max":0,"o":"m 393 789 b 428 763 401 776 414 763 l 569 763 b 585 788 585 763 592 769 l 524 947 b 494 972 517 964 508 972 l 285 972 b 271 947 269 972 258 963 z m 860 272 b 960 372 924 272 960 310 l 960 468 b 722 700 960 610 871 700 l 300 700 b 63 467 151 700 63 608 l 63 229 b 300 -7 63 88 151 -7 l 668 -7 b 947 128 825 -7 894 29 b 933 167 956 143 957 157 l 876 193 b 821 201 853 204 838 206 b 657 178 746 179 739 178 l 335 178 b 274 226 299 178 274 199 l 274 272 z m 335 513 l 688 513 b 749 465 724 513 749 493 l 749 418 l 274 418 l 274 465 b 335 513 274 493 299 513 z "},"ē":{"ha":1022,"x_min":0,"x_max":0,"o":"m 282 783 l 732 783 b 753 804 744 783 753 790 l 753 951 b 732 972 753 965 744 972 l 282 972 b 261 951 268 972 261 965 l 261 804 b 282 783 261 790 268 783 z m 860 272 b 960 372 924 272 960 310 l 960 468 b 722 700 960 610 871 700 l 300 700 b 63 467 151 700 63 608 l 63 229 b 300 -7 63 88 151 -7 l 668 -7 b 947 128 825 -7 894 29 b 933 167 956 143 957 157 l 876 193 b 821 201 853 204 838 206 b 657 178 746 179 739 178 l 335 178 b 274 226 299 178 274 199 l 274 272 z m 335 513 l 688 513 b 749 465 724 513 749 493 l 749 418 l 274 418 l 274 465 b 335 513 274 493 299 513 z "},"ę":{"ha":1022,"x_min":0,"x_max":0,"o":"m 860 272 b 960 372 924 272 960 310 l 960 468 b 722 700 960 610 871 700 l 300 700 b 63 467 151 700 63 608 l 63 229 b 300 -7 63 88 151 -7 l 456 -7 b 408 -28 451 -28 432 -25 l 360 -32 b 265 -157 286 -39 265 -62 b 415 -289 265 -272 299 -289 l 631 -289 b 644 -275 640 -289 644 -283 l 644 -172 b 631 -154 644 -162 639 -154 l 454 -154 b 464 -147 454 -153 454 -147 l 557 -136 b 668 -54 629 -126 668 -125 l 668 -7 b 947 128 825 -7 894 29 b 933 167 956 143 957 157 l 876 193 b 821 201 853 204 838 206 b 657 178 746 179 739 178 l 335 178 b 274 226 299 178 274 199 l 274 272 z m 335 513 l 688 513 b 749 465 724 513 749 493 l 749 418 l 274 418 l 274 465 b 335 513 274 493 299 513 z "},"f":{"ha":863,"x_min":0,"x_max":0,"o":"m 793 972 l 392 972 b 154 740 243 972 154 882 l 154 694 l 76 694 b 56 674 63 694 56 688 l 56 528 b 76 507 56 514 63 507 l 154 507 l 154 21 b 175 0 154 7 161 0 l 344 0 b 365 21 358 0 365 7 l 365 507 l 779 507 b 800 528 793 507 800 514 l 800 674 b 779 694 800 688 793 694 l 365 694 l 365 738 b 417 785 365 765 390 785 l 793 785 b 814 806 807 785 814 792 l 814 951 b 793 972 814 965 807 972 z "},"g":{"ha":1050,"x_min":0,"x_max":0,"o":"m 267 -251 l 743 -251 b 981 -19 892 -251 981 -161 l 981 672 b 958 694 981 686 972 694 l 788 694 b 768 672 781 694 768 686 l 768 632 l 754 632 b 597 700 719 676 697 700 l 300 700 b 63 468 151 700 63 610 l 63 228 b 300 -7 63 86 151 -7 l 597 -7 b 754 61 697 -7 719 17 l 768 61 l 768 -8 b 675 -78 768 -56 744 -78 l 267 -78 b 244 -101 253 -78 244 -86 l 244 -229 b 267 -251 244 -243 253 -251 z m 325 181 b 274 229 299 181 274 200 l 274 465 b 325 513 274 493 299 513 l 735 513 b 768 465 749 513 768 493 l 768 229 b 735 181 768 200 749 181 z "},"ğ":{"ha":1050,"x_min":0,"x_max":0,"o":"m 481 738 l 579 738 b 785 949 721 738 785 806 b 763 972 785 964 776 972 l 635 972 b 613 949 621 972 615 964 b 547 879 607 914 601 879 l 514 879 b 449 949 460 879 454 914 b 425 972 446 964 439 972 l 299 972 b 276 949 285 972 276 964 b 481 738 276 806 339 738 z m 267 -251 l 743 -251 b 981 -19 892 -251 981 -161 l 981 672 b 958 694 981 686 972 694 l 788 694 b 768 672 781 694 768 686 l 768 632 l 754 632 b 597 700 719 676 697 700 l 300 700 b 63 468 151 700 63 610 l 63 228 b 300 -7 63 86 151 -7 l 597 -7 b 754 61 697 -7 719 17 l 768 61 l 768 -8 b 675 -78 768 -56 744 -78 l 267 -78 b 244 -101 253 -78 244 -86 l 244 -229 b 267 -251 244 -243 253 -251 z m 325 181 b 274 229 299 181 274 200 l 274 465 b 325 513 274 493 299 513 l 735 513 b 768 465 749 513 768 493 l 768 229 b 735 181 768 200 749 181 z "},"ǧ":{"ha":1050,"x_min":0,"x_max":0,"o":"m 442 761 l 621 761 b 660 781 636 761 650 771 l 801 943 b 789 972 813 957 803 972 l 629 972 b 582 943 607 972 596 958 l 538 889 l 524 889 l 479 943 b 432 972 467 958 456 972 l 274 972 b 261 943 260 972 249 957 l 403 781 b 442 761 413 767 426 761 z m 267 -251 l 743 -251 b 981 -19 892 -251 981 -161 l 981 672 b 958 694 981 686 972 694 l 788 694 b 768 672 781 694 768 686 l 768 632 l 754 632 b 597 700 719 676 697 700 l 300 700 b 63 468 151 700 63 610 l 63 228 b 300 -7 63 86 151 -7 l 597 -7 b 754 61 697 -7 719 17 l 768 61 l 768 -8 b 675 -78 768 -56 744 -78 l 267 -78 b 244 -101 253 -78 244 -86 l 244 -229 b 267 -251 244 -243 253 -251 z m 325 181 b 274 229 299 181 274 200 l 274 465 b 325 513 274 493 299 513 l 735 513 b 768 465 749 513 768 493 l 768 229 b 735 181 768 200 749 181 z "},"ģ":{"ha":1064,"x_min":0,"x_max":0,"o":"m 407 772 l 547 772 b 569 794 561 772 569 781 l 569 1053 l 639 1053 b 661 1075 653 1053 661 1061 l 661 1206 b 639 1229 661 1219 653 1229 l 443 1229 b 385 1171 406 1229 385 1208 l 385 794 b 407 772 385 781 393 772 z m 267 -251 l 743 -251 b 981 -19 892 -251 981 -161 l 981 672 b 958 694 981 686 972 694 l 788 694 b 768 672 781 694 768 686 l 768 632 l 754 632 b 597 700 719 676 697 700 l 300 700 b 63 468 151 700 63 610 l 63 228 b 300 -7 63 86 151 -7 l 597 -7 b 754 61 697 -7 719 17 l 768 61 l 768 -8 b 675 -78 768 -56 744 -78 l 267 -78 b 244 -101 253 -78 244 -86 l 244 -229 b 267 -251 244 -243 253 -251 z m 325 181 b 274 229 299 181 274 200 l 274 465 b 325 513 274 493 299 513 l 735 513 b 768 465 749 513 768 493 l 768 229 b 735 181 768 200 749 181 z "},"ġ":{"ha":1050,"x_min":0,"x_max":0,"o":"m 446 757 l 615 757 b 639 781 629 757 639 767 l 639 950 b 615 972 639 964 629 972 l 446 972 b 424 950 432 972 424 964 l 424 781 b 446 757 424 767 432 757 z m 267 -251 l 743 -251 b 981 -19 892 -251 981 -161 l 981 672 b 958 694 981 686 972 694 l 788 694 b 768 672 781 694 768 686 l 768 632 l 754 632 b 597 700 719 676 697 700 l 300 700 b 63 468 151 700 63 610 l 63 228 b 300 -7 63 86 151 -7 l 597 -7 b 754 61 697 -7 719 17 l 768 61 l 768 -8 b 675 -78 768 -56 744 -78 l 267 -78 b 244 -101 253 -78 244 -86 l 244 -229 b 267 -251 244 -243 253 -251 z m 325 181 b 274 229 299 181 274 200 l 274 465 b 325 513 274 493 299 513 l 735 513 b 768 465 749 513 768 493 l 768 229 b 735 181 768 200 749 181 z "},"h":{"ha":1057,"x_min":0,"x_max":0,"o":"m 750 700 l 453 700 b 296 632 353 700 331 676 l 281 632 l 281 950 b 260 972 281 964 274 972 l 92 972 b 69 950 78 972 69 964 l 69 22 b 92 0 69 8 78 0 l 260 0 b 281 22 274 0 281 8 l 281 465 b 338 513 281 493 301 513 l 715 513 b 775 465 751 513 775 493 l 775 22 b 797 0 775 8 783 0 l 965 0 b 988 22 979 0 988 8 l 988 468 b 750 700 988 610 899 700 z "},"ħ":{"ha":1099,"x_min":0,"x_max":0,"o":"m 792 700 l 494 700 b 338 632 394 700 372 676 l 322 632 l 322 731 l 407 731 b 428 751 421 731 428 738 l 428 889 b 407 910 428 903 421 910 l 322 910 l 322 950 b 301 972 322 964 315 972 l 133 972 b 111 950 119 972 111 964 l 111 910 l 63 910 b 42 889 49 910 42 903 l 42 751 b 63 731 42 738 49 731 l 111 731 l 111 22 b 133 0 111 8 119 0 l 301 0 b 322 22 315 0 322 8 l 322 465 b 379 513 322 493 343 513 l 757 513 b 817 465 793 513 817 493 l 817 22 b 839 0 817 8 825 0 l 1007 0 b 1029 22 1021 0 1029 8 l 1029 468 b 792 700 1029 610 940 700 z "},"i":{"ha":350,"x_min":0,"x_max":0,"o":"m 69 950 l 69 789 b 92 767 69 775 78 767 l 260 767 b 281 789 274 767 281 775 l 281 950 b 260 972 281 964 274 972 l 92 972 b 69 950 78 972 69 964 z m 69 672 l 69 22 b 92 0 69 8 78 0 l 260 0 b 281 22 274 0 281 8 l 281 672 b 260 694 281 686 274 694 l 92 694 b 69 672 78 694 69 686 z "},"ı":{"ha":350,"x_min":0,"x_max":0,"o":"m 69 672 l 69 22 b 92 0 69 8 78 0 l 260 0 b 281 22 274 0 281 8 l 281 672 b 260 694 281 686 274 694 l 92 694 b 69 672 78 694 69 686 z "},"í":{"ha":350,"x_min":0,"x_max":0,"o":"m 157 947 l 97 788 b 113 763 90 769 96 763 l 253 763 b 289 788 267 763 281 775 l 411 947 b 404 972 424 963 417 972 l 183 972 b 157 947 169 972 164 964 z m 69 672 l 69 22 b 92 0 69 8 78 0 l 260 0 b 281 22 274 0 281 8 l 281 672 b 260 694 281 686 274 694 l 92 694 b 69 672 78 694 69 686 z "},"ǐ":{"ha":350,"x_min":0,"x_max":0,"o":"m 82 761 l 261 761 b 300 781 276 761 290 771 l 442 943 b 429 972 453 957 443 972 l 269 972 b 222 943 247 972 236 958 l 178 889 l 164 889 l 119 943 b 72 972 107 958 96 972 l -86 972 b -99 943 -100 972 -111 957 l 43 781 b 82 761 53 767 67 761 z m 69 672 l 69 22 b 92 0 69 8 78 0 l 260 0 b 281 22 274 0 281 8 l 281 672 b 260 694 281 686 274 694 l 92 694 b 69 672 78 694 69 686 z "},"î":{"ha":350,"x_min":0,"x_max":0,"o":"m 82 972 b 43 951 67 972 53 965 l -99 790 b -86 761 -111 776 -100 761 l 72 761 b 119 790 96 761 107 775 l 164 844 l 178 844 l 222 790 b 269 761 236 775 247 761 l 429 761 b 442 790 443 761 453 776 l 300 951 b 261 972 290 963 276 972 z m 69 672 l 69 22 b 92 0 69 8 78 0 l 260 0 b 281 22 274 0 281 8 l 281 672 b 260 694 281 686 274 694 l 92 694 b 69 672 78 694 69 686 z "},"ï":{"ha":350,"x_min":0,"x_max":0,"o":"m -101 757 l 68 757 b 92 781 82 757 92 767 l 92 950 b 68 972 92 964 82 972 l -101 972 b -124 950 -115 972 -124 964 l -124 781 b -101 757 -124 767 -115 757 z m 257 757 l 426 757 b 449 781 440 757 449 767 l 449 950 b 426 972 449 964 440 972 l 257 972 b 233 950 243 972 233 964 l 233 781 b 257 757 233 767 243 757 z m 69 672 l 69 22 b 92 0 69 8 78 0 l 260 0 b 281 22 274 0 281 8 l 281 672 b 260 694 281 686 274 694 l 92 694 b 69 672 78 694 69 686 z "},"ì":{"ha":350,"x_min":0,"x_max":0,"o":"m 190 947 b 161 972 183 964 175 972 l -49 972 b -62 947 -64 972 -75 963 l 60 789 b 94 763 68 776 81 763 l 236 763 b 251 788 251 763 258 769 z m 69 672 l 69 22 b 92 0 69 8 78 0 l 260 0 b 281 22 274 0 281 8 l 281 672 b 260 694 281 686 274 694 l 92 694 b 69 672 78 694 69 686 z "},"ĳ":{"ha":729,"x_min":0,"x_max":0,"o":"m 69 950 l 69 789 b 92 767 69 775 78 767 l 260 767 b 281 789 274 767 281 775 l 281 950 b 260 972 281 964 274 972 l 92 972 b 69 950 78 972 69 964 z m 469 767 l 638 767 b 660 789 651 767 660 775 l 660 950 b 638 972 660 964 651 972 l 469 972 b 449 950 456 972 449 964 l 449 789 b 469 767 449 775 456 767 z m 69 672 l 69 22 b 92 0 69 8 78 0 l 260 0 b 281 22 274 0 281 8 l 281 672 b 260 694 281 686 274 694 l 92 694 b 69 672 78 694 69 686 z m 418 -251 b 660 -19 571 -251 660 -161 l 660 672 b 638 694 660 686 651 694 l 469 694 b 449 672 456 694 449 686 l 449 4 b 349 -68 449 -44 422 -68 l 265 -68 b 225 -103 242 -68 225 -76 l 225 -192 b 264 -243 225 -226 239 -239 b 418 -251 296 -247 342 -251 z "},"ī":{"ha":350,"x_min":0,"x_max":0,"o":"m -53 783 l 397 783 b 418 804 410 783 418 790 l 418 951 b 397 972 418 965 410 972 l -53 972 b -74 951 -67 972 -74 965 l -74 804 b -53 783 -74 790 -67 783 z m 69 672 l 69 22 b 92 0 69 8 78 0 l 260 0 b 281 22 274 0 281 8 l 281 672 b 260 694 281 686 274 694 l 92 694 b 69 672 78 694 69 686 z "},"į":{"ha":350,"x_min":0,"x_max":0,"o":"m 86 757 l 256 757 b 279 781 269 757 279 767 l 279 950 b 256 972 279 964 269 972 l 86 972 b 64 950 72 972 64 964 l 64 781 b 86 757 64 767 72 757 z m 260 694 l 92 694 b 69 672 78 694 69 686 l 69 6 b 21 -28 69 -29 49 -25 l -28 -32 b -122 -157 -101 -39 -122 -62 b 28 -289 -122 -272 -89 -289 l 243 -289 b 257 -275 253 -289 257 -283 l 257 -172 b 243 -154 257 -162 251 -154 l 67 -154 b 76 -147 67 -153 67 -147 l 169 -136 b 281 -54 242 -126 281 -125 l 281 672 b 260 694 281 686 274 694 z "},"j":{"ha":351,"x_min":0,"x_max":0,"o":"m 92 767 l 260 767 b 282 789 274 767 282 775 l 282 950 b 260 972 282 964 274 972 l 92 972 b 71 950 78 972 71 964 l 71 789 b 92 767 71 775 78 767 z m 40 -251 b 282 -19 193 -251 282 -161 l 282 672 b 260 694 282 686 274 694 l 92 694 b 71 672 78 694 71 686 l 71 4 b -29 -68 71 -44 44 -68 l -112 -68 b -153 -103 -136 -68 -153 -76 l -153 -192 b -114 -243 -153 -226 -139 -239 b 40 -251 -82 -247 -36 -251 z "},"ȷ":{"ha":351,"x_min":0,"x_max":0,"o":"m 40 -251 b 282 -19 193 -251 282 -161 l 282 672 b 260 694 282 686 274 694 l 92 694 b 71 672 78 694 71 686 l 71 4 b -29 -68 71 -44 44 -68 l -112 -68 b -153 -103 -136 -68 -153 -76 l -153 -192 b -114 -243 -153 -226 -139 -239 b 40 -251 -82 -247 -36 -251 z "},"k":{"ha":1068,"x_min":0,"x_max":0,"o":"m 1018 42 l 561 411 l 974 640 b 971 694 1008 658 999 694 l 758 694 b 706 682 732 694 719 690 l 281 442 l 281 950 b 260 972 281 964 274 972 l 92 972 b 69 950 78 972 69 964 l 69 22 b 92 0 69 8 78 0 l 260 0 b 281 22 274 0 281 8 l 281 256 l 397 319 l 760 26 b 829 0 779 11 799 0 l 993 0 b 1018 42 1024 0 1035 28 z "},"ķ":{"ha":1068,"x_min":0,"x_max":0,"o":"m 1018 42 l 561 411 l 974 640 b 971 694 1008 658 999 694 l 758 694 b 706 682 732 694 719 690 l 281 442 l 281 950 b 260 972 281 964 274 972 l 92 972 b 69 950 78 972 69 964 l 69 22 b 92 0 69 8 78 0 l 260 0 b 281 22 274 0 281 8 l 281 256 l 397 319 l 760 26 b 829 0 779 11 799 0 l 993 0 b 1018 42 1024 0 1035 28 z m 553 -83 l 413 -83 b 390 -106 399 -83 390 -92 l 390 -364 l 321 -364 b 299 -386 307 -364 299 -372 l 299 -518 b 321 -540 299 -532 307 -540 l 517 -540 b 575 -482 554 -540 575 -519 l 575 -106 b 553 -83 575 -92 567 -83 z "},"l":{"ha":350,"x_min":0,"x_max":0,"o":"m 69 950 l 69 22 b 92 0 69 8 78 0 l 260 0 b 281 22 274 0 281 8 l 281 950 b 260 972 281 964 274 972 l 92 972 b 69 950 78 972 69 964 z "},"ĺ":{"ha":350,"x_min":0,"x_max":0,"o":"m 161 1225 l 101 1065 b 117 1040 94 1047 100 1040 l 257 1040 b 293 1065 271 1040 285 1053 l 415 1225 b 408 1250 428 1240 421 1250 l 188 1250 b 161 1225 174 1250 168 1242 z m 69 950 l 69 22 b 92 0 69 8 78 0 l 260 0 b 281 22 274 0 281 8 l 281 950 b 260 972 281 964 274 972 l 92 972 b 69 950 78 972 69 964 z "},"ľ":{"ha":560,"x_min":0,"x_max":0,"o":"m 69 950 l 69 22 b 92 0 69 8 78 0 l 260 0 b 281 22 274 0 281 8 l 281 950 b 260 972 281 964 274 972 l 92 972 b 69 950 78 972 69 964 z m 593 972 l 453 972 b 431 950 439 972 431 964 l 431 692 l 361 692 b 339 669 347 692 339 683 l 339 538 b 361 515 339 524 347 515 l 557 515 b 615 574 594 515 615 536 l 615 950 b 593 972 615 964 607 972 z "},"ļ":{"ha":350,"x_min":0,"x_max":0,"o":"m 69 950 l 69 22 b 92 0 69 8 78 0 l 260 0 b 281 22 274 0 281 8 l 281 950 b 260 972 281 964 274 972 l 92 972 b 69 950 78 972 69 964 z m 249 -83 l 108 -83 b 86 -106 94 -83 86 -92 l 86 -364 l 17 -364 b -6 -386 3 -364 -6 -372 l -6 -518 b 17 -540 -6 -532 3 -540 l 213 -540 b 271 -482 250 -540 271 -519 l 271 -106 b 249 -83 271 -92 263 -83 z "},"ŀ":{"ha":540,"x_min":0,"x_max":0,"o":"m 69 950 l 69 22 b 92 0 69 8 78 0 l 260 0 b 281 22 274 0 281 8 l 281 950 b 260 972 281 964 274 972 l 92 972 b 69 950 78 972 69 964 z m 381 379 l 550 379 b 572 401 564 379 572 388 l 572 572 b 550 594 572 586 564 594 l 381 594 b 357 572 367 594 357 586 l 357 401 b 381 379 357 388 367 379 z "},"ł":{"ha":401,"x_min":0,"x_max":0,"o":"m 390 625 l 307 625 l 307 950 b 286 972 307 964 300 972 l 118 972 b 96 950 104 972 96 964 l 96 475 l -1 376 b 14 351 -12 364 -3 351 l 96 351 l 96 22 b 118 0 96 8 104 0 l 286 0 b 307 22 300 0 307 8 l 307 501 l 404 600 b 390 625 417 614 407 625 z "},"m":{"ha":1578,"x_min":0,"x_max":0,"o":"m 1272 700 l 1053 700 b 867 618 954 700 904 681 l 849 618 b 658 700 808 671 743 700 l 453 700 b 296 632 353 700 331 676 l 281 632 l 281 672 b 261 694 281 686 269 694 l 92 694 b 69 672 78 694 69 686 l 69 22 b 92 0 69 8 78 0 l 260 0 b 281 22 274 0 281 8 l 281 465 b 338 513 281 493 301 513 l 624 513 b 683 465 658 513 683 493 l 683 22 b 706 0 683 8 692 0 l 874 0 b 894 22 888 0 894 8 l 894 465 b 951 513 894 493 915 513 l 1238 513 b 1297 465 1272 513 1297 493 l 1297 22 b 1319 0 1297 8 1306 0 l 1488 0 b 1508 22 1501 0 1508 8 l 1508 468 b 1272 700 1508 610 1421 700 z "},"ḿ":{"ha":1578,"x_min":0,"x_max":0,"o":"m 731 763 l 871 763 b 907 788 885 763 899 775 l 1029 947 b 1022 972 1042 963 1035 972 l 801 972 b 775 947 788 972 782 964 l 715 788 b 731 763 708 769 714 763 z m 1272 700 l 1053 700 b 867 618 954 700 904 681 l 849 618 b 658 700 808 671 743 700 l 453 700 b 296 632 353 700 331 676 l 281 632 l 281 672 b 261 694 281 686 269 694 l 92 694 b 69 672 78 694 69 686 l 69 22 b 92 0 69 8 78 0 l 260 0 b 281 22 274 0 281 8 l 281 465 b 338 513 281 493 301 513 l 624 513 b 683 465 658 513 683 493 l 683 22 b 706 0 683 8 692 0 l 874 0 b 894 22 888 0 894 8 l 894 465 b 951 513 894 493 915 513 l 1238 513 b 1297 465 1272 513 1297 493 l 1297 22 b 1319 0 1297 8 1306 0 l 1488 0 b 1508 22 1501 0 1508 8 l 1508 468 b 1272 700 1508 610 1421 700 z "},"n":{"ha":1057,"x_min":0,"x_max":0,"o":"m 92 0 l 260 0 b 281 22 274 0 281 8 l 281 465 b 338 513 281 493 301 513 l 715 513 b 775 465 751 513 775 493 l 775 22 b 797 0 775 8 783 0 l 965 0 b 988 22 979 0 988 8 l 988 468 b 750 700 988 610 899 700 l 453 700 b 296 632 353 700 331 676 l 281 632 l 281 672 b 261 694 281 686 269 694 l 92 694 b 69 672 78 694 69 686 l 69 22 b 92 0 69 8 78 0 z "},"ń":{"ha":1057,"x_min":0,"x_max":0,"o":"m 514 947 l 454 788 b 469 763 447 769 453 763 l 610 763 b 646 788 624 763 638 775 l 768 947 b 761 972 781 963 774 972 l 540 972 b 514 947 526 972 521 964 z m 92 0 l 260 0 b 281 22 274 0 281 8 l 281 465 b 338 513 281 493 301 513 l 715 513 b 775 465 751 513 775 493 l 775 22 b 797 0 775 8 783 0 l 965 0 b 988 22 979 0 988 8 l 988 468 b 750 700 988 610 899 700 l 453 700 b 296 632 353 700 331 676 l 281 632 l 281 672 b 261 694 281 686 269 694 l 92 694 b 69 672 78 694 69 686 l 69 22 b 92 0 69 8 78 0 z "},"ň":{"ha":1057,"x_min":0,"x_max":0,"o":"m 440 761 l 619 761 b 658 781 635 761 649 771 l 800 943 b 788 972 811 957 801 972 l 628 972 b 581 943 606 972 594 958 l 536 889 l 522 889 l 478 943 b 431 972 465 958 454 972 l 272 972 b 260 943 258 972 247 957 l 401 781 b 440 761 411 767 425 761 z m 92 0 l 260 0 b 281 22 274 0 281 8 l 281 465 b 338 513 281 493 301 513 l 715 513 b 775 465 751 513 775 493 l 775 22 b 797 0 775 8 783 0 l 965 0 b 988 22 979 0 988 8 l 988 468 b 750 700 988 610 899 700 l 453 700 b 296 632 353 700 331 676 l 281 632 l 281 672 b 261 694 281 686 269 694 l 92 694 b 69 672 78 694 69 686 l 69 22 b 92 0 69 8 78 0 z "},"ņ":{"ha":1057,"x_min":0,"x_max":0,"o":"m 92 0 l 260 0 b 281 22 274 0 281 8 l 281 465 b 338 513 281 493 301 513 l 715 513 b 775 465 751 513 775 493 l 775 22 b 797 0 775 8 783 0 l 965 0 b 988 22 979 0 988 8 l 988 468 b 750 700 988 610 899 700 l 453 700 b 296 632 353 700 331 676 l 281 632 l 281 672 b 261 694 281 686 269 694 l 92 694 b 69 672 78 694 69 686 l 69 22 b 92 0 69 8 78 0 z m 601 -83 l 461 -83 b 439 -106 447 -83 439 -92 l 439 -364 l 369 -364 b 347 -386 356 -364 347 -372 l 347 -518 b 369 -540 347 -532 356 -540 l 565 -540 b 624 -482 603 -540 624 -519 l 624 -106 b 601 -83 624 -92 615 -83 z "},"ŋ":{"ha":1057,"x_min":0,"x_max":0,"o":"m 750 700 l 453 700 b 296 632 353 700 331 676 l 281 632 l 281 672 b 261 694 281 686 269 694 l 92 694 b 69 672 78 694 69 686 l 69 22 b 92 0 69 8 78 0 l 260 0 b 281 22 274 0 281 8 l 281 465 b 338 513 281 493 301 513 l 715 513 b 775 465 751 513 775 493 l 775 -22 b 676 -94 775 -71 750 -94 l 593 -94 b 553 -129 569 -94 553 -103 l 553 -218 b 592 -269 553 -253 567 -265 b 744 -278 624 -274 669 -278 b 988 -46 897 -278 988 -187 l 988 468 b 750 700 988 610 899 700 z "},"ñ":{"ha":1057,"x_min":0,"x_max":0,"o":"m 615 744 b 765 796 665 744 710 753 b 779 832 776 806 785 815 l 733 949 b 706 957 729 957 719 964 b 618 928 669 938 656 928 b 442 979 554 928 540 979 b 292 928 392 979 347 971 b 278 892 281 918 271 910 l 324 775 b 353 769 328 768 338 760 b 438 796 385 789 400 796 b 615 744 503 796 517 744 z m 92 0 l 260 0 b 281 22 274 0 281 8 l 281 465 b 338 513 281 493 301 513 l 715 513 b 775 465 751 513 775 493 l 775 22 b 797 0 775 8 783 0 l 965 0 b 988 22 979 0 988 8 l 988 468 b 750 700 988 610 899 700 l 453 700 b 296 632 353 700 331 676 l 281 632 l 281 672 b 261 694 281 686 269 694 l 92 694 b 69 672 78 694 69 686 l 69 22 b 92 0 69 8 78 0 z "},"o":{"ha":1043,"x_min":0,"x_max":0,"o":"m 300 -7 l 742 -7 b 981 226 890 -7 981 85 l 981 467 b 742 700 981 608 890 700 l 300 700 b 63 467 151 700 63 608 l 63 229 b 300 -7 63 88 151 -7 z m 335 181 b 274 229 299 181 274 200 l 274 465 b 335 513 274 493 299 513 l 708 513 b 768 465 744 513 768 493 l 768 229 b 708 181 768 200 744 181 z "},"ó":{"ha":1043,"x_min":0,"x_max":0,"o":"m 489 947 l 429 788 b 444 763 422 769 428 763 l 585 763 b 621 788 599 763 613 775 l 743 947 b 736 972 756 963 749 972 l 515 972 b 489 947 501 972 496 964 z m 300 -7 l 742 -7 b 981 226 890 -7 981 85 l 981 467 b 742 700 981 608 890 700 l 300 700 b 63 467 151 700 63 608 l 63 229 b 300 -7 63 88 151 -7 z m 335 181 b 274 229 299 181 274 200 l 274 465 b 335 513 274 493 299 513 l 708 513 b 768 465 744 513 768 493 l 768 229 b 708 181 768 200 744 181 z "},"ǒ":{"ha":1043,"x_min":0,"x_max":0,"o":"m 415 761 l 594 761 b 633 781 610 761 624 771 l 775 943 b 763 972 786 957 776 972 l 603 972 b 556 943 581 972 569 958 l 511 889 l 497 889 l 453 943 b 406 972 440 958 429 972 l 247 972 b 235 943 233 972 222 957 l 376 781 b 415 761 386 767 400 761 z m 300 -7 l 742 -7 b 981 226 890 -7 981 85 l 981 467 b 742 700 981 608 890 700 l 300 700 b 63 467 151 700 63 608 l 63 229 b 300 -7 63 88 151 -7 z m 335 181 b 274 229 299 181 274 200 l 274 465 b 335 513 274 493 299 513 l 708 513 b 768 465 744 513 768 493 l 768 229 b 708 181 768 200 744 181 z "},"ô":{"ha":1043,"x_min":0,"x_max":0,"o":"m 415 972 b 376 951 400 972 386 965 l 235 790 b 247 761 222 776 233 761 l 406 761 b 453 790 429 761 440 775 l 497 844 l 511 844 l 556 790 b 603 761 569 775 581 761 l 763 761 b 775 790 776 761 786 776 l 633 951 b 594 972 624 963 610 972 z m 300 -7 l 742 -7 b 981 226 890 -7 981 85 l 981 467 b 742 700 981 608 890 700 l 300 700 b 63 467 151 700 63 608 l 63 229 b 300 -7 63 88 151 -7 z m 335 181 b 274 229 299 181 274 200 l 274 465 b 335 513 274 493 299 513 l 708 513 b 768 465 744 513 768 493 l 768 229 b 708 181 768 200 744 181 z "},"ö":{"ha":1043,"x_min":0,"x_max":0,"o":"m 231 757 l 400 757 b 424 781 414 757 424 767 l 424 950 b 400 972 424 964 414 972 l 231 972 b 208 950 217 972 208 964 l 208 781 b 231 757 208 767 217 757 z m 589 757 l 758 757 b 781 781 772 757 781 767 l 781 950 b 758 972 781 964 772 972 l 589 972 b 565 950 575 972 565 964 l 565 781 b 589 757 565 767 575 757 z m 300 -7 l 742 -7 b 981 226 890 -7 981 85 l 981 467 b 742 700 981 608 890 700 l 300 700 b 63 467 151 700 63 608 l 63 229 b 300 -7 63 88 151 -7 z m 335 181 b 274 229 299 181 274 200 l 274 465 b 335 513 274 493 299 513 l 708 513 b 768 465 744 513 768 493 l 768 229 b 708 181 768 200 744 181 z "},"ò":{"ha":1043,"x_min":0,"x_max":0,"o":"m 522 947 b 493 972 515 964 507 972 l 283 972 b 269 947 268 972 257 963 l 392 789 b 426 763 400 776 413 763 l 568 763 b 583 788 583 763 590 769 z m 300 -7 l 742 -7 b 981 226 890 -7 981 85 l 981 467 b 742 700 981 608 890 700 l 300 700 b 63 467 151 700 63 608 l 63 229 b 300 -7 63 88 151 -7 z m 335 181 b 274 229 299 181 274 200 l 274 465 b 335 513 274 493 299 513 l 708 513 b 768 465 744 513 768 493 l 768 229 b 708 181 768 200 744 181 z "},"ő":{"ha":1043,"x_min":0,"x_max":0,"o":"m 324 947 l 264 788 b 279 763 257 769 263 763 l 419 763 b 456 788 433 763 447 775 l 578 947 b 571 972 590 963 583 972 l 350 972 b 324 947 336 972 331 964 z m 631 947 l 572 788 b 586 763 565 769 571 763 l 728 763 b 764 788 742 763 756 775 l 885 947 b 878 972 897 963 892 972 l 658 972 b 631 947 644 972 639 964 z m 300 -7 l 742 -7 b 981 226 890 -7 981 85 l 981 467 b 742 700 981 608 890 700 l 300 700 b 63 467 151 700 63 608 l 63 229 b 300 -7 63 88 151 -7 z m 335 181 b 274 229 299 181 274 200 l 274 465 b 335 513 274 493 299 513 l 708 513 b 768 465 744 513 768 493 l 768 229 b 708 181 768 200 744 181 z "},"ō":{"ha":1043,"x_min":0,"x_max":0,"o":"m 279 783 l 729 783 b 750 804 742 783 750 790 l 750 951 b 729 972 750 965 742 972 l 279 972 b 258 951 265 972 258 965 l 258 804 b 279 783 258 790 265 783 z m 300 -7 l 742 -7 b 981 226 890 -7 981 85 l 981 467 b 742 700 981 608 890 700 l 300 700 b 63 467 151 700 63 608 l 63 229 b 300 -7 63 88 151 -7 z m 335 181 b 274 229 299 181 274 200 l 274 465 b 335 513 274 493 299 513 l 708 513 b 768 465 744 513 768 493 l 768 229 b 708 181 768 200 744 181 z "},"ø":{"ha":1043,"x_min":0,"x_max":0,"o":"m 776 701 l 785 721 b 771 742 790 735 785 742 l 619 742 b 592 721 606 742 597 735 l 583 703 l 300 703 b 63 469 151 703 63 611 l 63 232 b 268 -3 63 100 139 10 l 260 -22 b 274 -43 254 -36 260 -43 l 425 -43 b 453 -22 439 -43 447 -36 l 461 -4 l 742 -4 b 981 229 890 -4 981 88 l 981 469 b 776 701 981 600 904 688 z m 335 183 b 274 231 299 183 274 203 l 274 467 b 335 515 274 494 299 515 l 500 515 l 351 183 z m 768 231 b 708 183 768 203 744 183 l 544 183 l 693 515 l 708 515 b 768 467 744 515 768 494 z "},"õ":{"ha":1043,"x_min":0,"x_max":0,"o":"m 590 744 b 740 796 640 744 685 753 b 754 832 751 806 760 815 l 708 949 b 681 957 704 957 694 964 b 593 928 644 938 631 928 b 417 979 529 928 515 979 b 267 928 367 979 322 971 b 253 892 256 918 246 910 l 299 775 b 328 769 303 768 313 760 b 413 796 360 789 375 796 b 590 744 478 796 492 744 z m 300 -7 l 742 -7 b 981 226 890 -7 981 85 l 981 467 b 742 700 981 608 890 700 l 300 700 b 63 467 151 700 63 608 l 63 229 b 300 -7 63 88 151 -7 z m 335 181 b 274 229 299 181 274 200 l 274 465 b 335 513 274 493 299 513 l 708 513 b 768 465 744 513 768 493 l 768 229 b 708 181 768 200 744 181 z "},"œ":{"ha":1728,"x_min":0,"x_max":0,"o":"m 1565 272 b 1665 372 1629 272 1665 310 l 1665 468 b 1428 700 1665 610 1576 700 l 1007 700 b 875 668 956 700 911 689 b 742 700 838 689 793 700 l 300 700 b 63 467 151 700 63 608 l 63 229 b 300 -7 63 88 151 -7 l 742 -7 b 875 25 793 -7 839 4 b 1007 -7 911 4 956 -7 l 1374 -7 b 1654 128 1531 -7 1600 29 b 1640 167 1663 143 1663 157 l 1582 193 b 1526 201 1558 204 1543 206 b 1363 178 1451 179 1446 178 l 1040 178 b 981 226 1004 178 981 199 l 981 272 z m 708 181 l 335 181 b 274 229 299 181 274 200 l 274 465 b 335 513 274 493 299 513 l 708 513 b 768 465 744 513 768 493 l 768 229 b 708 181 768 200 744 181 z m 1040 513 l 1394 513 b 1454 465 1429 513 1454 493 l 1454 418 l 981 418 l 981 465 b 1040 513 981 493 1004 513 z "},"p":{"ha":1050,"x_min":0,"x_max":0,"o":"m 263 -246 b 282 -224 269 -246 282 -237 l 282 61 l 296 61 b 453 -7 331 17 353 -7 l 750 -7 b 988 225 899 -7 988 83 l 988 465 b 750 700 988 607 899 700 l 453 700 b 296 632 353 700 331 676 l 282 632 l 282 672 b 260 694 282 686 274 694 l 92 694 b 69 672 78 694 69 686 l 69 -224 b 92 -246 69 -237 78 -246 z m 725 181 l 315 181 b 282 228 301 181 282 200 l 282 464 b 315 513 282 493 301 513 l 725 513 b 776 464 751 513 776 493 l 776 228 b 725 181 776 200 751 181 z "},"þ":{"ha":1050,"x_min":0,"x_max":0,"o":"m 746 700 l 385 700 b 281 653 336 700 304 678 l 281 988 b 260 1008 281 1001 274 1008 l 90 1008 b 69 988 76 1008 69 1001 l 69 -257 b 90 -278 69 -271 76 -278 l 269 -278 b 281 -257 276 -278 281 -268 l 281 42 b 385 -7 304 17 336 -7 l 746 -7 b 988 239 903 -7 988 94 l 988 450 b 746 700 988 592 903 700 z m 775 214 b 744 181 775 188 758 181 l 313 181 b 281 214 299 181 281 188 l 281 485 b 313 513 281 508 299 513 l 744 513 b 775 485 758 513 775 508 z "},"q":{"ha":1050,"x_min":0,"x_max":0,"o":"m 788 -246 l 958 -246 b 981 -224 972 -246 981 -237 l 981 672 b 958 694 981 686 972 694 l 790 694 b 768 672 776 694 768 686 l 768 632 l 754 632 b 597 700 719 676 697 700 l 300 700 b 63 465 151 700 63 607 l 63 225 b 300 -7 63 83 151 -7 l 597 -7 b 754 61 697 -7 719 17 l 768 61 l 768 -224 b 788 -246 768 -237 781 -246 z m 325 181 b 274 228 299 181 274 200 l 274 464 b 325 513 274 493 299 513 l 735 513 b 768 464 749 513 768 493 l 768 228 b 735 181 768 200 749 181 z "},"r":{"ha":1044,"x_min":0,"x_max":0,"o":"m 92 0 l 260 0 b 281 22 274 0 281 8 l 281 465 b 338 513 281 493 301 513 l 686 513 b 756 488 710 513 742 510 b 789 463 761 474 768 463 l 925 463 b 967 507 957 463 967 479 b 740 700 967 644 890 700 l 453 700 b 296 632 353 700 331 676 l 281 632 l 281 672 b 261 694 281 686 269 694 l 92 694 b 69 672 78 694 69 686 l 69 22 b 92 0 69 8 78 0 z "},"ŕ":{"ha":1044,"x_min":0,"x_max":0,"o":"m 514 947 l 454 788 b 469 763 447 769 453 763 l 610 763 b 646 788 624 763 638 775 l 768 947 b 761 972 781 963 774 972 l 540 972 b 514 947 526 972 521 964 z m 92 0 l 260 0 b 281 22 274 0 281 8 l 281 465 b 338 513 281 493 301 513 l 686 513 b 756 488 710 513 742 510 b 789 463 761 474 768 463 l 925 463 b 967 507 957 463 967 479 b 740 700 967 644 890 700 l 453 700 b 296 632 353 700 331 676 l 281 632 l 281 672 b 261 694 281 686 269 694 l 92 694 b 69 672 78 694 69 686 l 69 22 b 92 0 69 8 78 0 z "},"ř":{"ha":1044,"x_min":0,"x_max":0,"o":"m 440 761 l 619 761 b 658 781 635 761 649 771 l 800 943 b 788 972 811 957 801 972 l 628 972 b 581 943 606 972 594 958 l 536 889 l 522 889 l 478 943 b 431 972 465 958 454 972 l 272 972 b 260 943 258 972 247 957 l 401 781 b 440 761 411 767 425 761 z m 92 0 l 260 0 b 281 22 274 0 281 8 l 281 465 b 338 513 281 493 301 513 l 686 513 b 756 488 710 513 742 510 b 789 463 761 474 768 463 l 925 463 b 967 507 957 463 967 479 b 740 700 967 644 890 700 l 453 700 b 296 632 353 700 331 676 l 281 632 l 281 672 b 261 694 281 686 269 694 l 92 694 b 69 672 78 694 69 686 l 69 22 b 92 0 69 8 78 0 z "},"ŗ":{"ha":1044,"x_min":0,"x_max":0,"o":"m 92 0 l 260 0 b 281 22 274 0 281 8 l 281 465 b 338 513 281 493 301 513 l 686 513 b 756 488 710 513 742 510 b 789 463 761 474 768 463 l 925 463 b 967 507 957 463 967 479 b 740 700 967 644 890 700 l 453 700 b 296 632 353 700 331 676 l 281 632 l 281 672 b 261 694 281 686 269 694 l 92 694 b 69 672 78 694 69 686 l 69 22 b 92 0 69 8 78 0 z m 250 -83 l 110 -83 b 88 -106 96 -83 88 -92 l 88 -364 l 18 -364 b -4 -386 4 -364 -4 -372 l -4 -518 b 18 -540 -4 -532 4 -540 l 214 -540 b 272 -482 251 -540 272 -519 l 272 -106 b 250 -83 272 -92 264 -83 z "},"s":{"ha":1047,"x_min":0,"x_max":0,"o":"m 289 0 l 740 0 b 985 221 888 0 985 57 b 732 422 985 371 894 415 l 313 440 b 272 478 275 443 272 464 b 303 510 272 490 279 510 l 686 510 b 754 490 708 510 740 507 b 796 465 760 475 776 465 l 932 465 b 965 508 964 465 965 481 b 740 694 965 642 890 694 l 306 694 b 61 482 158 694 61 635 b 314 269 61 319 150 276 l 733 251 b 774 218 771 249 774 228 b 742 185 774 203 765 185 l 343 185 b 274 204 319 185 288 188 b 240 229 268 219 261 229 l 104 229 b 63 186 72 229 63 214 b 289 0 63 53 138 0 z "},"ś":{"ha":1047,"x_min":0,"x_max":0,"o":"m 510 947 l 450 788 b 465 763 443 769 449 763 l 606 763 b 642 788 619 763 633 775 l 764 947 b 757 972 776 963 769 972 l 536 972 b 510 947 522 972 517 964 z m 289 0 l 740 0 b 985 221 888 0 985 57 b 732 422 985 371 894 415 l 313 440 b 272 478 275 443 272 464 b 303 510 272 490 279 510 l 686 510 b 754 490 708 510 740 507 b 796 465 760 475 776 465 l 932 465 b 965 508 964 465 965 481 b 740 694 965 642 890 694 l 306 694 b 61 482 158 694 61 635 b 314 269 61 319 150 276 l 733 251 b 774 218 771 249 774 228 b 742 185 774 203 765 185 l 343 185 b 274 204 319 185 288 188 b 240 229 268 219 261 229 l 104 229 b 63 186 72 229 63 214 b 289 0 63 53 138 0 z "},"š":{"ha":1047,"x_min":0,"x_max":0,"o":"m 435 761 l 614 761 b 653 781 629 761 643 771 l 794 943 b 782 972 806 957 796 972 l 622 972 b 575 943 600 972 589 958 l 531 889 l 517 889 l 472 943 b 425 972 460 958 449 972 l 267 972 b 254 943 253 972 242 957 l 396 781 b 435 761 406 767 419 761 z m 289 0 l 740 0 b 985 221 888 0 985 57 b 732 422 985 371 894 415 l 313 440 b 272 478 275 443 272 464 b 303 510 272 490 279 510 l 686 510 b 754 490 708 510 740 507 b 796 465 760 475 776 465 l 932 465 b 965 508 964 465 965 481 b 740 694 965 642 890 694 l 306 694 b 61 482 158 694 61 635 b 314 269 61 319 150 276 l 733 251 b 774 218 771 249 774 228 b 742 185 774 203 765 185 l 343 185 b 274 204 319 185 288 188 b 240 229 268 219 261 229 l 104 229 b 63 186 72 229 63 214 b 289 0 63 53 138 0 z "},"ş":{"ha":1047,"x_min":0,"x_max":0,"o":"m 660 0 l 740 0 b 985 221 888 0 985 57 b 732 422 985 371 894 415 l 313 440 b 272 478 275 443 272 464 b 303 510 272 490 279 510 l 686 510 b 754 490 708 510 740 507 b 796 465 760 475 776 465 l 932 465 b 965 508 964 465 965 481 b 740 694 965 642 890 694 l 306 694 b 61 482 158 694 61 635 b 314 269 61 319 150 276 l 733 251 b 774 218 771 249 774 228 b 742 185 774 203 765 185 l 343 185 b 274 204 319 185 288 188 b 240 229 268 219 261 229 l 104 229 b 63 186 72 229 63 214 b 289 0 63 53 138 0 l 479 0 b 414 -82 433 -42 414 -53 b 469 -132 414 -117 439 -129 b 613 -161 596 -143 613 -146 b 582 -172 613 -171 596 -172 l 556 -172 b 531 -169 547 -172 536 -167 b 514 -153 528 -160 524 -153 l 386 -153 b 371 -174 374 -153 371 -161 b 494 -289 371 -242 403 -289 l 628 -289 b 771 -158 719 -289 771 -239 b 656 -29 771 -74 756 -39 b 660 0 628 -26 592 -21 z "},"ș":{"ha":1047,"x_min":0,"x_max":0,"o":"m 289 0 l 740 0 b 985 221 888 0 985 57 b 732 422 985 371 894 415 l 313 440 b 272 478 275 443 272 464 b 303 510 272 490 279 510 l 686 510 b 754 490 708 510 740 507 b 796 465 760 475 776 465 l 932 465 b 965 508 964 465 965 481 b 740 694 965 642 890 694 l 306 694 b 61 482 158 694 61 635 b 314 269 61 319 150 276 l 733 251 b 774 218 771 249 774 228 b 742 185 774 203 765 185 l 343 185 b 274 204 319 185 288 188 b 240 229 268 219 261 229 l 104 229 b 63 186 72 229 63 214 b 289 0 63 53 138 0 z m 597 -83 l 457 -83 b 435 -106 443 -83 435 -92 l 435 -364 l 365 -364 b 343 -386 351 -364 343 -372 l 343 -518 b 365 -540 343 -532 351 -540 l 561 -540 b 619 -482 599 -540 619 -519 l 619 -106 b 597 -83 619 -92 611 -83 z "},"ß":{"ha":1332,"x_min":0,"x_max":0,"o":"m 1135 506 b 1232 663 1226 524 1232 607 l 1232 729 b 988 957 1232 868 1124 957 l 344 957 b 90 731 199 957 90 868 l 92 21 b 113 0 92 7 99 0 l 281 0 b 301 21 294 0 301 7 l 303 731 b 344 769 303 761 329 769 l 988 769 b 1022 729 1026 769 1022 758 l 1022 647 b 983 596 1022 621 1025 596 l 438 596 b 417 575 424 596 417 589 l 417 429 b 438 408 417 415 424 408 l 983 408 b 1060 314 1050 408 1060 375 l 1060 278 b 976 188 1060 200 1025 188 l 438 188 b 417 167 424 188 417 181 l 417 21 b 438 0 417 7 424 0 l 972 0 b 1269 254 1181 0 1269 93 l 1269 317 b 1135 506 1269 404 1235 478 z "},"t":{"ha":839,"x_min":0,"x_max":0,"o":"m 417 0 l 756 0 b 776 21 763 0 776 7 l 776 167 b 754 188 776 181 769 188 l 443 188 b 392 236 417 188 392 207 l 392 507 l 756 507 b 776 529 763 507 776 515 l 776 672 b 754 694 776 686 769 694 l 392 694 l 392 786 b 369 808 392 800 383 808 l 201 808 b 181 786 188 808 181 800 l 181 694 l 64 694 b 42 671 50 694 42 686 l 42 529 b 64 507 42 515 50 507 l 181 507 l 181 235 b 417 0 181 93 268 0 z "},"ŧ":{"ha":846,"x_min":0,"x_max":0,"o":"m 763 444 l 392 444 l 392 507 l 756 507 b 776 529 763 507 776 515 l 776 672 b 754 694 776 686 769 694 l 392 694 l 392 786 b 369 808 392 800 383 808 l 201 808 b 181 786 188 808 181 800 l 181 694 l 64 694 b 42 671 50 694 42 686 l 42 529 b 64 507 42 515 50 507 l 181 507 l 181 444 l 69 444 b 49 424 56 444 49 438 l 49 278 b 69 257 49 264 56 257 l 181 257 l 181 235 b 417 0 181 93 268 0 l 756 0 b 776 21 763 0 776 7 l 776 167 b 754 188 776 181 769 188 l 443 188 b 392 236 417 188 392 207 l 392 257 l 763 257 b 783 278 775 257 783 264 l 783 424 b 763 444 783 438 775 444 z "},"ť":{"ha":839,"x_min":0,"x_max":0,"o":"m 700 1201 l 561 1201 b 539 1178 547 1201 539 1192 l 539 921 l 469 921 b 447 897 456 921 447 911 l 447 767 b 469 744 447 753 456 744 l 665 744 b 724 801 703 744 724 765 l 724 1178 b 700 1201 724 1192 714 1201 z m 417 0 l 756 0 b 776 21 763 0 776 7 l 776 167 b 754 188 776 181 769 188 l 443 188 b 392 236 417 188 392 207 l 392 507 l 756 507 b 776 529 763 507 776 515 l 776 672 b 754 694 776 686 769 694 l 392 694 l 392 786 b 369 808 392 800 383 808 l 201 808 b 181 786 188 808 181 800 l 181 694 l 64 694 b 42 671 50 694 42 686 l 42 529 b 64 507 42 515 50 507 l 181 507 l 181 235 b 417 0 181 93 268 0 z "},"ţ":{"ha":832,"x_min":0,"x_max":0,"o":"m 756 507 b 776 529 763 507 776 515 l 776 672 b 754 694 776 686 769 694 l 392 694 l 392 786 b 369 808 392 800 383 808 l 201 808 b 181 786 188 808 181 800 l 181 694 l 64 694 b 42 671 50 694 42 686 l 42 529 b 64 507 42 515 50 507 l 181 507 l 181 235 b 417 0 181 93 268 0 l 457 0 b 392 -82 411 -42 392 -53 b 447 -132 392 -117 417 -129 b 590 -161 574 -143 590 -146 b 560 -172 590 -171 574 -172 l 533 -172 b 508 -169 525 -172 514 -167 b 492 -153 506 -160 501 -153 l 364 -153 b 349 -174 351 -153 349 -161 b 472 -289 349 -242 381 -289 l 606 -289 b 749 -158 697 -289 749 -239 b 633 -29 749 -74 733 -39 b 638 0 606 -26 569 -21 l 756 0 b 776 21 763 0 776 7 l 776 167 b 754 188 776 181 769 188 l 443 188 b 392 236 417 188 392 207 l 392 507 z "},"ț":{"ha":839,"x_min":0,"x_max":0,"o":"m 417 0 l 756 0 b 776 21 763 0 776 7 l 776 167 b 754 188 776 181 769 188 l 443 188 b 392 236 417 188 392 207 l 392 507 l 756 507 b 776 529 763 507 776 515 l 776 672 b 754 694 776 686 769 694 l 392 694 l 392 786 b 369 808 392 800 383 808 l 201 808 b 181 786 188 808 181 800 l 181 694 l 64 694 b 42 671 50 694 42 686 l 42 529 b 64 507 42 515 50 507 l 181 507 l 181 235 b 417 0 181 93 268 0 z m 521 -83 l 381 -83 b 358 -106 367 -83 358 -92 l 358 -364 l 289 -364 b 267 -386 275 -364 267 -372 l 267 -518 b 289 -540 267 -532 275 -540 l 485 -540 b 543 -482 522 -540 543 -519 l 543 -106 b 521 -83 543 -92 535 -83 z "},"u":{"ha":1057,"x_min":0,"x_max":0,"o":"m 965 694 l 797 694 b 776 672 783 694 776 686 l 776 229 b 719 182 776 201 756 182 l 342 182 b 282 229 306 182 282 201 l 282 672 b 260 694 282 686 274 694 l 92 694 b 69 672 78 694 69 686 l 69 226 b 307 -6 69 85 158 -6 l 604 -6 b 761 63 704 -6 726 18 l 776 63 l 776 22 b 796 0 776 8 788 0 l 965 0 b 988 22 979 0 988 8 l 988 672 b 965 694 988 686 979 694 z "},"ú":{"ha":1057,"x_min":0,"x_max":0,"o":"m 514 947 l 454 788 b 469 763 447 769 453 763 l 610 763 b 646 788 624 763 638 775 l 768 947 b 761 972 781 963 774 972 l 540 972 b 514 947 526 972 521 964 z m 965 694 l 797 694 b 776 672 783 694 776 686 l 776 229 b 719 182 776 201 756 182 l 342 182 b 282 229 306 182 282 201 l 282 672 b 260 694 282 686 274 694 l 92 694 b 69 672 78 694 69 686 l 69 226 b 307 -6 69 85 158 -6 l 604 -6 b 761 63 704 -6 726 18 l 776 63 l 776 22 b 796 0 776 8 788 0 l 965 0 b 988 22 979 0 988 8 l 988 672 b 965 694 988 686 979 694 z "},"ŭ":{"ha":1057,"x_min":0,"x_max":0,"o":"m 479 738 l 578 738 b 783 949 719 738 783 806 b 761 972 783 964 775 972 l 633 972 b 611 949 619 972 614 964 b 546 879 606 914 600 879 l 513 879 b 447 949 458 879 453 914 b 424 972 444 964 438 972 l 297 972 b 275 949 283 972 275 964 b 479 738 275 806 338 738 z m 965 694 l 797 694 b 776 672 783 694 776 686 l 776 229 b 719 182 776 201 756 182 l 342 182 b 282 229 306 182 282 201 l 282 672 b 260 694 282 686 274 694 l 92 694 b 69 672 78 694 69 686 l 69 226 b 307 -6 69 85 158 -6 l 604 -6 b 761 63 704 -6 726 18 l 776 63 l 776 22 b 796 0 776 8 788 0 l 965 0 b 988 22 979 0 988 8 l 988 672 b 965 694 988 686 979 694 z "},"ǔ":{"ha":1057,"x_min":0,"x_max":0,"o":"m 440 761 l 619 761 b 658 781 635 761 649 771 l 800 943 b 788 972 811 957 801 972 l 628 972 b 581 943 606 972 594 958 l 536 889 l 522 889 l 478 943 b 431 972 465 958 454 972 l 272 972 b 260 943 258 972 247 957 l 401 781 b 440 761 411 767 425 761 z m 965 694 l 797 694 b 776 672 783 694 776 686 l 776 229 b 719 182 776 201 756 182 l 342 182 b 282 229 306 182 282 201 l 282 672 b 260 694 282 686 274 694 l 92 694 b 69 672 78 694 69 686 l 69 226 b 307 -6 69 85 158 -6 l 604 -6 b 761 63 704 -6 726 18 l 776 63 l 776 22 b 796 0 776 8 788 0 l 965 0 b 988 22 979 0 988 8 l 988 672 b 965 694 988 686 979 694 z "},"û":{"ha":1057,"x_min":0,"x_max":0,"o":"m 440 972 b 401 951 425 972 411 965 l 260 790 b 272 761 247 776 258 761 l 431 761 b 478 790 454 761 465 775 l 522 844 l 536 844 l 581 790 b 628 761 594 775 606 761 l 788 761 b 800 790 801 761 811 776 l 658 951 b 619 972 649 963 635 972 z m 965 694 l 797 694 b 776 672 783 694 776 686 l 776 229 b 719 182 776 201 756 182 l 342 182 b 282 229 306 182 282 201 l 282 672 b 260 694 282 686 274 694 l 92 694 b 69 672 78 694 69 686 l 69 226 b 307 -6 69 85 158 -6 l 604 -6 b 761 63 704 -6 726 18 l 776 63 l 776 22 b 796 0 776 8 788 0 l 965 0 b 988 22 979 0 988 8 l 988 672 b 965 694 988 686 979 694 z "},"ü":{"ha":1057,"x_min":0,"x_max":0,"o":"m 256 757 l 425 757 b 449 781 439 757 449 767 l 449 950 b 425 972 449 964 439 972 l 256 972 b 233 950 242 972 233 964 l 233 781 b 256 757 233 767 242 757 z m 614 757 l 783 757 b 806 781 797 757 806 767 l 806 950 b 783 972 806 964 797 972 l 614 972 b 590 950 600 972 590 964 l 590 781 b 614 757 590 767 600 757 z m 965 694 l 797 694 b 776 672 783 694 776 686 l 776 229 b 719 182 776 201 756 182 l 342 182 b 282 229 306 182 282 201 l 282 672 b 260 694 282 686 274 694 l 92 694 b 69 672 78 694 69 686 l 69 226 b 307 -6 69 85 158 -6 l 604 -6 b 761 63 704 -6 726 18 l 776 63 l 776 22 b 796 0 776 8 788 0 l 965 0 b 988 22 979 0 988 8 l 988 672 b 965 694 988 686 979 694 z "},"ù":{"ha":1057,"x_min":0,"x_max":0,"o":"m 547 947 b 518 972 540 964 532 972 l 308 972 b 294 947 293 972 282 963 l 417 789 b 451 763 425 776 438 763 l 593 763 b 608 788 608 763 615 769 z m 965 694 l 797 694 b 776 672 783 694 776 686 l 776 229 b 719 182 776 201 756 182 l 342 182 b 282 229 306 182 282 201 l 282 672 b 260 694 282 686 274 694 l 92 694 b 69 672 78 694 69 686 l 69 226 b 307 -6 69 85 158 -6 l 604 -6 b 761 63 704 -6 726 18 l 776 63 l 776 22 b 796 0 776 8 788 0 l 965 0 b 988 22 979 0 988 8 l 988 672 b 965 694 988 686 979 694 z "},"ű":{"ha":1057,"x_min":0,"x_max":0,"o":"m 347 947 l 288 788 b 303 763 281 769 286 763 l 443 763 b 479 788 457 763 471 775 l 601 947 b 594 972 614 963 607 972 l 374 972 b 347 947 360 972 354 964 z m 654 947 l 596 788 b 610 763 589 769 594 763 l 751 763 b 788 788 765 763 779 775 l 908 947 b 901 972 921 963 915 972 l 682 972 b 654 947 668 972 663 964 z m 965 694 l 797 694 b 776 672 783 694 776 686 l 776 229 b 719 182 776 201 756 182 l 342 182 b 282 229 306 182 282 201 l 282 672 b 260 694 282 686 274 694 l 92 694 b 69 672 78 694 69 686 l 69 226 b 307 -6 69 85 158 -6 l 604 -6 b 761 63 704 -6 726 18 l 776 63 l 776 22 b 796 0 776 8 788 0 l 965 0 b 988 22 979 0 988 8 l 988 672 b 965 694 988 686 979 694 z "},"ū":{"ha":1057,"x_min":0,"x_max":0,"o":"m 304 783 l 754 783 b 775 804 767 783 775 790 l 775 951 b 754 972 775 965 767 972 l 304 972 b 283 951 290 972 283 965 l 283 804 b 304 783 283 790 290 783 z m 965 694 l 797 694 b 776 672 783 694 776 686 l 776 229 b 719 182 776 201 756 182 l 342 182 b 282 229 306 182 282 201 l 282 672 b 260 694 282 686 274 694 l 92 694 b 69 672 78 694 69 686 l 69 226 b 307 -6 69 85 158 -6 l 604 -6 b 761 63 704 -6 726 18 l 776 63 l 776 22 b 796 0 776 8 788 0 l 965 0 b 988 22 979 0 988 8 l 988 672 b 965 694 988 686 979 694 z "},"ų":{"ha":1057,"x_min":0,"x_max":0,"o":"m 965 694 l 797 694 b 776 672 783 694 776 686 l 776 229 b 719 182 776 201 756 182 l 342 182 b 282 229 306 182 282 201 l 282 672 b 260 694 282 686 274 694 l 92 694 b 69 672 78 694 69 686 l 69 226 b 307 -6 69 85 158 -6 l 451 -6 b 401 -28 446 -19 433 -25 b 268 -147 325 -37 268 -49 b 415 -261 268 -243 326 -261 l 614 -261 b 628 -247 624 -261 628 -256 l 628 -151 b 614 -133 628 -142 622 -133 l 490 -133 b 542 -128 507 -132 524 -129 b 665 -1 600 -121 658 -107 b 761 63 717 7 735 29 l 776 63 l 776 22 b 796 0 776 8 788 0 l 965 0 b 988 22 979 0 988 8 l 988 672 b 965 694 988 686 979 694 z "},"ů":{"ha":1057,"x_min":0,"x_max":0,"o":"m 538 994 l 519 994 b 403 878 451 994 403 943 l 403 863 b 519 747 403 797 451 747 l 538 747 b 654 863 606 747 654 797 l 654 878 b 538 994 654 943 606 994 z m 550 876 l 550 868 b 535 853 550 861 543 853 l 522 853 b 510 868 517 853 510 861 l 510 876 b 522 889 510 881 517 889 l 535 889 b 550 876 543 889 550 881 z m 965 694 l 797 694 b 776 672 783 694 776 686 l 776 229 b 719 182 776 201 756 182 l 342 182 b 282 229 306 182 282 201 l 282 672 b 260 694 282 686 274 694 l 92 694 b 69 672 78 694 69 686 l 69 226 b 307 -6 69 85 158 -6 l 604 -6 b 761 63 704 -6 726 18 l 776 63 l 776 22 b 796 0 776 8 788 0 l 965 0 b 988 22 979 0 988 8 l 988 672 b 965 694 988 686 979 694 z "},"ũ":{"ha":1057,"x_min":0,"x_max":0,"o":"m 615 744 b 765 796 665 744 710 753 b 779 832 776 806 785 815 l 733 949 b 706 957 729 957 719 964 b 618 928 669 938 656 928 b 442 979 554 928 540 979 b 292 928 392 979 347 971 b 278 892 281 918 271 910 l 324 775 b 353 769 328 768 338 760 b 438 796 385 789 400 796 b 615 744 503 796 517 744 z m 965 694 l 797 694 b 776 672 783 694 776 686 l 776 229 b 719 182 776 201 756 182 l 342 182 b 282 229 306 182 282 201 l 282 672 b 260 694 282 686 274 694 l 92 694 b 69 672 78 694 69 686 l 69 226 b 307 -6 69 85 158 -6 l 604 -6 b 761 63 704 -6 726 18 l 776 63 l 776 22 b 796 0 776 8 788 0 l 965 0 b 988 22 979 0 988 8 l 988 672 b 965 694 988 686 979 694 z "},"v":{"ha":1167,"x_min":0,"x_max":0,"o":"m 50 671 l 467 29 b 501 0 481 7 483 0 l 665 0 b 700 29 683 0 686 7 l 1117 671 b 1097 694 1126 686 1111 694 l 907 694 b 868 671 892 694 881 689 l 593 253 l 574 253 l 299 671 b 260 694 286 689 275 694 l 69 694 b 50 671 56 694 40 686 z "},"w":{"ha":1836,"x_min":0,"x_max":0,"o":"m 1767 694 l 1578 694 b 1539 671 1563 694 1550 689 l 1306 257 l 1286 257 l 1051 671 b 1013 694 1042 689 1031 694 l 824 694 b 785 671 804 694 793 686 l 550 257 l 532 257 l 297 671 b 258 694 286 689 274 694 l 69 694 b 50 671 56 694 43 686 l 424 29 b 458 0 436 7 439 0 l 619 0 b 654 29 638 0 642 7 l 919 479 l 1182 29 b 1218 0 1194 7 1199 0 l 1378 0 b 1413 29 1397 0 1401 7 l 1786 671 b 1767 694 1793 686 1781 694 z "},"ẃ":{"ha":1836,"x_min":0,"x_max":0,"o":"m 903 947 l 843 788 b 858 763 836 769 842 763 l 999 763 b 1035 788 1013 763 1026 775 l 1157 947 b 1150 972 1169 963 1163 972 l 929 972 b 903 947 915 972 910 964 z m 1767 694 l 1578 694 b 1539 671 1563 694 1550 689 l 1306 257 l 1286 257 l 1051 671 b 1013 694 1042 689 1031 694 l 824 694 b 785 671 804 694 793 686 l 550 257 l 532 257 l 297 671 b 258 694 286 689 274 694 l 69 694 b 50 671 56 694 43 686 l 424 29 b 458 0 436 7 439 0 l 619 0 b 654 29 638 0 642 7 l 919 479 l 1182 29 b 1218 0 1194 7 1199 0 l 1378 0 b 1413 29 1397 0 1401 7 l 1786 671 b 1767 694 1793 686 1781 694 z "},"ŵ":{"ha":1836,"x_min":0,"x_max":0,"o":"m 829 972 b 790 951 814 972 800 965 l 649 790 b 661 761 636 776 647 761 l 819 761 b 867 790 843 761 854 775 l 911 844 l 925 844 l 969 790 b 1017 761 983 775 994 761 l 1176 761 b 1189 790 1190 761 1200 776 l 1047 951 b 1008 972 1038 963 1024 972 z m 1767 694 l 1578 694 b 1539 671 1563 694 1550 689 l 1306 257 l 1286 257 l 1051 671 b 1013 694 1042 689 1031 694 l 824 694 b 785 671 804 694 793 686 l 550 257 l 532 257 l 297 671 b 258 694 286 689 274 694 l 69 694 b 50 671 56 694 43 686 l 424 29 b 458 0 436 7 439 0 l 619 0 b 654 29 638 0 642 7 l 919 479 l 1182 29 b 1218 0 1194 7 1199 0 l 1378 0 b 1413 29 1397 0 1401 7 l 1786 671 b 1767 694 1793 686 1781 694 z "},"ẅ":{"ha":1836,"x_min":0,"x_max":0,"o":"m 644 757 l 814 757 b 838 781 828 757 838 767 l 838 950 b 814 972 838 964 828 972 l 644 972 b 622 950 631 972 622 964 l 622 781 b 644 757 622 767 631 757 z m 1003 757 l 1172 757 b 1194 781 1186 757 1194 767 l 1194 950 b 1172 972 1194 964 1186 972 l 1003 972 b 979 950 989 972 979 964 l 979 781 b 1003 757 979 767 989 757 z m 1767 694 l 1578 694 b 1539 671 1563 694 1550 689 l 1306 257 l 1286 257 l 1051 671 b 1013 694 1042 689 1031 694 l 824 694 b 785 671 804 694 793 686 l 550 257 l 532 257 l 297 671 b 258 694 286 689 274 694 l 69 694 b 50 671 56 694 43 686 l 424 29 b 458 0 436 7 439 0 l 619 0 b 654 29 638 0 642 7 l 919 479 l 1182 29 b 1218 0 1194 7 1199 0 l 1378 0 b 1413 29 1397 0 1401 7 l 1786 671 b 1767 694 1793 686 1781 694 z "},"ẁ":{"ha":1836,"x_min":0,"x_max":0,"o":"m 936 947 b 907 972 929 964 921 972 l 697 972 b 683 947 682 972 671 963 l 806 789 b 840 763 814 776 826 763 l 982 763 b 997 788 997 763 1004 769 z m 1767 694 l 1578 694 b 1539 671 1563 694 1550 689 l 1306 257 l 1286 257 l 1051 671 b 1013 694 1042 689 1031 694 l 824 694 b 785 671 804 694 793 686 l 550 257 l 532 257 l 297 671 b 258 694 286 689 274 694 l 69 694 b 50 671 56 694 43 686 l 424 29 b 458 0 436 7 439 0 l 619 0 b 654 29 638 0 642 7 l 919 479 l 1182 29 b 1218 0 1194 7 1199 0 l 1378 0 b 1413 29 1397 0 1401 7 l 1786 671 b 1767 694 1793 686 1781 694 z "},"x":{"ha":1038,"x_min":0,"x_max":0,"o":"m 657 347 l 982 668 b 967 694 996 679 983 694 l 751 694 b 706 669 740 694 726 690 l 518 485 l 331 669 b 286 694 310 690 297 694 l 71 694 b 54 668 54 694 42 679 l 379 347 l 54 26 b 72 0 39 13 56 0 l 288 0 b 332 25 299 0 311 4 l 518 210 l 704 25 b 750 0 725 4 739 0 l 965 0 b 982 26 982 0 996 13 z "},"y":{"ha":1167,"x_min":0,"x_max":0,"o":"m 1097 694 l 907 694 b 868 671 892 694 881 689 l 593 253 l 574 253 l 299 671 b 260 694 286 689 275 694 l 69 694 b 50 671 56 694 40 686 l 457 43 l 282 -228 b 300 -251 272 -243 286 -251 l 490 -251 b 529 -228 507 -251 517 -246 l 686 8 b 700 29 690 13 694 19 l 1117 671 b 1097 694 1126 686 1111 694 z "},"ý":{"ha":1167,"x_min":0,"x_max":0,"o":"m 524 763 l 664 763 b 700 788 678 763 692 775 l 822 947 b 815 972 835 963 828 972 l 594 972 b 568 947 581 972 575 964 l 508 788 b 524 763 501 769 507 763 z m 1097 694 l 907 694 b 868 671 892 694 881 689 l 593 253 l 574 253 l 299 671 b 260 694 286 689 275 694 l 69 694 b 50 671 56 694 40 686 l 457 43 l 282 -228 b 300 -251 272 -243 286 -251 l 490 -251 b 529 -228 507 -251 517 -246 l 686 8 b 700 29 690 13 694 19 l 1117 671 b 1097 694 1126 686 1111 694 z "},"ŷ":{"ha":1167,"x_min":0,"x_max":0,"o":"m 326 761 l 485 761 b 532 790 508 761 519 775 l 576 844 l 590 844 l 635 790 b 682 761 649 775 660 761 l 842 761 b 854 790 856 761 865 776 l 713 951 b 674 972 703 963 689 972 l 494 972 b 456 951 479 972 465 965 l 314 790 b 326 761 301 776 313 761 z m 1097 694 l 907 694 b 868 671 892 694 881 689 l 593 253 l 574 253 l 299 671 b 260 694 286 689 275 694 l 69 694 b 50 671 56 694 40 686 l 457 43 l 282 -228 b 300 -251 272 -243 286 -251 l 490 -251 b 529 -228 507 -251 517 -246 l 686 8 b 700 29 690 13 694 19 l 1117 671 b 1097 694 1126 686 1111 694 z "},"ÿ":{"ha":1167,"x_min":0,"x_max":0,"o":"m 310 757 l 479 757 b 503 781 493 757 503 767 l 503 950 b 479 972 503 964 493 972 l 310 972 b 288 950 296 972 288 964 l 288 781 b 310 757 288 767 296 757 z m 668 757 l 838 757 b 860 781 851 757 860 767 l 860 950 b 838 972 860 964 851 972 l 668 972 b 644 950 654 972 644 964 l 644 781 b 668 757 644 767 654 757 z m 1097 694 l 907 694 b 868 671 892 694 881 689 l 593 253 l 574 253 l 299 671 b 260 694 286 689 275 694 l 69 694 b 50 671 56 694 40 686 l 457 43 l 282 -228 b 300 -251 272 -243 286 -251 l 490 -251 b 529 -228 507 -251 517 -246 l 686 8 b 700 29 690 13 694 19 l 1117 671 b 1097 694 1126 686 1111 694 z "},"ỳ":{"ha":1167,"x_min":0,"x_max":0,"o":"m 471 789 b 506 763 479 776 492 763 l 647 763 b 663 788 663 763 669 769 l 601 947 b 572 972 594 964 586 972 l 363 972 b 349 947 347 972 336 963 z m 1097 694 l 907 694 b 868 671 892 694 881 689 l 593 253 l 574 253 l 299 671 b 260 694 286 689 275 694 l 69 694 b 50 671 56 694 40 686 l 457 43 l 282 -228 b 300 -251 272 -243 286 -251 l 490 -251 b 529 -228 507 -251 517 -246 l 686 8 b 700 29 690 13 694 19 l 1117 671 b 1097 694 1126 686 1111 694 z "},"z":{"ha":969,"x_min":0,"x_max":0,"o":"m 914 514 l 914 672 b 890 694 914 686 906 694 l 79 694 b 58 671 65 694 58 686 l 58 522 b 79 500 58 508 65 500 l 561 500 l 561 486 l 71 211 b 56 181 61 204 56 194 l 56 22 b 78 0 56 8 64 0 l 892 0 b 914 22 906 0 914 8 l 914 172 b 890 194 914 186 906 194 l 408 194 l 408 208 l 899 483 b 914 514 908 490 914 500 z "},"ź":{"ha":969,"x_min":0,"x_max":0,"o":"m 476 947 l 417 788 b 432 763 410 769 415 763 l 572 763 b 608 788 586 763 600 775 l 731 947 b 724 972 743 963 736 972 l 503 972 b 476 947 489 972 483 964 z m 914 514 l 914 672 b 890 694 914 686 906 694 l 79 694 b 58 671 65 694 58 686 l 58 522 b 79 500 58 508 65 500 l 561 500 l 561 486 l 71 211 b 56 181 61 204 56 194 l 56 22 b 78 0 56 8 64 0 l 892 0 b 914 22 906 0 914 8 l 914 172 b 890 194 914 186 906 194 l 408 194 l 408 208 l 899 483 b 914 514 908 490 914 500 z "},"ž":{"ha":969,"x_min":0,"x_max":0,"o":"m 403 761 l 582 761 b 621 781 597 761 611 771 l 763 943 b 750 972 774 957 764 972 l 590 972 b 543 943 568 972 557 958 l 499 889 l 485 889 l 440 943 b 393 972 428 958 417 972 l 235 972 b 222 943 221 972 210 957 l 364 781 b 403 761 374 767 388 761 z m 914 514 l 914 672 b 890 694 914 686 906 694 l 79 694 b 58 671 65 694 58 686 l 58 522 b 79 500 58 508 65 500 l 561 500 l 561 486 l 71 211 b 56 181 61 204 56 194 l 56 22 b 78 0 56 8 64 0 l 892 0 b 914 22 906 0 914 8 l 914 172 b 890 194 914 186 906 194 l 408 194 l 408 208 l 899 483 b 914 514 908 490 914 500 z "},"ż":{"ha":969,"x_min":0,"x_max":0,"o":"m 406 757 l 575 757 b 599 781 589 757 599 767 l 599 950 b 575 972 599 964 589 972 l 406 972 b 383 950 392 972 383 964 l 383 781 b 406 757 383 767 392 757 z m 914 514 l 914 672 b 890 694 914 686 906 694 l 79 694 b 58 671 65 694 58 686 l 58 522 b 79 500 58 508 65 500 l 561 500 l 561 486 l 71 211 b 56 181 61 204 56 194 l 56 22 b 78 0 56 8 64 0 l 892 0 b 914 22 906 0 914 8 l 914 172 b 890 194 914 186 906 194 l 408 194 l 408 208 l 899 483 b 914 514 908 490 914 500 z "},"ﬁ":{"ha":1197,"x_min":0,"x_max":0,"o":"m 1106 694 l 365 694 l 365 738 b 417 785 365 765 390 785 l 793 785 b 814 806 807 785 814 792 l 814 951 b 793 972 814 965 807 972 l 392 972 b 154 740 243 972 154 882 l 154 694 l 76 694 b 56 674 63 694 56 688 l 56 528 b 76 507 56 514 63 507 l 154 507 l 154 21 b 175 0 154 7 161 0 l 344 0 b 365 21 358 0 365 7 l 365 507 l 917 507 l 917 22 b 938 0 917 8 924 0 l 1106 0 b 1128 22 1119 0 1128 8 l 1128 672 b 1106 694 1128 686 1119 694 z m 1106 972 l 938 972 b 917 950 924 972 917 964 l 917 789 b 938 767 917 775 924 767 l 1106 767 b 1128 789 1119 767 1128 775 l 1128 950 b 1106 972 1128 964 1119 972 z "},"ﬂ":{"ha":1178,"x_min":0,"x_max":0,"o":"m 1086 972 l 392 972 b 154 740 243 972 154 882 l 154 694 l 76 694 b 56 674 63 694 56 688 l 56 528 b 76 507 56 514 63 507 l 154 507 l 154 21 b 175 0 154 7 161 0 l 344 0 b 365 21 358 0 365 7 l 365 507 l 779 507 b 800 528 793 507 800 514 l 800 674 b 779 694 800 688 793 694 l 365 694 l 365 738 b 417 785 365 765 390 785 l 897 785 l 897 22 b 918 0 897 8 904 0 l 1086 0 b 1108 22 1100 0 1108 8 l 1108 950 b 1086 972 1108 964 1100 972 z "},"ª":{"ha":451,"x_min":0,"x_max":0,"o":"m 257 979 l 226 979 b 99 946 178 979 132 967 b 94 922 93 942 93 931 l 114 875 b 135 869 118 865 128 867 b 210 881 160 876 189 881 l 232 881 b 279 843 261 881 279 871 l 183 843 b 69 732 104 843 69 806 b 183 624 69 653 122 624 l 200 624 b 279 658 226 624 253 639 l 279 642 b 299 624 279 626 288 624 l 361 624 b 382 642 372 624 382 626 l 382 843 b 257 979 382 921 335 979 z m 222 719 l 196 719 b 175 735 182 719 175 726 b 196 746 175 743 182 746 l 279 746 l 279 732 b 222 719 264 725 244 719 z "},"º":{"ha":476,"x_min":0,"x_max":0,"o":"m 263 979 l 214 979 b 69 829 128 979 69 918 l 69 775 b 214 624 69 683 128 624 l 263 624 b 407 775 347 624 407 683 l 407 829 b 263 979 407 918 347 979 z m 304 819 l 304 786 b 261 729 304 757 283 729 l 218 729 b 171 786 190 729 171 757 l 171 819 b 218 874 171 850 190 874 l 261 874 b 304 819 283 874 304 850 z "},"А":{"ha":1556,"x_min":0,"x_max":0,"o":"m 1496 29 l 903 950 b 871 972 894 964 886 972 l 685 972 b 654 950 669 972 663 964 l 60 29 b 71 0 47 11 57 0 l 279 0 b 311 25 294 0 301 10 l 394 154 l 1161 154 l 1244 25 b 1278 0 1254 10 1261 0 l 1485 0 b 1496 29 1499 0 1508 11 z m 515 343 l 769 738 l 788 738 l 1040 343 z "},"Б":{"ha":1350,"x_min":0,"x_max":0,"o":"m 1026 650 l 311 650 l 311 786 l 797 786 b 819 797 811 786 819 794 l 819 950 b 797 972 819 964 811 972 l 113 972 b 90 950 99 972 90 964 l 90 22 b 113 0 90 8 99 0 l 1026 0 b 1274 254 1199 0 1274 96 l 1274 396 b 1026 650 1274 554 1199 650 z m 1053 269 b 976 193 1053 213 1028 193 l 311 193 l 311 457 l 976 457 b 1053 381 1028 457 1053 438 z "},"В":{"ha":1393,"x_min":0,"x_max":0,"o":"m 1190 494 l 1190 513 b 1283 697 1258 546 1283 608 l 1283 722 b 1014 972 1283 894 1199 972 l 111 972 b 90 951 97 972 90 965 l 90 21 b 111 0 90 7 97 0 l 1022 0 b 1317 268 1229 0 1317 100 l 1317 326 b 1190 494 1317 403 1278 460 z m 1067 697 l 1067 667 b 985 583 1067 589 1029 583 l 311 583 l 311 779 l 985 779 b 1067 697 1029 779 1067 779 z m 1100 274 b 1007 193 1100 213 1069 193 l 311 193 l 311 408 l 1007 408 b 1100 326 1069 408 1100 385 z "},"Г":{"ha":1279,"x_min":0,"x_max":0,"o":"m 1194 972 l 113 972 b 90 951 99 972 90 964 l 90 22 b 113 0 90 8 99 0 l 285 0 b 307 22 299 0 307 8 l 307 779 l 1194 779 b 1217 800 1208 779 1217 786 l 1217 950 b 1194 972 1217 964 1208 972 z "},"Ѓ":{"ha":1279,"x_min":0,"x_max":0,"o":"m 589 1040 l 729 1040 b 765 1065 743 1040 757 1053 l 888 1225 b 881 1250 900 1240 893 1250 l 660 1250 b 633 1225 646 1250 640 1242 l 574 1065 b 589 1040 567 1047 572 1040 z m 1194 972 l 113 972 b 90 951 99 972 90 964 l 90 22 b 113 0 90 8 99 0 l 285 0 b 307 22 299 0 307 8 l 307 779 l 1194 779 b 1217 800 1208 779 1217 786 l 1217 950 b 1194 972 1217 964 1208 972 z "},"Ґ":{"ha":1279,"x_min":0,"x_max":0,"o":"m 1194 1064 l 1022 1064 b 1000 1042 1008 1064 1000 1056 l 1000 972 l 113 972 b 90 951 99 972 90 964 l 90 22 b 113 0 90 8 99 0 l 285 0 b 307 22 299 0 307 8 l 307 779 l 1194 779 b 1217 800 1208 779 1217 786 l 1217 1042 b 1194 1064 1217 1056 1208 1064 z "},"Д":{"ha":1511,"x_min":0,"x_max":0,"o":"m 1463 193 l 1389 193 l 1389 951 b 1368 972 1389 965 1382 972 l 210 972 b 189 951 196 972 189 965 l 189 425 b 85 193 189 281 144 193 l 49 193 b 28 172 35 193 28 186 l 28 -112 b 50 -135 28 -126 36 -135 l 222 -135 b 244 -112 236 -135 244 -126 l 244 0 l 1267 0 l 1267 -112 b 1289 -135 1267 -126 1275 -135 l 1461 -135 b 1483 -112 1475 -135 1483 -126 l 1483 172 b 1463 193 1483 186 1476 193 z m 353 193 b 406 425 390 246 406 321 l 406 779 l 1172 779 l 1172 193 z "},"Е":{"ha":1307,"x_min":0,"x_max":0,"o":"m 1210 193 l 311 193 l 311 389 l 1189 389 b 1210 410 1203 389 1210 396 l 1210 563 b 1189 583 1210 576 1203 583 l 311 583 l 311 779 l 1203 779 b 1224 800 1217 779 1224 786 l 1224 951 b 1203 972 1224 965 1217 972 l 113 972 b 90 950 99 972 90 964 l 90 22 b 113 0 90 8 99 0 l 1210 0 b 1231 21 1224 0 1231 7 l 1231 172 b 1210 193 1231 186 1224 193 z "},"Ё":{"ha":1307,"x_min":0,"x_max":0,"o":"m 394 1035 l 564 1035 b 588 1058 578 1035 588 1044 l 588 1228 b 564 1250 588 1242 578 1250 l 394 1250 b 372 1228 381 1250 372 1242 l 372 1058 b 394 1035 372 1044 381 1035 z m 753 1035 l 922 1035 b 944 1058 936 1035 944 1044 l 944 1228 b 922 1250 944 1242 936 1250 l 753 1250 b 729 1228 739 1250 729 1242 l 729 1058 b 753 1035 729 1044 739 1035 z m 1210 193 l 311 193 l 311 389 l 1189 389 b 1210 410 1203 389 1210 396 l 1210 563 b 1189 583 1210 576 1203 583 l 311 583 l 311 779 l 1203 779 b 1224 800 1217 779 1224 786 l 1224 951 b 1203 972 1224 965 1217 972 l 113 972 b 90 950 99 972 90 964 l 90 22 b 113 0 90 8 99 0 l 1210 0 b 1231 21 1224 0 1231 7 l 1231 172 b 1210 193 1231 186 1224 193 z "},"Ж":{"ha":2439,"x_min":0,"x_max":0,"o":"m 2385 38 l 1774 575 l 2339 932 b 2335 972 2361 947 2351 972 l 2090 972 b 2021 944 2065 972 2043 958 l 1332 514 l 1332 950 b 1310 972 1332 964 1324 972 l 1129 972 b 1108 950 1115 972 1108 964 l 1108 514 l 419 944 b 349 972 397 958 375 972 l 106 972 b 100 932 88 972 78 947 l 667 575 l 54 38 b 68 0 43 25 44 0 l 285 0 b 335 24 307 0 317 8 l 838 467 l 1108 296 l 1108 22 b 1129 0 1108 8 1115 0 l 1310 0 b 1332 22 1324 0 1332 8 l 1332 296 l 1601 467 l 2106 24 b 2154 0 2122 8 2132 0 l 2372 0 b 2385 38 2394 0 2396 25 z "},"З":{"ha":1329,"x_min":0,"x_max":0,"o":"m 1104 488 l 1104 504 b 1254 708 1201 525 1254 565 b 969 979 1254 847 1185 979 l 378 979 b 74 715 158 979 74 890 l 74 686 b 97 663 74 671 82 663 l 263 663 b 285 686 276 663 285 671 b 378 792 285 768 321 792 l 958 792 b 1043 708 1008 792 1043 760 b 939 589 1043 653 1060 589 l 369 589 b 343 564 351 589 343 581 l 343 428 b 369 401 343 411 351 401 l 939 401 b 1056 264 1060 401 1056 346 b 974 181 1056 214 1024 181 l 367 181 b 274 286 310 181 274 204 b 251 310 274 301 265 310 l 86 310 b 63 286 71 310 63 301 l 63 257 b 367 -7 63 82 147 -7 l 985 -7 b 1267 264 1201 -7 1267 125 b 1104 488 1267 435 1201 468 z "},"И":{"ha":1414,"x_min":0,"x_max":0,"o":"m 1301 0 b 1324 22 1315 0 1324 8 l 1324 950 b 1301 972 1324 964 1315 972 l 1094 972 b 1064 956 1082 972 1076 967 l 331 261 l 311 261 l 311 950 b 290 972 311 964 304 972 l 113 972 b 90 950 99 972 90 964 l 90 22 b 113 0 90 8 99 0 l 319 0 b 350 17 332 0 338 6 l 1083 711 l 1103 711 l 1103 22 b 1124 0 1103 8 1110 0 z "},"Й":{"ha":1414,"x_min":0,"x_max":0,"o":"m 640 1015 l 739 1015 b 944 1226 881 1015 944 1083 b 922 1250 944 1242 936 1250 l 794 1250 b 772 1226 781 1250 775 1242 b 707 1157 767 1192 761 1157 l 674 1157 b 608 1226 619 1157 614 1192 b 585 1250 606 1242 599 1250 l 458 1250 b 436 1226 444 1250 436 1242 b 640 1015 436 1083 499 1015 z m 1301 0 b 1324 22 1315 0 1324 8 l 1324 950 b 1301 972 1324 964 1315 972 l 1094 972 b 1064 956 1082 972 1076 967 l 331 261 l 311 261 l 311 950 b 290 972 311 964 304 972 l 113 972 b 90 950 99 972 90 964 l 90 22 b 113 0 90 8 99 0 l 319 0 b 350 17 332 0 338 6 l 1083 711 l 1103 711 l 1103 22 b 1124 0 1103 8 1110 0 z "},"Ѝ":{"ha":1414,"x_min":0,"x_max":0,"o":"m 708 1225 b 679 1250 701 1242 693 1250 l 469 1250 b 456 1225 454 1250 443 1240 l 578 1067 b 613 1040 586 1054 599 1040 l 754 1040 b 769 1065 769 1040 776 1047 z m 1301 0 b 1324 22 1315 0 1324 8 l 1324 950 b 1301 972 1324 964 1315 972 l 1094 972 b 1064 956 1082 972 1076 967 l 331 261 l 311 261 l 311 950 b 290 972 311 964 304 972 l 113 972 b 90 950 99 972 90 964 l 90 22 b 113 0 90 8 99 0 l 319 0 b 350 17 332 0 338 6 l 1083 711 l 1103 711 l 1103 22 b 1124 0 1103 8 1110 0 z "},"К":{"ha":1419,"x_min":0,"x_max":0,"o":"m 1365 38 l 753 575 l 1319 932 b 1314 972 1342 947 1332 972 l 1071 972 b 1000 944 1044 972 1022 958 l 311 514 l 311 950 b 290 972 311 964 304 972 l 113 972 b 90 950 99 972 90 964 l 90 22 b 113 0 90 8 99 0 l 290 0 b 311 22 304 0 311 8 l 311 296 l 582 467 l 1085 24 b 1135 0 1103 8 1113 0 l 1351 0 b 1365 38 1375 0 1376 25 z "},"Ќ":{"ha":1419,"x_min":0,"x_max":0,"o":"m 635 1040 l 775 1040 b 811 1065 789 1040 803 1053 l 933 1225 b 926 1250 946 1240 939 1250 l 706 1250 b 679 1225 692 1250 686 1242 l 619 1065 b 635 1040 613 1047 618 1040 z m 1365 38 l 753 575 l 1319 932 b 1314 972 1342 947 1332 972 l 1071 972 b 1000 944 1044 972 1022 958 l 311 514 l 311 950 b 290 972 311 964 304 972 l 113 972 b 90 950 99 972 90 964 l 90 22 b 113 0 90 8 99 0 l 290 0 b 311 22 304 0 311 8 l 311 296 l 582 467 l 1085 24 b 1135 0 1103 8 1113 0 l 1351 0 b 1365 38 1375 0 1376 25 z "},"Л":{"ha":1501,"x_min":0,"x_max":0,"o":"m 1390 972 l 218 972 b 197 951 204 972 197 965 l 197 325 b 103 219 197 233 156 219 b 76 197 89 219 76 214 l 76 18 b 101 -6 76 4 85 -6 l 176 -6 b 414 236 318 -6 414 67 l 414 779 l 1194 779 l 1194 22 b 1217 0 1194 8 1203 0 l 1389 0 b 1411 22 1403 0 1411 8 l 1411 951 b 1390 972 1411 965 1404 972 z "},"М":{"ha":1671,"x_min":0,"x_max":0,"o":"m 113 0 l 290 0 b 311 22 304 0 311 8 l 311 676 l 326 676 l 726 22 b 760 0 735 8 744 0 l 911 0 b 944 22 926 0 936 8 l 1344 676 l 1360 676 l 1360 22 b 1381 0 1360 8 1367 0 l 1558 0 b 1581 22 1572 0 1581 8 l 1581 950 b 1558 972 1581 964 1572 972 l 1301 972 b 1271 951 1288 972 1279 965 l 844 256 l 826 256 l 400 951 b 369 972 392 965 383 972 l 113 972 b 90 950 99 972 90 964 l 90 22 b 113 0 90 8 99 0 z "},"Н":{"ha":1400,"x_min":0,"x_max":0,"o":"m 1288 972 l 1110 972 b 1089 950 1096 972 1089 964 l 1089 583 l 311 583 l 311 950 b 290 972 311 964 304 972 l 113 972 b 90 950 99 972 90 964 l 90 22 b 113 0 90 8 99 0 l 290 0 b 311 22 304 0 311 8 l 311 389 l 1089 389 l 1089 22 b 1110 0 1089 8 1096 0 l 1288 0 b 1310 22 1301 0 1310 8 l 1310 950 b 1288 972 1310 964 1301 972 z "},"О":{"ha":1421,"x_min":0,"x_max":0,"o":"m 342 -6 l 1079 -6 b 1338 249 1251 -6 1338 90 l 1338 724 b 1079 978 1338 882 1251 978 l 342 978 b 83 724 169 978 83 882 l 83 249 b 342 -6 83 90 169 -6 z m 393 188 b 304 264 342 188 304 207 l 304 708 b 393 785 304 765 342 785 l 1028 785 b 1117 708 1079 785 1117 765 l 1117 264 b 1028 188 1117 207 1079 188 z "},"П":{"ha":1394,"x_min":0,"x_max":0,"o":"m 1283 972 l 111 972 b 90 951 97 972 90 965 l 90 22 b 113 0 90 8 99 0 l 285 0 b 307 22 299 0 307 8 l 307 779 l 1088 779 l 1088 22 b 1111 0 1088 8 1097 0 l 1282 0 b 1304 22 1296 0 1304 8 l 1304 951 b 1283 972 1304 965 1297 972 z "},"Р":{"ha":1357,"x_min":0,"x_max":0,"o":"m 1026 972 l 113 972 b 90 950 99 972 90 964 l 90 22 b 113 0 90 8 99 0 l 290 0 b 311 22 304 0 311 8 l 311 189 l 1026 189 b 1274 442 1199 189 1274 285 l 1274 718 b 1026 972 1274 876 1199 972 z m 1053 458 b 976 382 1053 401 1028 382 l 311 382 l 311 779 l 976 779 b 1053 703 1028 779 1053 760 z "},"С":{"ha":1414,"x_min":0,"x_max":0,"o":"m 1140 619 l 1313 619 b 1338 643 1328 619 1338 628 l 1338 724 b 1092 978 1338 882 1264 978 l 342 978 b 83 724 169 978 83 882 l 83 249 b 342 -6 83 90 169 -6 l 1092 -6 b 1338 254 1264 -6 1338 90 l 1338 294 b 1313 318 1338 310 1328 318 l 1140 318 b 1117 294 1125 318 1117 310 l 1117 269 b 1044 188 1117 206 1096 188 l 393 188 b 304 264 342 188 304 207 l 304 708 b 393 785 304 765 342 785 l 1046 785 b 1117 708 1096 785 1117 765 l 1117 643 b 1140 619 1117 628 1125 619 z "},"Т":{"ha":1356,"x_min":0,"x_max":0,"o":"m 1271 972 l 85 972 b 63 950 71 972 63 964 l 63 800 b 85 779 63 786 71 779 l 569 779 l 569 22 b 592 0 569 8 578 0 l 764 0 b 786 22 778 0 786 8 l 786 779 l 1271 779 b 1293 800 1285 779 1293 786 l 1293 950 b 1271 972 1293 964 1285 972 z "},"У":{"ha":1292,"x_min":0,"x_max":0,"o":"m 1215 972 l 1031 972 b 994 949 1014 972 1006 965 l 646 501 l 297 949 b 261 972 286 965 278 972 l 76 972 b 60 946 63 972 47 963 l 526 349 l 275 26 b 292 0 261 10 276 0 l 475 0 b 513 24 492 0 501 7 l 1232 946 b 1215 972 1244 963 1229 972 z "},"Ў":{"ha":1292,"x_min":0,"x_max":0,"o":"m 588 1015 l 686 1015 b 892 1226 828 1015 892 1083 b 869 1250 892 1242 883 1250 l 742 1250 b 719 1226 728 1250 722 1242 b 654 1157 714 1192 708 1157 l 621 1157 b 556 1226 567 1157 561 1192 b 532 1250 553 1242 546 1250 l 406 1250 b 383 1226 392 1250 383 1242 b 588 1015 383 1083 446 1015 z m 1215 972 l 1031 972 b 994 949 1014 972 1006 965 l 646 501 l 297 949 b 261 972 286 965 278 972 l 76 972 b 60 946 63 972 47 963 l 526 349 l 275 26 b 292 0 261 10 276 0 l 475 0 b 513 24 492 0 501 7 l 1232 946 b 1215 972 1244 963 1229 972 z "},"Ф":{"ha":1421,"x_min":0,"x_max":0,"o":"m 1079 839 l 821 839 l 821 950 b 799 972 821 964 813 972 l 621 972 b 600 950 607 972 600 964 l 600 839 l 342 839 b 83 585 169 839 83 743 l 83 388 b 342 133 83 229 169 133 l 600 133 l 600 22 b 621 0 600 8 607 0 l 799 0 b 821 22 813 0 821 8 l 821 133 l 1079 133 b 1338 388 1251 133 1338 229 l 1338 585 b 1079 839 1338 743 1251 839 z m 393 326 b 304 403 342 326 304 346 l 304 569 b 393 646 304 626 342 646 l 600 646 l 600 326 z m 1117 403 b 1028 326 1117 346 1079 326 l 821 326 l 821 646 l 1028 646 b 1117 569 1079 646 1117 626 z "},"Х":{"ha":1414,"x_min":0,"x_max":0,"o":"m 1344 38 l 854 486 l 1344 935 b 1335 972 1374 961 1351 972 l 1107 972 b 1065 951 1093 972 1083 968 l 707 621 l 346 951 b 306 972 331 965 318 972 l 78 972 b 71 935 61 972 40 961 l 560 486 l 71 38 b 78 0 40 11 61 0 l 306 0 b 346 24 318 0 331 10 l 707 353 l 1065 24 b 1107 0 1083 7 1096 0 l 1336 0 b 1344 38 1353 0 1374 11 z "},"Ч":{"ha":1425,"x_min":0,"x_max":0,"o":"m 1313 972 l 1135 972 b 1114 950 1121 972 1114 964 l 1114 469 b 1025 393 1114 413 1076 393 l 400 393 b 311 469 349 393 311 413 l 311 950 b 290 972 311 964 304 972 l 113 972 b 90 950 99 972 90 964 l 90 454 b 349 200 90 296 176 200 l 958 200 b 1114 246 1029 200 1079 217 l 1114 22 b 1135 0 1114 8 1121 0 l 1313 0 b 1335 22 1326 0 1335 8 l 1335 950 b 1313 972 1335 964 1326 972 z "},"Ц":{"ha":1440,"x_min":0,"x_max":0,"o":"m 1378 193 l 1304 193 l 1304 950 b 1282 972 1304 964 1296 972 l 1111 972 b 1088 950 1097 972 1088 964 l 1088 193 l 307 193 l 307 950 b 285 972 307 964 299 972 l 113 972 b 90 950 99 972 90 964 l 90 21 b 111 0 90 7 97 0 l 1182 0 l 1182 -112 b 1204 -135 1182 -126 1190 -135 l 1376 -135 b 1399 -112 1390 -135 1399 -126 l 1399 172 b 1378 193 1399 186 1392 193 z "},"Ш":{"ha":1842,"x_min":0,"x_max":0,"o":"m 111 0 l 1731 0 b 1751 21 1744 0 1751 7 l 1751 950 b 1729 972 1751 964 1743 972 l 1557 972 b 1535 950 1543 972 1535 964 l 1535 193 l 1029 193 l 1029 950 b 1007 972 1029 964 1021 972 l 835 972 b 813 950 821 972 813 964 l 813 193 l 307 193 l 307 950 b 285 972 307 964 299 972 l 113 972 b 90 950 99 972 90 964 l 90 21 b 111 0 90 7 97 0 z "},"Щ":{"ha":1888,"x_min":0,"x_max":0,"o":"m 1825 193 l 1751 193 l 1751 950 b 1729 972 1751 964 1743 972 l 1557 972 b 1535 950 1543 972 1535 964 l 1535 193 l 1029 193 l 1029 950 b 1007 972 1029 964 1021 972 l 835 972 b 813 950 821 972 813 964 l 813 193 l 307 193 l 307 950 b 285 972 307 964 299 972 l 113 972 b 90 950 99 972 90 964 l 90 21 b 111 0 90 7 97 0 l 1629 0 l 1629 -112 b 1651 -135 1629 -126 1638 -135 l 1822 -135 b 1846 -112 1836 -135 1846 -126 l 1846 172 b 1825 193 1846 186 1839 193 z "},"Ь":{"ha":1357,"x_min":0,"x_max":0,"o":"m 1026 783 l 311 783 l 311 950 b 290 972 311 964 304 972 l 113 972 b 90 950 99 972 90 964 l 90 22 b 113 0 90 8 99 0 l 1026 0 b 1274 254 1199 0 1274 96 l 1274 531 b 1026 783 1274 688 1199 783 z m 1053 269 b 976 193 1053 213 1028 193 l 311 193 l 311 590 l 976 590 b 1053 514 1028 590 1053 571 z "},"Ъ":{"ha":1474,"x_min":0,"x_max":0,"o":"m 1143 783 l 428 783 l 428 950 b 407 972 428 964 421 972 l 64 972 b 42 950 50 972 42 964 l 42 786 b 64 764 42 772 50 764 l 207 764 l 207 22 b 229 0 207 8 215 0 l 1143 0 b 1390 254 1315 0 1390 96 l 1390 531 b 1143 783 1390 688 1315 783 z m 1169 269 b 1093 193 1169 213 1144 193 l 428 193 l 428 590 l 1093 590 b 1169 514 1144 590 1169 571 z "},"Ы":{"ha":1758,"x_min":0,"x_max":0,"o":"m 1026 783 l 311 783 l 311 950 b 290 972 311 964 304 972 l 113 972 b 90 950 99 972 90 964 l 90 22 b 113 0 90 8 99 0 l 1026 0 b 1274 254 1199 0 1274 96 l 1274 531 b 1026 783 1274 688 1199 783 z m 1647 972 l 1469 972 b 1447 950 1456 972 1447 964 l 1447 22 b 1469 0 1447 8 1456 0 l 1647 0 b 1668 22 1661 0 1668 8 l 1668 950 b 1647 972 1668 964 1661 972 z m 1053 269 b 976 193 1053 213 1028 193 l 311 193 l 311 590 l 976 590 b 1053 514 1028 590 1053 571 z "},"Є":{"ha":1414,"x_min":0,"x_max":0,"o":"m 1140 619 l 1313 619 b 1338 643 1328 619 1338 628 l 1338 724 b 1092 978 1338 882 1264 978 l 342 978 b 83 724 169 978 83 882 l 83 249 b 342 -6 83 90 169 -6 l 1092 -6 b 1338 254 1264 -6 1338 90 l 1338 294 b 1313 318 1338 310 1328 318 l 1140 318 b 1117 294 1125 318 1117 310 l 1117 269 b 1044 188 1117 206 1096 188 l 393 188 b 304 264 342 188 304 207 l 304 392 l 661 392 b 683 414 675 392 683 400 l 683 560 b 661 582 683 574 675 582 l 304 582 l 304 708 b 393 785 304 765 342 785 l 1046 785 b 1117 708 1096 785 1117 765 l 1117 643 b 1140 619 1117 628 1125 619 z "},"Э":{"ha":1414,"x_min":0,"x_max":0,"o":"m 1072 978 l 322 978 b 76 724 150 978 76 882 l 76 643 b 101 619 76 628 86 619 l 274 619 b 297 643 289 619 297 628 l 297 708 b 368 785 297 765 318 785 l 1021 785 b 1110 708 1072 785 1110 765 l 1110 582 l 753 582 b 731 560 739 582 731 574 l 731 414 b 753 392 731 400 739 392 l 1110 392 l 1110 264 b 1021 188 1110 207 1072 188 l 369 188 b 297 269 318 188 297 206 l 297 294 b 274 318 297 310 289 318 l 101 318 b 76 294 86 318 76 310 l 76 254 b 322 -6 76 90 150 -6 l 1072 -6 b 1331 249 1244 -6 1331 90 l 1331 724 b 1072 978 1331 882 1244 978 z "},"І":{"ha":401,"x_min":0,"x_max":0,"o":"m 90 950 l 90 22 b 113 0 90 8 99 0 l 290 0 b 311 22 304 0 311 8 l 311 950 b 290 972 311 964 304 972 l 113 972 b 90 950 99 972 90 964 z "},"Ї":{"ha":401,"x_min":0,"x_max":0,"o":"m -74 1035 l 96 1035 b 119 1058 110 1035 119 1044 l 119 1228 b 96 1250 119 1242 110 1250 l -74 1250 b -96 1228 -87 1250 -96 1242 l -96 1058 b -74 1035 -96 1044 -87 1035 z m 285 1035 l 454 1035 b 476 1058 468 1035 476 1044 l 476 1228 b 454 1250 476 1242 468 1250 l 285 1250 b 261 1228 271 1250 261 1242 l 261 1058 b 285 1035 261 1044 271 1035 z m 90 950 l 90 22 b 113 0 90 8 99 0 l 290 0 b 311 22 304 0 311 8 l 311 950 b 290 972 311 964 304 972 l 113 972 b 90 950 99 972 90 964 z "},"Ј":{"ha":1363,"x_min":0,"x_max":0,"o":"m 99 0 l 1024 0 b 1272 254 1196 0 1272 96 l 1272 950 b 1250 972 1272 964 1264 972 l 1072 972 b 1051 950 1058 972 1051 964 l 1051 269 b 974 193 1051 213 1025 193 l 99 193 b 76 172 85 193 76 186 l 76 22 b 99 0 76 8 85 0 z "},"Ю":{"ha":1832,"x_min":0,"x_max":0,"o":"m 1490 978 l 753 978 b 494 724 581 978 494 882 l 494 597 l 311 597 l 311 950 b 290 972 311 964 304 972 l 113 972 b 90 950 99 972 90 964 l 90 22 b 113 0 90 8 99 0 l 290 0 b 311 22 304 0 311 8 l 311 410 l 494 410 l 494 249 b 753 -6 494 90 581 -6 l 1490 -6 b 1749 249 1663 -6 1749 90 l 1749 724 b 1490 978 1749 882 1663 978 z m 1528 264 b 1439 188 1528 207 1490 188 l 804 188 b 715 264 753 188 715 207 l 715 708 b 804 785 715 765 753 785 l 1439 785 b 1528 708 1490 785 1528 765 z "},"Я":{"ha":1375,"x_min":0,"x_max":0,"o":"m 1263 972 l 349 972 b 101 718 176 972 101 876 l 101 506 b 242 269 101 386 144 303 l 88 36 b 114 0 74 17 90 0 l 275 0 b 314 24 292 0 303 8 l 469 253 l 1064 253 l 1064 22 b 1085 0 1064 8 1071 0 l 1263 0 b 1285 22 1276 0 1285 8 l 1285 950 b 1263 972 1285 964 1276 972 z m 400 446 b 322 522 349 446 322 465 l 322 703 b 400 779 322 760 349 779 l 1064 779 l 1064 446 z "},"Ӏ":{"ha":401,"x_min":0,"x_max":0,"o":"m 90 950 l 90 22 b 113 0 90 8 99 0 l 290 0 b 311 22 304 0 311 8 l 311 950 b 290 972 311 964 304 972 l 113 972 b 90 950 99 972 90 964 z "},"Ӣ":{"ha":1414,"x_min":0,"x_max":0,"o":"m 467 1061 l 917 1061 b 938 1082 929 1061 938 1068 l 938 1229 b 917 1250 938 1243 929 1250 l 467 1250 b 446 1229 453 1250 446 1243 l 446 1082 b 467 1061 446 1068 453 1061 z m 1301 0 b 1324 22 1315 0 1324 8 l 1324 950 b 1301 972 1324 964 1315 972 l 1094 972 b 1064 956 1082 972 1076 967 l 331 261 l 311 261 l 311 950 b 290 972 311 964 304 972 l 113 972 b 90 950 99 972 90 964 l 90 22 b 113 0 90 8 99 0 l 319 0 b 350 17 332 0 338 6 l 1083 711 l 1103 711 l 1103 22 b 1124 0 1103 8 1110 0 z "},"Ө":{"ha":1421,"x_min":0,"x_max":0,"o":"m 1079 978 l 342 978 b 83 724 169 978 83 882 l 83 249 b 342 -6 83 90 169 -6 l 1079 -6 b 1338 249 1251 -6 1338 90 l 1338 724 b 1079 978 1338 882 1251 978 z m 393 785 l 1028 785 b 1117 708 1079 785 1117 765 l 1117 581 l 304 581 l 304 708 b 393 785 304 765 342 785 z m 1028 188 l 393 188 b 304 264 342 188 304 207 l 304 393 l 1117 393 l 1117 264 b 1028 188 1117 207 1079 188 z "},"Ӭ":{"ha":1356,"x_min":0,"x_max":0,"o":"m 432 1035 l 601 1035 b 625 1058 615 1035 625 1044 l 625 1228 b 601 1250 625 1242 615 1250 l 432 1250 b 410 1228 418 1250 410 1242 l 410 1058 b 432 1035 410 1044 418 1035 z m 790 1035 l 960 1035 b 982 1058 974 1035 982 1044 l 982 1228 b 960 1250 982 1242 974 1250 l 790 1250 b 767 1228 776 1250 767 1242 l 767 1058 b 790 1035 767 1044 776 1035 z m 1072 978 l 322 978 b 76 724 150 978 76 882 l 76 643 b 101 619 76 628 86 619 l 274 619 b 297 643 289 619 297 628 l 297 708 b 368 785 297 765 318 785 l 1021 785 b 1110 708 1072 785 1110 765 l 1110 582 l 753 582 b 731 560 739 582 731 574 l 731 414 b 753 392 731 400 739 392 l 1110 392 l 1110 264 b 1021 188 1110 207 1072 188 l 369 188 b 297 269 318 188 297 206 l 297 294 b 274 318 297 310 289 318 l 101 318 b 76 294 86 318 76 310 l 76 254 b 322 -6 76 90 150 -6 l 1072 -6 b 1331 249 1244 -6 1331 90 l 1331 724 b 1072 978 1331 882 1244 978 z "},"Ӯ":{"ha":1292,"x_min":0,"x_max":0,"o":"m 413 1061 l 863 1061 b 883 1082 875 1061 883 1068 l 883 1229 b 863 1250 883 1243 875 1250 l 413 1250 b 392 1229 399 1250 392 1243 l 392 1082 b 413 1061 392 1068 399 1061 z m 1215 972 l 1031 972 b 994 949 1014 972 1006 965 l 646 501 l 297 949 b 261 972 286 965 278 972 l 76 972 b 60 946 63 972 47 963 l 526 349 l 275 26 b 292 0 261 10 276 0 l 475 0 b 513 24 492 0 501 7 l 1232 946 b 1215 972 1244 963 1229 972 z "},"а":{"ha":1044,"x_min":0,"x_max":0,"o":"m 276 -7 l 567 -7 b 750 90 667 -7 714 38 l 764 90 l 764 22 b 785 0 764 8 771 0 l 953 0 b 975 22 967 0 975 8 l 975 472 b 707 700 975 625 885 700 l 318 700 b 90 510 167 700 90 644 b 133 467 90 482 101 467 l 269 467 b 303 492 289 467 297 476 b 371 515 317 510 347 515 l 671 515 b 764 465 725 515 764 515 l 764 421 l 274 421 b 42 217 104 421 42 358 b 276 -7 42 74 135 -7 z m 282 181 b 251 219 268 181 251 189 b 282 261 251 254 268 261 l 764 261 l 764 232 b 708 181 764 217 790 181 z "},"б":{"ha":1050,"x_min":0,"x_max":0,"o":"m 453 -7 l 750 -7 b 988 228 899 -7 988 86 l 988 468 b 750 700 988 610 899 700 l 453 700 b 296 632 353 700 331 676 l 281 632 l 281 693 b 340 757 281 729 296 757 b 571 751 390 757 533 751 b 781 939 732 751 781 836 b 757 972 781 960 778 972 l 590 972 b 561 965 581 972 567 974 b 465 938 550 949 521 938 b 275 946 425 938 354 946 b 69 722 132 946 69 894 l 69 22 b 92 0 69 8 78 0 l 260 0 b 281 22 274 0 281 8 l 281 61 l 296 61 b 453 -7 331 17 353 -7 z m 315 181 b 281 229 301 181 281 200 l 281 465 b 315 513 281 493 301 513 l 724 513 b 775 465 751 513 775 493 l 775 229 b 724 181 775 200 751 181 z "},"в":{"ha":983,"x_min":0,"x_max":0,"o":"m 90 0 l 693 0 b 921 189 840 0 921 58 b 808 344 921 267 897 315 l 808 356 b 906 499 899 383 906 444 b 693 694 906 646 835 694 l 90 694 b 69 674 76 694 69 688 l 69 21 b 90 0 69 7 76 0 z m 281 436 l 281 510 l 672 510 b 696 476 683 510 696 503 b 656 436 696 429 668 436 z m 281 185 l 281 275 l 665 275 b 711 233 686 275 711 274 b 668 185 711 203 693 185 z "},"г":{"ha":953,"x_min":0,"x_max":0,"o":"m 875 694 l 92 694 b 69 672 78 694 69 686 l 69 22 b 92 0 69 8 78 0 l 260 0 b 281 22 274 0 281 8 l 281 507 l 875 507 b 897 529 889 507 897 515 l 897 672 b 875 694 897 686 889 694 z "},"ѓ":{"ha":953,"x_min":0,"x_max":0,"o":"m 410 763 l 550 763 b 586 788 564 763 578 775 l 708 947 b 701 972 721 963 714 972 l 481 972 b 454 947 467 972 461 964 l 394 788 b 410 763 388 769 393 763 z m 875 694 l 92 694 b 69 672 78 694 69 686 l 69 22 b 92 0 69 8 78 0 l 260 0 b 281 22 274 0 281 8 l 281 507 l 875 507 b 897 529 889 507 897 515 l 897 672 b 875 694 897 686 889 694 z "},"ґ":{"ha":953,"x_min":0,"x_max":0,"o":"m 874 769 l 708 769 b 686 746 694 769 686 761 l 686 694 l 92 694 b 69 672 78 694 69 686 l 69 22 b 92 0 69 8 78 0 l 260 0 b 281 22 274 0 281 8 l 281 507 l 875 507 b 897 529 889 507 897 515 l 897 746 b 874 769 897 761 889 769 z "},"д":{"ha":1253,"x_min":0,"x_max":0,"o":"m 1190 188 l 1094 188 l 1094 674 b 1074 694 1094 688 1088 694 l 231 694 b 210 674 217 694 210 688 l 210 436 b 83 188 210 197 138 188 l 63 188 b 42 167 49 188 42 181 l 42 -86 b 65 -110 42 -101 50 -110 l 231 -110 b 253 -86 244 -110 253 -101 l 253 0 l 1000 0 l 1000 -86 b 1022 -110 1000 -101 1008 -110 l 1188 -110 b 1211 -86 1203 -110 1211 -101 l 1211 167 b 1190 188 1211 181 1204 188 z m 375 188 b 421 389 403 238 421 303 l 421 507 l 883 507 l 883 188 z "},"е":{"ha":1022,"x_min":0,"x_max":0,"o":"m 860 272 b 960 372 924 272 960 310 l 960 468 b 722 700 960 610 871 700 l 300 700 b 63 467 151 700 63 608 l 63 229 b 300 -7 63 88 151 -7 l 668 -7 b 947 128 825 -7 894 29 b 933 167 956 143 957 157 l 876 193 b 821 201 853 204 838 206 b 657 178 746 179 739 178 l 335 178 b 274 226 299 178 274 199 l 274 272 z m 335 513 l 688 513 b 749 465 724 513 749 493 l 749 418 l 274 418 l 274 465 b 335 513 274 493 299 513 z "},"ё":{"ha":1022,"x_min":0,"x_max":0,"o":"m 232 757 l 401 757 b 425 781 415 757 425 767 l 425 950 b 401 972 425 964 415 972 l 232 972 b 210 950 218 972 210 964 l 210 781 b 232 757 210 767 218 757 z m 590 757 l 760 757 b 782 781 774 757 782 767 l 782 950 b 760 972 782 964 774 972 l 590 972 b 567 950 576 972 567 964 l 567 781 b 590 757 567 767 576 757 z m 860 272 b 960 372 924 272 960 310 l 960 468 b 722 700 960 610 871 700 l 300 700 b 63 467 151 700 63 608 l 63 229 b 300 -7 63 88 151 -7 l 668 -7 b 947 128 825 -7 894 29 b 933 167 956 143 957 157 l 876 193 b 821 201 853 204 838 206 b 657 178 746 179 739 178 l 335 178 b 274 226 299 178 274 199 l 274 272 z m 335 513 l 688 513 b 749 465 724 513 749 493 l 749 418 l 274 418 l 274 465 b 335 513 274 493 299 513 z "},"ж":{"ha":1478,"x_min":0,"x_max":0,"o":"m 63 0 l 278 0 b 328 18 292 0 307 4 l 633 218 l 633 24 b 654 0 633 8 640 0 l 822 0 b 844 24 836 0 844 8 l 844 218 l 1149 18 b 1200 0 1171 4 1185 0 l 1415 0 b 1426 44 1439 0 1442 35 l 944 351 l 1408 651 b 1406 694 1435 668 1424 694 l 1179 694 b 1128 676 1161 694 1149 690 l 844 483 l 844 671 b 822 694 844 686 836 694 l 654 694 b 633 671 640 694 633 686 l 633 483 l 350 676 b 297 694 329 690 315 694 l 72 694 b 68 651 54 694 42 668 l 533 351 l 51 44 b 63 0 35 35 38 0 z "},"з":{"ha":1053,"x_min":0,"x_max":0,"o":"m 267 -8 l 772 -8 b 990 179 901 -8 990 71 b 893 338 990 249 975 313 l 893 353 b 986 500 975 376 986 428 b 772 694 986 610 901 694 l 267 694 b 63 481 139 694 63 631 b 78 464 63 469 67 464 l 264 464 b 279 481 274 464 279 469 b 322 507 279 499 285 507 l 721 507 b 768 469 739 507 768 514 b 729 425 768 426 753 425 l 276 425 b 260 408 267 425 260 419 l 260 278 b 276 261 260 267 267 261 l 729 261 b 760 215 753 261 760 246 b 721 179 760 176 742 179 l 322 179 b 279 196 292 179 279 181 b 264 214 279 210 274 214 l 78 214 b 63 196 67 214 63 210 b 267 -8 63 47 139 -8 z "},"и":{"ha":1147,"x_min":0,"x_max":0,"o":"m 92 694 b 69 672 78 694 69 686 l 69 22 b 92 0 69 8 78 0 l 304 0 b 338 15 317 0 326 7 l 846 475 l 861 475 l 861 22 b 883 0 861 8 869 0 l 1056 0 b 1078 22 1069 0 1078 8 l 1078 672 b 1056 694 1078 686 1069 694 l 843 694 b 810 679 831 694 821 688 l 301 219 l 286 219 l 286 672 b 264 694 286 686 278 694 z "},"й":{"ha":1147,"x_min":0,"x_max":0,"o":"m 522 738 l 621 738 b 826 949 763 738 826 806 b 804 972 826 964 818 972 l 676 972 b 654 949 663 972 657 964 b 589 879 649 914 643 879 l 556 879 b 490 949 501 879 496 914 b 467 972 488 964 481 972 l 340 972 b 318 949 326 972 318 964 b 522 738 318 806 381 738 z m 92 694 b 69 672 78 694 69 686 l 69 22 b 92 0 69 8 78 0 l 304 0 b 338 15 317 0 326 7 l 846 475 l 861 475 l 861 22 b 883 0 861 8 869 0 l 1056 0 b 1078 22 1069 0 1078 8 l 1078 672 b 1056 694 1078 686 1069 694 l 843 694 b 810 679 831 694 821 688 l 301 219 l 286 219 l 286 672 b 264 694 286 686 278 694 z "},"ѝ":{"ha":1147,"x_min":0,"x_max":0,"o":"m 590 947 b 561 972 583 964 575 972 l 351 972 b 338 947 336 972 325 963 l 460 789 b 494 763 468 776 481 763 l 636 763 b 651 788 651 763 658 769 z m 92 694 b 69 672 78 694 69 686 l 69 22 b 92 0 69 8 78 0 l 304 0 b 338 15 317 0 326 7 l 846 475 l 861 475 l 861 22 b 883 0 861 8 869 0 l 1056 0 b 1078 22 1069 0 1078 8 l 1078 672 b 1056 694 1078 686 1069 694 l 843 694 b 810 679 831 694 821 688 l 301 219 l 286 219 l 286 672 b 264 694 286 686 278 694 z "},"к":{"ha":914,"x_min":0,"x_max":0,"o":"m 863 44 l 381 351 l 846 651 b 842 694 872 668 860 694 l 617 694 b 564 676 599 694 585 690 l 281 483 l 281 671 b 260 694 281 686 274 694 l 92 694 b 69 671 78 694 69 686 l 69 24 b 92 0 69 8 78 0 l 260 0 b 281 24 274 0 281 8 l 281 218 l 586 18 b 636 0 607 4 622 0 l 851 0 b 863 44 876 0 879 35 z "},"ќ":{"ha":914,"x_min":0,"x_max":0,"o":"m 444 947 l 385 788 b 400 763 378 769 383 763 l 540 763 b 576 788 554 763 568 775 l 699 947 b 692 972 711 963 704 972 l 471 972 b 444 947 457 972 451 964 z m 863 44 l 381 351 l 846 651 b 842 694 872 668 860 694 l 617 694 b 564 676 599 694 585 690 l 281 483 l 281 671 b 260 694 281 686 274 694 l 92 694 b 69 671 78 694 69 686 l 69 24 b 92 0 69 8 78 0 l 260 0 b 281 24 274 0 281 8 l 281 218 l 586 18 b 636 0 607 4 622 0 l 851 0 b 863 44 876 0 879 35 z "},"л":{"ha":1106,"x_min":0,"x_max":0,"o":"m 104 -14 b 329 249 315 -14 329 103 l 329 507 l 825 507 l 825 24 b 847 0 825 8 833 0 l 1013 0 b 1036 24 1028 0 1036 8 l 1036 671 b 1013 694 1036 686 1028 694 l 140 694 b 118 671 126 694 118 686 l 118 239 b 43 171 118 190 93 171 b 0 129 13 171 0 157 l 0 46 b 104 -14 0 4 24 -14 z "},"м":{"ha":1240,"x_min":0,"x_max":0,"o":"m 92 0 l 260 0 b 281 22 274 0 281 8 l 281 414 l 292 414 l 544 78 b 572 64 553 67 557 64 l 668 64 b 696 78 683 64 688 67 l 949 414 l 960 414 l 960 22 b 981 0 960 8 967 0 l 1150 0 b 1171 22 1164 0 1171 8 l 1171 672 b 1150 694 1171 686 1164 694 l 951 694 b 926 679 940 694 935 690 l 621 278 l 314 679 b 289 694 306 690 300 694 l 92 694 b 69 672 78 694 69 686 l 69 22 b 92 0 69 8 78 0 z "},"н":{"ha":1107,"x_min":0,"x_max":0,"o":"m 1015 694 l 847 694 b 826 672 833 694 826 686 l 826 443 l 281 443 l 281 672 b 260 694 281 686 274 694 l 92 694 b 69 672 78 694 69 686 l 69 22 b 92 0 69 8 78 0 l 260 0 b 281 22 274 0 281 8 l 281 249 l 826 249 l 826 22 b 847 0 826 8 833 0 l 1015 0 b 1038 22 1029 0 1038 8 l 1038 672 b 1015 694 1038 686 1029 694 z "},"о":{"ha":1043,"x_min":0,"x_max":0,"o":"m 300 -7 l 742 -7 b 981 226 890 -7 981 85 l 981 467 b 742 700 981 608 890 700 l 300 700 b 63 467 151 700 63 608 l 63 229 b 300 -7 63 88 151 -7 z m 335 181 b 274 229 299 181 274 200 l 274 465 b 335 513 274 493 299 513 l 708 513 b 768 465 744 513 768 493 l 768 229 b 708 181 768 200 744 181 z "},"п":{"ha":1092,"x_min":0,"x_max":0,"o":"m 1000 694 l 92 694 b 69 672 78 694 69 686 l 69 22 b 86 0 69 8 72 0 l 260 0 b 281 22 274 0 281 8 l 281 507 l 811 507 l 811 22 b 832 0 811 8 818 0 l 1000 0 b 1022 22 1014 0 1022 8 l 1022 672 b 1000 694 1022 686 1014 694 z "},"р":{"ha":1050,"x_min":0,"x_max":0,"o":"m 263 -246 b 282 -224 269 -246 282 -237 l 282 61 l 296 61 b 453 -7 331 17 353 -7 l 750 -7 b 988 225 899 -7 988 83 l 988 465 b 750 700 988 607 899 700 l 453 700 b 296 632 353 700 331 676 l 282 632 l 282 672 b 260 694 282 686 274 694 l 92 694 b 69 672 78 694 69 686 l 69 -224 b 92 -246 69 -237 78 -246 z m 725 181 l 315 181 b 282 228 301 181 282 200 l 282 464 b 315 513 282 493 301 513 l 725 513 b 776 464 751 513 776 493 l 776 228 b 725 181 776 200 751 181 z "},"с":{"ha":1015,"x_min":0,"x_max":0,"o":"m 300 -7 l 668 -7 b 947 128 825 -7 894 29 b 933 167 956 143 957 157 l 876 193 b 821 201 853 204 838 206 b 657 178 746 179 739 178 l 335 178 b 274 226 299 178 274 199 l 274 465 b 335 513 274 493 299 513 l 696 513 b 753 465 736 513 753 500 l 753 431 b 783 407 753 414 765 407 l 929 407 b 960 436 947 407 960 415 l 960 469 b 726 700 960 614 896 700 l 300 700 b 63 467 151 700 63 608 l 63 229 b 300 -7 63 88 151 -7 z "},"т":{"ha":1022,"x_min":0,"x_max":0,"o":"m 944 694 l 78 694 b 56 672 64 694 56 686 l 56 519 b 78 499 56 506 64 499 l 406 499 l 406 22 b 428 0 406 8 414 0 l 596 0 b 617 22 610 0 617 8 l 617 499 l 944 499 b 967 519 958 499 967 506 l 967 672 b 944 694 967 686 958 694 z "},"у":{"ha":1167,"x_min":0,"x_max":0,"o":"m 1097 694 l 907 694 b 868 671 892 694 881 689 l 593 253 l 574 253 l 299 671 b 260 694 286 689 275 694 l 69 694 b 50 671 56 694 40 686 l 457 43 l 282 -228 b 300 -251 272 -243 286 -251 l 490 -251 b 529 -228 507 -251 517 -246 l 686 8 b 700 29 690 13 694 19 l 1117 671 b 1097 694 1126 686 1111 694 z "},"ў":{"ha":1167,"x_min":0,"x_max":0,"o":"m 533 738 l 632 738 b 838 949 774 738 838 806 b 815 972 838 964 829 972 l 688 972 b 665 949 674 972 668 964 b 600 879 660 914 654 879 l 567 879 b 501 949 513 879 507 914 b 478 972 499 964 492 972 l 351 972 b 329 949 338 972 329 964 b 533 738 329 806 392 738 z m 1097 694 l 907 694 b 868 671 892 694 881 689 l 593 253 l 574 253 l 299 671 b 260 694 286 689 275 694 l 69 694 b 50 671 56 694 40 686 l 457 43 l 282 -228 b 300 -251 272 -243 286 -251 l 490 -251 b 529 -228 507 -251 517 -246 l 686 8 b 700 29 690 13 694 19 l 1117 671 b 1097 694 1126 686 1111 694 z "},"ф":{"ha":1749,"x_min":0,"x_max":0,"o":"m 1450 700 l 1151 700 b 994 632 1051 700 1031 676 l 981 632 l 981 950 b 958 972 981 964 972 972 l 788 972 b 768 950 781 972 768 964 l 768 632 l 754 632 b 597 700 719 676 697 700 l 300 700 b 63 468 151 700 63 610 l 63 228 b 300 -7 63 86 151 -7 l 597 -7 b 754 61 697 -7 719 17 l 768 61 l 768 22 b 769 14 768 19 768 15 l 769 -224 b 790 -246 769 -237 776 -246 l 961 -246 b 981 -224 968 -246 981 -237 l 981 61 l 994 61 b 1151 -7 1031 17 1051 -7 l 1450 -7 b 1686 225 1599 -7 1686 83 l 1686 465 b 1450 700 1686 607 1599 700 z m 768 229 b 735 181 768 200 749 181 l 325 181 b 274 229 299 181 274 200 l 274 465 b 325 513 274 493 299 513 l 735 513 b 768 465 749 513 768 493 z m 1475 228 b 1424 181 1475 200 1450 181 l 1014 181 b 981 228 1000 181 981 200 l 981 464 b 1014 513 981 493 1000 513 l 1424 513 b 1475 464 1450 513 1475 493 z "},"х":{"ha":1038,"x_min":0,"x_max":0,"o":"m 657 347 l 982 668 b 967 694 996 679 983 694 l 751 694 b 706 669 740 694 726 690 l 518 485 l 331 669 b 286 694 310 690 297 694 l 71 694 b 54 668 54 694 42 679 l 379 347 l 54 26 b 72 0 39 13 56 0 l 288 0 b 332 25 299 0 311 4 l 518 210 l 704 25 b 750 0 725 4 739 0 l 965 0 b 982 26 982 0 996 13 z "},"ч":{"ha":1064,"x_min":0,"x_max":0,"o":"m 972 694 l 804 694 b 783 672 790 694 783 686 l 783 369 b 736 321 783 340 763 321 l 332 321 b 281 369 306 321 281 340 l 281 672 b 260 694 281 686 274 694 l 92 694 b 69 672 78 694 69 686 l 69 368 b 307 133 69 226 158 133 l 665 133 b 783 183 732 133 772 165 l 783 22 b 804 0 783 8 790 0 l 972 0 b 994 22 986 0 994 8 l 994 672 b 972 694 994 686 986 694 z "},"ц":{"ha":1265,"x_min":0,"x_max":0,"o":"m 1189 194 l 1036 194 l 1036 674 b 1015 694 1036 688 1029 694 l 843 694 b 822 674 829 694 822 688 l 822 194 l 304 194 l 304 674 b 283 694 304 688 297 694 l 111 694 b 90 674 97 694 90 688 l 90 21 b 111 0 90 7 97 0 l 996 0 l 996 -143 b 1017 -164 996 -157 1003 -164 l 1189 -164 b 1210 -143 1203 -164 1210 -157 l 1210 174 b 1189 194 1210 188 1203 194 z "},"ш":{"ha":1475,"x_min":0,"x_max":0,"o":"m 1364 694 l 1194 694 b 1174 674 1181 694 1174 688 l 1174 194 l 843 194 l 843 674 b 822 694 843 688 836 694 l 653 694 b 632 674 639 694 632 688 l 632 194 l 301 194 l 301 674 b 281 694 301 688 294 694 l 111 694 b 90 674 97 694 90 688 l 90 21 b 111 0 90 7 97 0 l 1364 0 b 1385 21 1378 0 1385 7 l 1385 674 b 1364 694 1385 688 1378 694 z "},"щ":{"ha":1654,"x_min":0,"x_max":0,"o":"m 1578 194 l 1385 194 l 1385 674 b 1364 694 1385 688 1378 694 l 1194 694 b 1174 674 1181 694 1174 688 l 1174 194 l 843 194 l 843 674 b 822 694 843 688 836 694 l 653 694 b 632 674 639 694 632 688 l 632 194 l 301 194 l 301 674 b 281 694 301 688 294 694 l 111 694 b 90 674 97 694 90 688 l 90 21 b 111 0 90 7 97 0 l 1386 0 l 1386 -143 b 1407 -164 1386 -157 1393 -164 l 1578 -164 b 1599 -143 1592 -164 1599 -157 l 1599 174 b 1578 194 1599 188 1592 194 z "},"ь":{"ha":1021,"x_min":0,"x_max":0,"o":"m 725 431 l 261 431 l 261 672 b 239 694 261 686 253 694 l 92 694 b 69 672 78 694 69 686 l 69 22 b 92 0 69 8 78 0 l 725 0 b 958 215 904 0 958 68 b 725 431 958 351 904 431 z m 735 188 l 261 188 l 261 243 l 735 243 b 767 215 733 243 767 251 b 735 188 767 188 733 188 z "},"ъ":{"ha":1071,"x_min":0,"x_max":0,"o":"m 775 431 l 311 431 l 311 672 b 289 694 311 686 303 694 l 43 694 b 21 672 29 694 21 686 l 21 529 b 43 507 21 515 29 507 l 119 507 l 119 22 b 140 0 119 8 126 0 l 775 0 b 1008 215 953 0 1008 68 b 775 431 1008 351 953 431 z m 785 188 l 311 188 l 311 243 l 785 243 b 817 215 783 243 817 251 b 785 188 817 188 783 188 z "},"ы":{"ha":1346,"x_min":0,"x_max":0,"o":"m 725 431 l 261 431 l 261 672 b 239 694 261 686 253 694 l 92 694 b 69 672 78 694 69 686 l 69 22 b 92 0 69 8 78 0 l 725 0 b 958 215 904 0 958 68 b 725 431 958 351 904 431 z m 1254 694 l 1086 694 b 1065 672 1072 694 1065 686 l 1065 22 b 1086 0 1065 8 1072 0 l 1254 0 b 1276 22 1268 0 1276 8 l 1276 672 b 1254 694 1276 686 1268 694 z m 735 188 l 261 188 l 261 243 l 735 243 b 767 215 733 243 767 251 b 735 188 767 188 733 188 z "},"є":{"ha":1015,"x_min":0,"x_max":0,"o":"m 783 407 l 929 407 b 960 436 947 407 960 415 l 960 469 b 726 700 960 614 896 700 l 300 700 b 63 467 151 700 63 608 l 63 229 b 300 -7 63 88 151 -7 l 668 -7 b 947 128 825 -7 894 29 b 933 167 956 143 957 157 l 876 193 b 821 201 853 204 838 206 b 657 178 746 179 739 178 l 335 178 b 274 226 299 178 274 199 l 274 263 l 500 263 b 522 283 514 263 522 269 l 522 411 b 500 433 522 425 514 433 l 274 433 l 274 465 b 335 513 274 493 299 513 l 696 513 b 753 465 736 513 753 500 l 753 431 b 783 407 753 414 765 407 z "},"э":{"ha":1015,"x_min":0,"x_max":0,"o":"m 715 700 l 289 700 b 56 469 121 700 56 614 l 56 436 b 88 407 56 415 68 407 l 232 407 b 263 431 250 407 263 414 l 263 465 b 319 513 263 500 279 513 l 681 513 b 742 465 717 513 742 493 l 742 433 l 515 433 b 493 411 501 433 493 425 l 493 283 b 515 263 493 269 501 263 l 742 263 l 742 226 b 681 178 742 199 717 178 l 360 178 b 194 201 276 178 271 179 b 139 193 179 206 163 204 l 82 167 b 68 128 58 157 60 143 b 349 -7 122 29 192 -7 l 715 -7 b 953 229 864 -7 953 88 l 953 467 b 715 700 953 608 864 700 z "},"і":{"ha":350,"x_min":0,"x_max":0,"o":"m 69 950 l 69 789 b 92 767 69 775 78 767 l 260 767 b 281 789 274 767 281 775 l 281 950 b 260 972 281 964 274 972 l 92 972 b 69 950 78 972 69 964 z m 69 672 l 69 22 b 92 0 69 8 78 0 l 260 0 b 281 22 274 0 281 8 l 281 672 b 260 694 281 686 274 694 l 92 694 b 69 672 78 694 69 686 z "},"ї":{"ha":350,"x_min":0,"x_max":0,"o":"m -101 757 l 68 757 b 92 781 82 757 92 767 l 92 950 b 68 972 92 964 82 972 l -101 972 b -124 950 -115 972 -124 964 l -124 781 b -101 757 -124 767 -115 757 z m 257 757 l 426 757 b 449 781 440 757 449 767 l 449 950 b 426 972 449 964 440 972 l 257 972 b 233 950 243 972 233 964 l 233 781 b 257 757 233 767 243 757 z m 69 672 l 69 22 b 92 0 69 8 78 0 l 260 0 b 281 22 274 0 281 8 l 281 672 b 260 694 281 686 274 694 l 92 694 b 69 672 78 694 69 686 z "},"ј":{"ha":351,"x_min":0,"x_max":0,"o":"m 92 767 l 260 767 b 282 789 274 767 282 775 l 282 950 b 260 972 282 964 274 972 l 92 972 b 71 950 78 972 71 964 l 71 789 b 92 767 71 775 78 767 z m 40 -251 b 282 -19 193 -251 282 -161 l 282 672 b 260 694 282 686 274 694 l 92 694 b 71 672 78 694 71 686 l 71 4 b -29 -68 71 -44 44 -68 l -112 -68 b -153 -103 -136 -68 -153 -76 l -153 -192 b -114 -243 -153 -226 -139 -239 b 40 -251 -82 -247 -36 -251 z "},"ю":{"ha":1397,"x_min":0,"x_max":0,"o":"m 1097 700 l 656 700 b 417 467 507 700 417 608 l 417 442 l 281 442 l 281 671 b 260 693 281 685 274 693 l 92 693 b 69 671 78 693 69 685 l 69 21 b 92 -1 69 7 78 -1 l 260 -1 b 281 21 274 -1 281 7 l 281 261 l 417 261 l 417 229 b 656 -7 417 88 507 -7 l 1097 -7 b 1335 226 1246 -7 1335 85 l 1335 467 b 1097 700 1335 608 1246 700 z m 1124 229 b 1063 181 1124 200 1099 181 l 689 181 b 629 229 653 181 629 200 l 629 465 b 689 513 629 493 653 513 l 1063 513 b 1124 465 1099 513 1124 493 z "},"я":{"ha":1024,"x_min":0,"x_max":0,"o":"m 253 0 b 274 22 267 0 274 8 l 274 129 b 338 213 274 181 274 213 l 743 213 l 743 22 b 764 0 743 8 750 0 l 932 0 b 954 22 946 0 954 8 l 954 672 b 932 694 954 686 946 694 l 288 694 b 72 486 150 694 72 603 b 160 318 72 432 83 376 b 63 156 81 288 63 224 l 63 22 b 85 0 63 8 71 0 z m 743 507 l 743 394 l 346 394 b 283 446 313 394 283 406 b 339 507 283 493 304 507 z "},"ӣ":{"ha":1147,"x_min":0,"x_max":0,"o":"m 347 783 l 797 783 b 818 804 810 783 818 790 l 818 951 b 797 972 818 965 810 972 l 347 972 b 326 951 333 972 326 965 l 326 804 b 347 783 326 790 333 783 z m 92 694 b 69 672 78 694 69 686 l 69 22 b 92 0 69 8 78 0 l 304 0 b 338 15 317 0 326 7 l 846 475 l 861 475 l 861 22 b 883 0 861 8 869 0 l 1056 0 b 1078 22 1069 0 1078 8 l 1078 672 b 1056 694 1078 686 1069 694 l 843 694 b 810 679 831 694 821 688 l 301 219 l 286 219 l 286 672 b 264 694 286 686 278 694 z "},"ө":{"ha":1043,"x_min":0,"x_max":0,"o":"m 742 699 l 300 699 b 63 465 151 699 63 607 l 63 225 b 300 -8 63 83 151 -8 l 742 -8 b 981 225 890 -8 981 83 l 981 463 b 742 699 981 606 890 699 z m 335 511 l 708 511 b 768 464 744 511 768 492 l 768 440 l 274 440 l 274 464 b 335 511 274 492 299 511 z m 708 179 l 335 179 b 274 228 299 179 274 200 l 274 253 l 768 253 l 768 228 b 708 179 768 200 744 179 z "},"ӭ":{"ha":1015,"x_min":0,"x_max":0,"o":"m 233 757 l 403 757 b 426 781 417 757 426 767 l 426 950 b 403 972 426 964 417 972 l 233 972 b 211 950 219 972 211 964 l 211 781 b 233 757 211 767 219 757 z m 592 757 l 761 757 b 783 781 775 757 783 767 l 783 950 b 761 972 783 964 775 972 l 592 972 b 568 950 578 972 568 964 l 568 781 b 592 757 568 767 578 757 z m 715 700 l 289 700 b 56 469 121 700 56 614 l 56 436 b 88 407 56 415 68 407 l 232 407 b 263 431 250 407 263 414 l 263 465 b 319 513 263 500 279 513 l 681 513 b 742 465 717 513 742 493 l 742 433 l 515 433 b 493 411 501 433 493 425 l 493 283 b 515 263 493 269 501 263 l 742 263 l 742 226 b 681 178 742 199 717 178 l 360 178 b 194 201 276 178 271 179 b 139 193 179 206 163 204 l 82 167 b 68 128 58 157 60 143 b 349 -7 122 29 192 -7 l 715 -7 b 953 229 864 -7 953 88 l 953 467 b 715 700 953 608 864 700 z "},"ӯ":{"ha":1167,"x_min":0,"x_max":0,"o":"m 386 783 l 836 783 b 857 804 849 783 857 790 l 857 951 b 836 972 857 965 849 972 l 386 972 b 365 951 372 972 365 965 l 365 804 b 386 783 365 790 372 783 z m 1097 694 l 907 694 b 868 671 892 694 881 689 l 593 253 l 574 253 l 299 671 b 260 694 286 689 275 694 l 69 694 b 50 671 56 694 40 686 l 457 43 l 282 -228 b 300 -251 272 -243 286 -251 l 490 -251 b 529 -228 507 -251 517 -246 l 686 8 b 700 29 690 13 694 19 l 1117 671 b 1097 694 1126 686 1111 694 z "},"Δ":{"ha":1199,"x_min":0,"x_max":0,"o":"m 1140 35 l 694 990 b 668 1013 688 1004 681 1013 l 532 1013 b 506 990 519 1013 513 1004 l 58 35 b 75 0 51 19 61 0 l 1122 0 b 1140 35 1136 0 1147 19 z m 350 217 l 600 750 l 844 217 z "},"Ω":{"ha":1356,"x_min":0,"x_max":0,"o":"m 1272 425 l 1272 763 b 1008 1025 1272 944 1168 1025 l 347 1025 b 83 763 188 1025 83 944 l 83 425 b 188 217 83 296 125 251 l 104 217 b 83 196 90 217 83 210 l 83 21 b 104 0 83 7 90 0 l 353 0 b 374 21 367 0 374 7 l 374 224 b 353 244 374 238 367 244 l 349 244 b 300 464 281 244 300 388 l 300 733 b 376 808 300 808 325 808 l 979 808 b 1056 733 1031 808 1056 808 l 1056 464 b 1007 244 1056 388 1075 244 l 1003 244 b 982 224 989 244 982 238 l 982 21 b 1003 0 982 7 989 0 l 1251 0 b 1272 21 1265 0 1272 7 l 1272 196 b 1251 217 1272 210 1265 217 l 1168 217 b 1272 425 1231 251 1272 296 z "},"μ":{"ha":1057,"x_min":0,"x_max":0,"o":"m 965 694 l 797 694 b 776 672 783 694 776 686 l 776 229 b 719 182 776 201 756 182 l 342 182 b 282 229 306 182 282 201 l 282 672 b 260 694 282 686 274 694 l 92 694 b 69 672 78 694 69 686 l 69 -256 b 92 -278 69 -269 78 -278 l 260 -278 b 282 -256 274 -278 282 -269 l 282 -4 b 307 -6 290 -6 299 -6 l 604 -6 b 761 63 704 -6 726 18 l 776 63 l 776 22 b 796 0 776 8 788 0 l 965 0 b 988 22 979 0 988 8 l 988 672 b 965 694 988 686 979 694 z "},"π":{"ha":1106,"x_min":0,"x_max":0,"o":"m 1029 694 l 75 694 b 56 674 61 694 56 688 l 56 499 b 76 478 56 485 61 478 l 158 478 l 158 21 b 179 0 158 7 165 0 l 354 0 b 375 21 368 0 375 7 l 375 478 l 729 478 l 729 21 b 750 0 729 7 736 0 l 925 0 b 946 21 939 0 946 7 l 946 478 l 1029 478 b 1050 497 1043 478 1050 485 l 1050 674 b 1029 694 1050 686 1043 694 z "},"¹":{"ha":419,"x_min":0,"x_max":0,"o":"m 167 951 l 167 564 b 188 543 167 550 174 543 l 232 543 b 253 564 246 543 253 550 l 253 951 b 232 972 253 965 246 972 l 188 972 b 167 951 174 972 167 965 z "},"²":{"ha":444,"x_min":0,"x_max":0,"o":"m 340 624 l 190 624 l 268 692 b 360 847 317 733 360 776 b 240 972 360 913 322 972 l 206 972 b 83 857 129 972 83 924 l 83 839 b 104 818 83 825 90 818 l 146 818 b 167 839 160 818 167 825 l 167 849 b 218 893 167 878 188 893 b 275 839 253 893 275 874 b 226 761 275 807 250 783 l 106 647 b 86 608 92 635 86 628 l 86 563 b 107 542 86 549 93 542 l 340 542 b 361 563 354 542 361 549 l 361 603 b 340 624 361 617 354 624 z "},"³":{"ha":451,"x_min":0,"x_max":0,"o":"m 301 757 b 360 853 343 778 360 810 b 243 972 360 913 322 972 l 208 972 b 86 857 132 972 86 924 l 86 839 b 107 818 86 825 93 818 l 149 818 b 169 839 163 818 169 825 l 169 849 b 224 893 169 878 190 893 b 278 840 258 893 278 874 b 226 793 278 810 264 793 l 204 793 b 185 772 192 793 185 786 l 185 742 b 204 721 185 728 192 721 l 226 721 b 281 674 267 721 281 704 b 224 621 281 640 261 621 b 167 665 188 621 167 636 l 167 675 b 146 696 167 689 160 696 l 104 696 b 83 675 90 696 83 689 l 83 657 b 208 542 83 590 129 542 l 243 542 b 368 661 331 542 368 601 b 301 757 368 704 346 736 z "},"⁄":{"ha":139,"x_min":0,"x_max":0,"o":"m 289 988 l -272 21 b -258 0 -281 7 -272 0 l -206 0 b -178 21 -192 0 -186 7 l 383 988 b 369 1008 392 1001 383 1008 l 317 1008 b 289 988 303 1008 297 1001 z "},"½":{"ha":1003,"x_min":0,"x_max":0,"o":"m 708 988 l 147 21 b 161 0 139 7 147 0 l 214 0 b 242 21 228 0 233 7 l 803 988 b 789 1008 811 1001 803 1008 l 736 1008 b 708 988 722 1008 717 1001 z m 167 951 l 167 564 b 188 543 167 550 174 543 l 232 543 b 253 564 246 543 253 550 l 253 951 b 232 972 253 965 246 972 l 188 972 b 167 951 174 972 167 965 z m 899 82 l 749 82 l 826 150 b 918 306 875 192 918 235 b 799 431 918 371 881 431 l 764 431 b 642 315 688 431 642 382 l 642 297 b 663 276 642 283 649 276 l 704 276 b 725 297 718 276 725 283 l 725 307 b 776 351 725 336 746 351 b 833 297 811 351 833 332 b 785 219 833 265 808 242 l 664 106 b 644 67 650 93 644 86 l 644 21 b 665 0 644 7 651 0 l 899 0 b 919 21 913 0 919 7 l 919 61 b 899 82 919 75 913 82 z "},"¼":{"ha":1025,"x_min":0,"x_max":0,"o":"m 708 988 l 147 21 b 161 0 139 7 147 0 l 214 0 b 242 21 228 0 233 7 l 803 988 b 789 1008 811 1001 803 1008 l 736 1008 b 708 988 722 1008 717 1001 z m 167 951 l 167 564 b 188 543 167 550 174 543 l 232 543 b 253 564 246 543 253 550 l 253 951 b 232 972 253 965 246 972 l 188 972 b 167 951 174 972 167 965 z m 921 150 l 901 150 l 901 410 b 881 431 901 424 894 431 l 811 431 b 788 415 803 431 793 426 l 649 151 b 642 126 646 146 642 138 l 642 92 b 665 71 642 78 650 71 l 818 71 l 818 21 b 839 0 818 7 825 0 l 881 0 b 901 21 894 0 901 7 l 901 71 l 921 71 b 942 92 935 71 942 78 l 942 129 b 921 150 942 143 935 150 z m 818 153 l 738 153 l 818 315 z "},"¾":{"ha":1057,"x_min":0,"x_max":0,"o":"m 740 988 l 179 21 b 193 0 171 7 179 0 l 246 0 b 274 21 260 0 265 7 l 835 988 b 821 1008 843 1001 835 1008 l 768 1008 b 740 988 754 1008 749 1001 z m 301 757 b 360 853 343 778 360 810 b 243 972 360 913 322 972 l 208 972 b 86 857 132 972 86 924 l 86 839 b 107 818 86 825 93 818 l 149 818 b 169 839 163 818 169 825 l 169 849 b 224 893 169 878 190 893 b 278 840 258 893 278 874 b 226 793 278 810 264 793 l 204 793 b 185 772 192 793 185 786 l 185 742 b 204 721 185 728 192 721 l 226 721 b 281 674 267 721 281 704 b 224 621 281 640 261 621 b 167 665 188 621 167 636 l 167 675 b 146 696 167 689 160 696 l 104 696 b 83 675 90 696 83 689 l 83 657 b 208 542 83 590 129 542 l 243 542 b 368 661 331 542 368 601 b 301 757 368 704 346 736 z m 953 150 l 933 150 l 933 410 b 913 431 933 424 926 431 l 843 431 b 819 415 835 431 825 426 l 681 151 b 674 126 678 146 674 138 l 674 92 b 697 71 674 78 682 71 l 850 71 l 850 21 b 871 0 850 7 857 0 l 913 0 b 933 21 926 0 933 7 l 933 71 l 953 71 b 974 92 967 71 974 78 l 974 129 b 953 150 974 143 967 150 z m 850 153 l 769 153 l 850 315 z "},"⅛":{"ha":1007,"x_min":0,"x_max":0,"o":"m 708 988 l 147 21 b 161 0 139 7 147 0 l 214 0 b 242 21 228 0 233 7 l 803 988 b 789 1008 811 1001 803 1008 l 736 1008 b 708 988 722 1008 717 1001 z m 167 951 l 167 564 b 188 543 167 550 174 543 l 232 543 b 253 564 246 543 253 550 l 253 951 b 232 972 253 965 246 972 l 188 972 b 167 951 174 972 167 965 z m 867 226 b 913 317 894 244 913 274 b 794 431 913 381 871 431 l 771 431 b 653 317 699 431 653 381 b 699 226 653 274 671 244 b 642 122 671 210 642 182 b 769 0 642 50 685 0 l 796 0 b 924 122 881 0 924 50 b 867 226 924 182 894 210 z m 786 258 l 779 258 b 733 307 751 258 733 276 b 779 356 733 338 751 356 l 786 356 b 832 307 814 356 832 338 b 786 258 832 276 814 258 z m 775 78 b 726 131 746 78 726 94 b 775 186 726 165 746 186 l 790 186 b 839 131 819 186 839 165 b 790 78 839 94 819 78 z "},"⅜":{"ha":1039,"x_min":0,"x_max":0,"o":"m 740 988 l 179 21 b 193 0 171 7 179 0 l 246 0 b 274 21 260 0 265 7 l 835 988 b 821 1008 843 1001 835 1008 l 768 1008 b 740 988 754 1008 749 1001 z m 301 757 b 360 853 343 778 360 810 b 243 972 360 913 322 972 l 208 972 b 86 857 132 972 86 924 l 86 839 b 107 818 86 825 93 818 l 149 818 b 169 839 163 818 169 825 l 169 849 b 224 893 169 878 190 893 b 278 840 258 893 278 874 b 226 793 278 810 264 793 l 204 793 b 185 772 192 793 185 786 l 185 742 b 204 721 185 728 192 721 l 226 721 b 281 674 267 721 281 704 b 224 621 281 640 261 621 b 167 665 188 621 167 636 l 167 675 b 146 696 167 689 160 696 l 104 696 b 83 675 90 696 83 689 l 83 657 b 208 542 83 590 129 542 l 243 542 b 368 661 331 542 368 601 b 301 757 368 704 346 736 z m 899 226 b 944 317 926 244 944 274 b 826 431 944 381 903 431 l 803 431 b 685 317 731 431 685 381 b 731 226 685 274 703 244 b 674 122 703 210 674 182 b 801 0 674 50 717 0 l 828 0 b 956 122 913 0 956 50 b 899 226 956 182 926 210 z m 818 258 l 811 258 b 765 307 783 258 765 276 b 811 356 765 338 783 356 l 818 356 b 864 307 846 356 864 338 b 818 258 864 276 846 258 z m 807 78 b 758 131 778 78 758 94 b 807 186 758 165 778 186 l 822 186 b 871 131 851 186 871 165 b 822 78 871 94 851 78 z "},"⅝":{"ha":1039,"x_min":0,"x_max":0,"o":"m 740 988 l 179 21 b 193 0 171 7 179 0 l 246 0 b 274 21 260 0 265 7 l 835 988 b 821 1008 843 1001 835 1008 l 768 1008 b 740 988 754 1008 749 1001 z m 238 824 b 169 799 215 824 188 818 l 169 892 l 332 892 b 353 913 346 892 353 899 l 353 951 b 332 972 353 965 346 972 l 110 972 b 89 951 96 972 89 965 l 89 757 b 110 736 89 743 96 736 l 168 736 b 221 754 181 749 201 754 b 281 682 268 754 281 726 b 224 621 281 640 261 621 b 167 665 188 621 167 636 l 167 675 b 146 696 167 689 160 696 l 104 696 b 83 675 90 696 83 689 l 83 657 b 208 542 83 590 129 542 l 243 542 b 368 682 331 542 368 601 b 238 824 368 769 325 824 z m 899 226 b 944 317 926 244 944 274 b 826 431 944 381 903 431 l 803 431 b 685 317 731 431 685 381 b 731 226 685 274 703 244 b 674 122 703 210 674 182 b 801 0 674 50 717 0 l 828 0 b 956 122 913 0 956 50 b 899 226 956 182 926 210 z m 818 258 l 811 258 b 765 307 783 258 765 276 b 811 356 765 338 783 356 l 818 356 b 864 307 846 356 864 338 b 818 258 864 276 846 258 z m 807 78 b 758 131 778 78 758 94 b 807 186 758 165 778 186 l 822 186 b 871 131 851 186 871 165 b 822 78 871 94 851 78 z "},"⅞":{"ha":1024,"x_min":0,"x_max":0,"o":"m 725 988 l 164 21 b 178 0 156 7 164 0 l 231 0 b 258 21 244 0 250 7 l 819 988 b 806 1008 828 1001 819 1008 l 753 1008 b 725 988 739 1008 733 1001 z m 353 908 l 353 951 b 332 972 353 965 346 972 l 104 972 b 83 951 90 972 83 965 l 83 910 b 104 889 83 896 90 889 l 260 889 l 104 561 b 117 542 100 551 104 542 l 175 542 b 197 561 186 542 193 551 l 347 885 b 353 908 353 896 353 903 z m 883 226 b 929 317 911 244 929 274 b 811 431 929 381 888 431 l 788 431 b 669 317 715 431 669 381 b 715 226 669 274 688 244 b 658 122 688 210 658 182 b 786 0 658 50 701 0 l 813 0 b 940 122 897 0 940 50 b 883 226 940 182 911 210 z m 803 258 l 796 258 b 750 307 768 258 750 276 b 796 356 750 338 768 356 l 803 356 b 849 307 831 356 849 338 b 803 258 849 276 831 258 z m 792 78 b 743 131 763 78 743 94 b 792 186 743 165 763 186 l 807 186 b 856 131 836 186 856 165 b 807 78 856 94 836 78 z "},".":{"ha":313,"x_min":0,"x_max":0,"o":"m 71 0 l 240 0 b 264 22 254 0 264 8 l 264 192 b 240 215 264 206 254 215 l 71 215 b 49 192 57 215 49 206 l 49 22 b 71 0 49 8 57 0 z "},",":{"ha":360,"x_min":0,"x_max":0,"o":"m 289 215 l 149 215 b 126 192 135 215 126 206 l 126 -65 l 57 -65 b 35 -89 43 -65 35 -75 l 35 -219 b 57 -242 35 -233 43 -242 l 253 -242 b 311 -185 290 -242 311 -221 l 311 192 b 289 215 311 206 303 215 z "},":":{"ha":313,"x_min":0,"x_max":0,"o":"m 71 479 l 240 479 b 264 503 254 479 264 489 l 264 672 b 240 694 264 686 254 694 l 71 694 b 49 672 57 694 49 686 l 49 503 b 71 479 49 489 57 479 z m 71 0 l 240 0 b 264 22 254 0 264 8 l 264 192 b 240 215 264 206 254 215 l 71 215 b 49 192 57 215 49 206 l 49 22 b 71 0 49 8 57 0 z "},";":{"ha":390,"x_min":0,"x_max":0,"o":"m 150 479 l 319 479 b 342 503 333 479 342 489 l 342 672 b 319 694 342 686 333 694 l 150 694 b 128 672 136 694 128 686 l 128 503 b 150 479 128 489 136 479 z m 303 215 l 163 215 b 140 192 149 215 140 206 l 140 -65 l 71 -65 b 49 -89 57 -65 49 -75 l 49 -219 b 71 -242 49 -233 57 -242 l 267 -242 b 325 -185 304 -242 325 -221 l 325 192 b 303 215 325 206 317 215 z "},"…":{"ha":1067,"x_min":0,"x_max":0,"o":"m 71 0 l 240 0 b 264 22 254 0 264 8 l 264 192 b 240 215 264 206 254 215 l 71 215 b 49 192 57 215 49 206 l 49 22 b 71 0 49 8 57 0 z m 450 0 l 619 0 b 643 22 633 0 643 8 l 643 192 b 619 215 643 206 633 215 l 450 215 b 428 192 436 215 428 206 l 428 22 b 450 0 428 8 436 0 z m 825 0 l 994 0 b 1018 22 1008 0 1018 8 l 1018 192 b 994 215 1018 206 1008 215 l 825 215 b 803 192 811 215 803 206 l 803 22 b 825 0 803 8 811 0 z "},"!":{"ha":396,"x_min":0,"x_max":0,"o":"m 113 326 l 283 326 b 306 349 297 326 306 335 l 306 950 b 283 972 306 964 297 972 l 113 972 b 89 950 99 972 89 964 l 89 349 b 113 326 89 335 99 326 z m 113 0 l 282 0 b 306 22 296 0 306 8 l 306 192 b 282 215 306 206 296 215 l 113 215 b 90 192 99 215 90 206 l 90 22 b 113 0 90 8 99 0 z "},"¡":{"ha":396,"x_min":0,"x_max":0,"o":"m 282 694 l 113 694 b 90 672 99 694 90 686 l 90 503 b 113 479 90 489 99 479 l 282 479 b 306 503 296 479 306 489 l 306 672 b 282 694 306 686 296 694 z m 283 368 l 113 368 b 89 346 99 368 89 360 l 89 -256 b 113 -278 89 -269 99 -278 l 283 -278 b 306 -256 297 -278 306 -269 l 306 346 b 283 368 306 360 297 368 z "},"?":{"ha":1208,"x_min":0,"x_max":0,"o":"m 475 326 l 649 326 b 671 350 663 326 671 336 l 671 381 b 746 442 671 421 701 442 l 883 442 b 1146 700 1063 442 1146 489 b 882 978 1146 910 1061 978 l 367 978 b 63 715 149 978 63 889 l 63 686 b 86 663 63 671 71 663 l 256 663 b 279 686 271 663 279 671 b 367 785 279 767 310 785 l 858 785 b 929 713 931 785 929 750 b 858 628 929 676 931 628 l 668 628 b 453 432 493 628 453 533 l 453 350 b 475 326 453 336 461 326 z m 474 0 l 643 0 b 667 22 657 0 667 8 l 667 192 b 643 215 667 206 657 215 l 474 215 b 451 192 460 215 451 206 l 451 22 b 474 0 451 8 460 0 z "},"¿":{"ha":1208,"x_min":0,"x_max":0,"o":"m 735 699 l 565 699 b 543 675 551 699 543 689 l 543 506 b 565 483 543 492 551 483 l 735 483 b 757 506 749 483 757 492 l 757 675 b 735 699 757 689 749 699 z m 735 372 l 560 372 b 538 347 546 372 538 361 l 538 317 b 463 256 538 278 507 256 l 326 256 b 63 -1 147 256 63 208 b 326 -279 63 -212 147 -279 l 842 -279 b 1146 -18 1060 -279 1146 -190 l 1146 13 b 1122 35 1146 28 1138 35 l 953 35 b 929 13 938 35 929 28 b 842 -86 929 -68 899 -86 l 350 -86 b 279 -15 278 -86 279 -53 b 350 69 279 22 278 69 l 542 69 b 756 267 715 69 756 164 l 756 347 b 735 372 756 361 749 372 z "}}}
